<svg xmlns="http://www.w3.org/2000/svg" viewBox="0 0 98.25 68.11"><defs><style>.cls-1{fill:#fff}</style></defs><title>bird4</title><g id="Layer_2" data-name="Layer 2"><g id="Layer_1-2" data-name="Layer 1"><path class="cls-1" d="M98.18 35.45l-1.79-3.83a.75.75 0 0 0-.54-.42L67.55 26a6.85 6.85 0 0 0 1.91-2.22.75.75 0 0 0-.41-1l-11.3-4.24A75.68 75.68 0 0 0 45 14.23h-.2c-9.37-2.16-15.67-1.6-17-1.45a33.08 33.08 0 0 0-8-2.5L14.16.38a.75.75 0 0 0-1.3.75L18 10c-.53 0-1.07-.08-1.61-.08a11.21 11.21 0 0 0-3.51.56.73.73 0 0 0-.06-.18L7.07.38a.75.75 0 0 0-1.3.75L11.46 11a11.68 11.68 0 0 0-4.17 3.4l-5.84 4.67L.28 20a.75.75 0 0 0 .62 1.33h.16c1.45-.25 12.17-1.8 16 6.61V28a19.12 19.12 0 0 0 1.38 2.67.74.74 0 0 0 .14.31 19.13 19.13 0 0 0 8.47 7.21L31 45l-.63.11a1 1 0 0 0 .16 2h.17l1.3-.25.36.63-1 .59a1 1 0 0 0 1 1.71l1-.57.45.78a1 1 0 0 0 .76 1.33L44 67.74a.75.75 0 0 0 1.3-.75l-9.42-16.46 3-4 12.24 21.21a.75.75 0 0 0 1.3-.75L39.93 45.24l6.47-5.18a1 1 0 0 0 .25-.29h19.3a.75.75 0 0 0 .72-.53l26 7.58a.74.74 0 0 0 .21 0 .75.75 0 0 0 .53-.22l2.83-2.83a.75.75 0 0 0 .18-.77l-1.27-3.82L98 36.29a.75.75 0 0 0 .18-.84zm-63.41 2.82A17.79 17.79 0 0 1 32 38c7.34-1.11 9.93-4.83 10.4-5.61a23.21 23.21 0 0 0 8.07-5.19c1.3.88 4.84 3.28 7.92 5.33 2 1.33 3.47 2.29 4.35 2.85a4.94 4.94 0 0 1 2.42 2.87zm-14-7.91a22.51 22.51 0 0 0 4.37-4.16 15.19 15.19 0 0 0 3.46-11.76h.08l.59.12h.17l.77.17h.13a47.56 47.56 0 0 1 6.51 2c4.52 1.8 9.61 4.71 12.53 9.3a21.63 21.63 0 0 1-7.63 4.92h-.19a25.43 25.43 0 0 1-9.3 1.48h-1.45a37.16 37.16 0 0 1-10.03-2.07zm16.28-16l1.19.14h.11c1.73.23 3.64.55 5.7 1a2.93 2.93 0 0 1-.83 2.75c-.52-.32-1.05-.62-1.58-.91l-.14-.08a43 43 0 0 0-7.87-3.21c1 0 2.11.13 3.33.26zm2.58 18.89a11 11 0 0 1-1.23.92c-1.84 1.19-5.16 2.61-10.58 2.64-.36-.15-.71-.31-1.06-.49a17.58 17.58 0 0 1-5.28-4.14 39.29 39.29 0 0 0 6 1.46h.1l.84.12h.34l.69.08.55.16h2.87a27.61 27.61 0 0 0 6.74-.81zM64.53 27h.27l30.4 5.6 1.41 3-2.53 2.56-23.59-6.92L63.1 27zm-4.45 0l7.3 4.17H59A989.62 989.62 0 0 1 52.79 27zm3.43 7.12l-2.24-1.45h8.82l23.61 6.95.19.58 1 2.86-2.19 2.19-26.19-7.62a6.56 6.56 0 0 0-3-3.5zm4.13-10.32a4.12 4.12 0 0 1-2.86 1.69h-14a22 22 0 0 0-6.28-6.34 4.33 4.33 0 0 0 1.12-3.23 74.74 74.74 0 0 1 11.59 3.93zM8.75 19.93a21.07 21.07 0 0 0-4.22-.41H3.26l3.83-3.07v1.27a.75.75 0 0 0 .75.75h1.62zm1.48.4l1.12-2.24a.75.75 0 0 0-.68-1.09H8.59v-1.83a10 10 0 0 1 7.75-3.75A28.67 28.67 0 0 1 27 14a13.48 13.48 0 0 1-3 11.25 21.17 21.17 0 0 1-4.5 4.17 17.52 17.52 0 0 1-1-2v-.09a12.5 12.5 0 0 0-8.28-7zm19 18.67a19.11 19.11 0 0 0 5.53.81h.29l2.39 4.17-4.89.81zm4.39 7.65l.36-.06-.3.18zm1.06 1.85l.47-.28-.36.47zm4.23-5l-2.14-3.72h6.78z"/><path class="cls-1" d="M14.45 14.17a1.46 1.46 0 1 0 1.46 1.46 1.46 1.46 0 0 0-1.46-1.46zm0 1.46h.08s-.13.05-.13 0z"/></g></g></svg>