<svg xmlns="http://www.w3.org/2000/svg" width="573.224" height="573.224" viewBox="0 0 573.224 573.224"><path d="M243.684 136.265c0 1.285.526 1.824 1.597 1.597.851 0 1.763-.998 2.717-3.036.961-2.013 2.607-3.133 4.957-3.36h-3.201c-4.045.655-6.07 2.253-6.07 4.799zm27.828-3.831c2.129-.637 3.996-.166 5.6 1.438s2.821 2.301 3.678 2.087c1.279-.636 1.597-1.597.961-2.889-1.714-2.76-5.123-2.974-10.239-.636z"/><path d="M516.207 472.124c-.636-.41-2.398-1.438-5.275-3.035-2.876-1.598-5.171-2.975-6.879-4.162-1.707-1.163-3.947-3.201-6.72-6.071-2.771-2.876-4.957-5.924-6.554-9.118-1.598-3.201-3.152-7.51-4.64-12.944-1.493-5.446-2.35-11.456-2.558-18.078-2.987 2.564-4.64 7.632-4.957 15.196-.318 7.582 1.278 15.306 4.798 23.188 3.519 7.895 8.794 13.017 15.832 15.354 6.824 2.351 12.313 4.859 16.476 7.521 4.161 2.662 6.823 5.698 7.998 9.107 1.169 3.408-.802 7.086-5.918 11.034-5.116 3.947-13.329 7.846-24.627 11.683-15.569 5.324-26.604 9.859-33.108 13.593-6.506 3.721-16.047 10.808-28.63 21.267-8.531 7.032-17.595 10.82-27.191 11.359-9.596.526-17.381-2.987-23.348-10.558-5.973-7.57-7.889-18.292-5.759-32.148 4.045-26.64 3.941-47.43-.318-62.375-3.415-11.72-4.161-22.068-2.24-31.022 1.922-8.959 4.902-14.167 8.954-15.667 4.045-1.487 8.421 1.714 13.115 9.597.429 1.064 1.383 3.146 2.876 6.236 1.487 3.097 2.718 5.275 3.679 6.561.961 1.272 2.398 2.938 4.32 4.957 1.922 2.025 4.321 3.464 7.197 4.309 2.876.862 6.236 1.389 10.073 1.598 7.246.226 13.752-1.273 19.511-4.475 5.759-3.2 10.073-6.774 12.956-10.722a369.625 369.625 0 0 1 8.636-11.358c2.876-3.611 5.385-5.649 7.515-6.071 2.345-.423 4.48-2.772 6.396-7.032 1.916-4.26 3.195-10.184 3.838-17.754.636-7.57.104-16.567-1.598-27.026-3.201-18.556-9.547-38.923-19.033-61.102-9.492-22.167-20.104-39.548-31.824-52.143-21.107-22.393-35.294-45.631-42.54-69.719-7.467-25.379-10.667-48.195-9.596-68.458 1.064-14.492-2.081-30.227-9.438-47.179S350.515 26.563 338.36 17.61c-7.675-5.759-17.167-10.184-28.471-13.28-11.304-3.084-22.607-4.523-33.904-4.309-13.862 0-24.952 2.234-33.269 6.708-17.062 9.186-28.36 20.318-33.905 33.434-5.545 13.109-8.103 29.26-7.674 48.452.851 42.222 2.558 75.282 5.116 99.156-2.993 11.096-16.212 31.885-39.664 62.375-4.266 4.271-8.427 10.019-12.473 17.271-4.052 7.258-7.252 13.758-9.596 19.517-2.35 5.759-5.49 14.07-9.437 24.951-3.948 10.869-6.775 18.556-8.476 23.029-1.494 3.838-3.837 8.323-7.038 13.434-3.201 5.123-5.759 10.135-7.675 15.031-1.921 4.908-2.993 10.459-3.201 16.64-.214 4.7 0 8.746.637 12.143.851 5.122 2.448 6.72 4.798 4.798 9.596-7.246 21.641-2.975 36.145 12.797 10.232 11.096 28.25 36.897 54.058 77.418 2.13 3.623 4.266 7.51 6.396 11.671 2.13 4.162 4.162 9.694 6.077 16.628 1.916 6.935 2.717 13.171 2.399 18.715-.318 5.533-2.772 10.661-7.356 15.355-4.59 4.688-11.469 7.675-20.631 8.947-4.908.648-10.826.215-17.754-1.272-6.934-1.5-15.729-3.947-26.39-7.362-10.667-3.409-18.549-5.76-23.672-7.032-7.466-1.714-18.072-3.898-31.824-6.561-13.758-2.662-22.766-4.633-27.032-5.912-7.252-1.922-11.194-4.7-11.836-8.323-.643-2.986.851-8.109 4.48-15.355 3.623-7.258 5.435-12.472 5.435-15.667a26.363 26.363 0 0 0-.318-7.031c-.428-2.351-.912-4.162-1.438-5.447-.533-1.272-1.438-3.2-2.717-5.747-1.279-2.563-2.136-4.485-2.558-5.759-3.837-8.959-4.376-15.03-1.598-18.231 1.922-2.772 6.5-3.85 13.758-3.2 10.875 1.064 19.719-.539 26.549-4.798 11.297-7.045 14.712-18.342 10.232-33.911 0 7.258-1.279 12.692-3.837 16.315-2.559 3.623-7.038 7.344-13.434 11.193-3.629 2.137-10.024 3.409-19.192 3.838-9.174.422-15.245 1.909-18.231 4.474-2.136 1.922-3.25 4.798-3.36 8.635-.11 3.85.374 7.748 1.438 11.684 1.065 3.947 2.13 8.47 3.201 13.593 1.064 5.109 1.487 9.382 1.279 12.797-.214 2.338-2.136 8.157-5.759 17.43-3.629 9.271-4.376 16.371-2.24 21.267 1.065 2.351 2.876 4.425 5.435 6.249 2.559 1.799 6.126 3.348 10.716 4.633 4.584 1.272 8.794 2.289 12.632 3.035 3.837.734 9.167 1.701 15.991 2.877 6.824 1.175 12.259 2.185 16.316 3.047 13.642 2.761 29.211 7.351 46.702 13.746 17.479 6.396 29.321 9.694 35.508 9.92 5.967.215 11.671-1.021 17.112-3.672 5.44-2.674 10.073-5.71 13.911-9.118 3.837-3.421 9.541-6.622 17.112-9.597 7.564-2.986 16.046-4.584 25.428-4.798 4.266-.227 10.447-.478 18.55-.802s14.18-.478 18.232-.478c18.335 0 32.197.099 41.585.312 6.396.214 11.407 1.224 15.03 3.035s5.968 3.898 7.038 6.249c1.065 2.338 2.821 5.049 5.282 8.146 2.447 3.097 5.6 5.6 9.437 7.521 8.104 3.837 17.595 5.373 28.471 4.633 10.875-.747 18.121-2.821 21.75-6.236 5.967-5.759 14.021-12.583 24.149-20.465 10.123-7.896 19.241-13.868 27.351-17.92 1.701-.862 4.584-2.233 8.636-4.161 4.045-1.91 7.46-3.574 10.232-4.964 2.772-1.389 6.126-3.146 10.073-5.275 3.941-2.136 7.143-4.112 9.597-5.924 2.447-1.812 4.957-3.898 7.515-6.236 2.559-2.351 4.211-4.7 4.958-7.032.746-2.35 1.01-4.736.795-7.197-.214-2.447-1.493-5.012-3.837-7.674-2.327-2.65-5.632-5.275-9.898-7.839zM354.676 170.818c.643-.41 1.065-.575 1.279-.477.208.11.637.539 1.279 1.273a153.29 153.29 0 0 1 1.763 2.087 68.364 68.364 0 0 0 2.24 2.546c.96 1.077 1.97 1.921 3.041 2.564 1.279.863 2.821 1.438 4.639 1.763 1.812.324 3.201.863 4.156 1.597.961.747 1.652 1.977 2.08 3.672.423 2.35.05 4.486-1.119 6.395-1.176 1.922-2.718 2.785-4.64 2.564-3.837-.851-7.999-4.21-12.473-10.074-4.473-5.862-5.232-10.489-2.245-13.91zm-39.663-124.26c1.064-1.389 1.701-2.497 1.915-3.36.423-1.285.478-2.613.159-3.997-.318-1.383-.214-2.772.318-4.162.532-1.377 1.763-2.172 3.679-2.399 1.921 0 4.479 1.597 7.674 4.798a93.643 93.643 0 0 0 3.042 1.922c1.383.851 2.344 1.597 2.876 2.234.533.636.802 1.175.802 1.597-.428 1.065-1.389 1.812-2.876 2.234-1.493.422-3.097.636-4.798.636-1.708 0-2.669.11-2.877.325-1.707.636-3.311 1.597-4.798 2.876a85.026 85.026 0 0 1-3.52 2.889c-.856.636-1.707.636-2.558 0-.856-1.285-1.175-2.185-.961-2.724.215-.526.857-1.487 1.923-2.869zM160.201 285.966c1.487-1.701 2.558-3.084 3.194-4.162.637-1.046 1.224-2.497 1.763-4.309.526-1.812 1.01-3.133 1.438-3.996.429-.851 1.065-1.175 1.922-.961.422.227.747.422.961.636.208.227.318.49.318.802v.961c0 .324-.055.747-.159 1.273a5.942 5.942 0 0 1-.478 1.451c-.214.422-.428 1.064-.636 1.909a31.702 31.702 0 0 1-.637 2.234c-.857 2.148-2.191 4.064-3.997 5.758-1.817 1.714-3.151 2.461-3.996 2.234-1.296-.403-1.186-1.694.307-3.83zm207.113 173.85c1.812 11.193 2.503 19.027 2.08 23.501-.428 6.836-1.866 16.42-4.32 28.788-2.454 12.369-3.996 20.582-4.639 24.64-4.48-.227-7.038-1.873-7.675-4.963-.637-3.098 0-7.1 1.915-11.996 4.688-14.296 7.143-24.101 7.356-29.425.429-9.811-.637-15.354-3.194-16.64-2.351-1.702-5.974 1.499-10.875 9.596-9.389 15.355-28.257 24.64-56.616 27.84-25.588 3.396-43.293-.435-53.097-11.518-2.136-1.5-4.272-1.763-6.396-.802-2.136.961-3.519 1.977-4.156 3.035-.214.423 0 1.065.637 1.922.636.851 1.652 2.124 3.036 3.837 1.383 1.702 2.503 3.409 3.36 5.123 8.317 14.492 7.57 24.303-2.24 29.425 0-9.822-.752-17.332-2.24-22.552-1.493-5.221-4.48-10.986-8.959-17.271-4.48-6.297-7.571-11.046-9.278-14.241 6.396-.636 11.249-3.084 14.554-7.344 3.305-4.26 4.798-8.844 4.479-13.758-.318-4.896-2.191-8.96-5.6-12.16-1.916-1.922-11.836-10.073-29.75-24.462-17.913-14.395-29.002-24.039-33.268-28.947-.857-.851-3.415-2.986-7.675-6.396-4.266-3.409-6.934-6.396-7.999-8.96-9.811-21.53-10.875-39.235-3.195-53.104l1.279-1.597c1.065-.202 1.169 1.714.318 5.759-1.279 5.985-1.708 11.946-1.279 17.919.851 13.434 4.688 23.452 11.512 30.062 4.48 4.486 7.57 4.162 9.278-.961 1.279-1.701 1.867-7.998 1.756-18.867-.11-10.869.049-18.231.483-22.062 1.702-12.161 6.763-27.191 15.19-45.104 8.421-17.92 15.086-27.516 19.994-28.789-3.837-6.175-5.067-12.895-3.678-20.153 1.383-7.246 3.623-13.434 6.72-18.556 3.091-5.11 6.236-11.034 9.437-17.742 3.201-6.72 4.798-12.742 4.798-18.079 0-1.487.104-2.564.318-3.201.636-1.909 3.305.435 7.999 7.032 8.954 13.231 15.673 21.016 20.153 23.354 4.688 2.564 9.915 2.46 15.673-.312s12.846-7.362 21.273-13.758c8.421-6.396 15.619-11.083 21.591-14.082.643-.202 1.652-.686 3.042-1.438 1.383-.734 2.448-1.273 3.2-1.598.747-.312 1.708-.802 2.877-1.438 1.169-.637 2.081-1.175 2.717-1.597.637-.422 1.279-.9 1.916-1.438s1.064-1.065 1.279-1.597c.208-.539.317-1.01.317-1.438-.428-1.921-1.334-3.097-2.717-3.525-1.39-.422-3.256-.159-5.6.802-2.351.961-4.957 2.234-7.84 3.837a879.25 879.25 0 0 0-9.597 5.435 140.92 140.92 0 0 1-10.716 5.6c-3.629 1.713-7.466 3.201-11.518 4.486-4.052 1.273-7.889 2.026-11.512 2.234-8.96.227-16.102-2.124-21.432-7.032-3.415-3.201-5.227-5.221-5.441-6.083-.214-.851.747-1.046 2.882-.636 11.512 1.499 19.933 1.713 25.27.636 5.545-.851 13.005-3.299 22.387-7.344 1.922-.851 6.769-2.938 14.554-6.249 7.778-3.299 13.807-5.6 18.072-6.873 2.558-.636 4.32-1.646 5.275-3.036.954-1.389 1.278-2.662.961-3.837-.318-1.175-1.017-2.087-2.081-2.724-2.351-1.273-4.474-.422-6.396 2.564-1.071 1.909-3.311 3.788-6.72 5.6-3.415 1.812-6.555 3.201-9.438 4.162-2.876.949-6.561 2.075-11.034 3.348-4.479 1.285-6.934 2.038-7.356 2.246-11.732 3.623-22.607 5.22-32.626 4.798-4.694-.214-8.476-.9-11.353-2.087-2.876-1.163-4.853-2.564-5.918-4.162-1.071-1.598-2.772-3.611-5.116-6.071a35.514 35.514 0 0 0-7.999-6.236c-2.136-1.065-2.931-2.986-2.399-5.759.526-2.772 2.185-5.649 4.957-8.635.208-.214 2.399-1.536 6.561-3.997 4.155-2.448 7.087-4.963 8.794-7.521 1.916-2.974 5.227-6.071 9.914-9.271.208-.851.367-3.201.478-7.032.104-3.85-.912-7.999-3.042-12.485-2.136-4.474-5.012-6.707-8.635-6.707-5.117-.214-8.746 1.273-10.875 4.474-2.136 3.201-3.097 7.148-2.876 11.83.208 4.063 1.224 7.631 3.042 10.722 1.812 3.097 3.464 4.633 4.958 4.633 2.344-.214 3.09.636 2.24 2.564-1.279 2.35-2.993 3.837-5.116 4.474-1.493.435-3.146-1.01-4.957-4.308-1.812-3.299-3.201-7.295-4.156-11.995-.955-4.7-1.334-8.648-1.12-11.842.422-6.598 2.185-12.944 5.275-19.027 3.09-6.071 7.515-9.008 13.274-8.794 5.967.227 10.765 3.837 14.395 10.881 3.623 7.032 5.331 16.628 5.116 28.789.637 1.5 2.289 2.026 4.957 1.597 2.662-.422 6.181-.489 10.557-.165 4.37.312 7.515 1.438 9.437 3.36.208 0 .318-1.597.318-4.798-3.837-26.879 5.648-41.157 28.47-42.871 3.409.636 6.286 1.438 8.636 2.399 2.344.961 4.847 2.564 7.516 4.798 2.662 2.234 4.901 5.496 6.72 9.762 1.805 4.271 3.249 9.596 4.32 15.991v11.83c0 6.836-1.389 10.673-4.161 11.518-4.474 1.499-7.675 1.438-9.597-.166-1.915-1.597-1.707-4.425.637-8.47 2.13-5.336 1.707-11.518-1.279-18.556-2.986-7.032-8.427-10.232-16.315-9.596-5.331.214-9.174 3.097-11.519 8.635-2.35 5.545-3.2 10.985-2.558 16.316.637 5.337 1.812 8.097 3.519 8.311 1.279.227 5.062 1.922 11.353 5.123 6.292 3.201 11.035 5.11 14.235 5.759 8.317 1.702 13.061 4.376 14.235 7.999 1.169 3.623.691 8.898-1.438 15.833-2.136 6.934-2.772 12.631-1.922 17.105.852 4.7 2.448 8.959 4.799 12.797 2.344 3.849 4.847 7.362 7.515 10.557 2.663 3.201 5.809 9.187 9.438 17.919 3.623 8.746 6.928 19.731 9.914 32.95.208.214 1.01.949 2.399 2.234 1.383 1.273 2.766 2.876 4.155 4.798 1.383 1.91 3.042 4.535 4.957 7.834 1.916 3.311 3.997 8.158 6.236 14.553 2.24 6.396 4.321 13.758 6.236 22.069 2.344 9.822 3.568 21.23 3.679 34.223.104 13.018.96 21.916 2.558 26.714s5.704 6.775 12.313 5.924c8.317-.422 13.642-4.896 15.991-13.445 7.038-24.725 1.279-54.376-17.271-88.911-7.038-13.446-13.115-22.289-18.231-26.549 7.461 4.26 15.141 12.258 23.03 23.991 7.889 11.732 12.9 22.705 15.036 32.95.208 1.065.802 3.898 1.757 8.471.961 4.583 1.487 7.258 1.598 7.998.104.747.525 2.938 1.278 6.561.747 3.623 1.12 5.974 1.12 7.032 0 1.077.104 3.146.318 6.236.208 3.097.159 5.496-.159 7.197-.318 1.714-.637 3.996-.961 6.885a52.494 52.494 0 0 1-1.597 8.312c-.753 2.674-1.549 5.6-2.399 8.794 11.726 5.122 17.595 9.597 17.595 13.434-4.479-3.611-10.875-6.01-19.192-7.197-8.316-1.163-16.047-.049-23.188 3.36-7.148 3.421-10.826 9.069-11.034 16.958-7.675 0-13.115 1.922-16.316 5.759-4.693 5.545-7.147 13.054-7.355 22.553-.18 9.468.615 19.798 2.433 30.991zM235.367 112.604c-.636-.214-1.175-.851-1.597-1.922 0-1.909.961-2.65 2.876-2.233 1.279.435 2.503 2.038 3.678 4.798 1.169 2.785 1.438 5.985.802 9.596 0 .637-.318.961-.961.961-2.35 0-3.201-2.124-2.558-6.396.643-3.206-.11-4.804-2.24-4.804zm82.846 5.123l-.643.949c-1.707 1.077-2.558 1.285-2.558.648-.857-5.759-2.772-9.058-5.759-9.92-.429-.214-.857-.422-1.279-.636-1.493-1.286-.753-2.026 2.24-2.234.636-.214 1.597.098 2.876.948 1.279.863 2.448 2.197 3.519 3.997 1.072 1.823 1.604 3.898 1.604 6.248z"/></svg>