<svg xmlns="http://www.w3.org/2000/svg" viewBox="0 0 1524.15 680.56"><defs><style>.a{isolation:isolate}.b{fill:#1e1c33}.c{opacity:.66;mix-blend-mode:luminosity}.d,.f{fill:none;stroke:#efea48;stroke-linecap:round;stroke-miterlimit:10}.d{stroke-width:3.46px}.e{fill:#efea48}.f{stroke-width:7px}</style></defs><title>mapOfMe</title><g class="a"><path class="b" d="M0 0h1524.15v680.56H0z"/><g class="c"><path class="d" d="M485.04 586.45l11.92 11.93 1.13 1.14v20.82"/><path class="d" d="M480.72 590.78l11.32 11.33v18.23"/><path class="e" d="M250.234 380.27l77.492 77.492-77.492 77.491-77.492-77.491z"/><path class="f" d="M250.234 369.564l88.198 88.198-88.198 88.197-88.197-88.197z"/><path class="d" d="M-.18 623.13h157.14l86.36-86.45"/><path class="d" d="M-.18 617.08h154.54l84.65-84.73"/><path class="d" d="M-.18 611.89h151.95l82.97-83.05"/><path class="d" d="M-.18 605.84h149.36l81.29-81.38"/><path class="d" d="M-.18 599.79h146.76l79.62-79.71"/><path class="d" d="M-.18 593.73h144.17l77.94-78.03"/><path class="d" d="M-.18 587.68h141.57l76.27-76.35"/><path class="d" d="M-.18 581.63H138.8l74.59-74.68"/><path class="d" d="M-.18 575.58h136.39l72.91-73.01"/><path class="d" d="M-.18 569.52h133.79l71.24-71.33"/><path class="d" d="M-.18 564.33h131.2l69.56-69.65"/><path class="d" d="M-.18 558.28h128.6l67.89-67.98"/><path class="d" d="M-.18 552.23h126.01l66.21-66.3"/><path class="d" d="M-.18 546.17h123.41l64.54-64.62"/><path class="d" d="M0 539.88l120.64.25 62.95-62.95"/><path class="d" d="M-.18 534.07h118.23l61.19-61.28"/><path class="d" d="M-.18 528.02h115.63l59.52-59.6"/><path class="d" d="M-.18 521.96h113.04l57.84-57.92M439 623.13h-94.96l-86.37-86.45"/><path class="d" d="M439 617.08h-92.37l-84.64-84.73"/><path class="d" d="M439 611.89h-89.77l-82.98-83.05"/><path class="d" d="M439 605.84h-87.18l-81.3-81.38"/><path class="d" d="M439 599.79h-84.58l-79.63-79.71"/><path class="d" d="M439 593.73h-81.99l-77.95-78.03"/><path class="d" d="M439 587.68h-79.4l-76.27-76.35"/><path class="d" d="M465.8 581.63H362.2l-74.63-74.68"/><path class="d" d="M459.75 575.58h-94.96l-72.85-73.01"/><path class="d" d="M453.7 569.52h-86.31L296 498.19"/><path class="d" d="M447.65 564.33h-77.67l-69.76-69.65"/><path class="d" d="M446.78 558.28h-74.21l-67.94-67.98"/><path class="d" d="M452.83 552.23h-77.66l-66.31-66.3"/><path class="d" d="M458.89 546.17h-81.13l-64.57-64.62"/><path class="d" d="M464.73 539.88l-84.37.25-62.96-62.95"/><path class="d" d="M470.99 534.07h-88.04l-61.12-61.28"/><path class="d" d="M476.18 528.02h-90.63l-59.46-59.6"/><path class="d" d="M401.82 521.96h-13.68l-58.06-57.92M-.09 291.09h157.05l86.36 86.45"/><path class="d" d="M-.09 297.14h154.45l84.65 84.73"/><path class="d" d="M-.09 303.19h151.86l82.97 83.06"/><path class="d" d="M-.09 309.25h149.27l81.29 81.38"/><path class="d" d="M-.09 315.3h146.67L226.2 395"/><path class="d" d="M-.09 321.35h144.08l77.94 78.03"/><path class="d" d="M-.09 327.41h141.48l76.27 76.35"/><path class="d" d="M-.09 333.46H138.8l74.59 74.68"/><path class="d" d="M-.09 338.65h136.3l72.91 73"/><path class="d" d="M-.09 344.7h133.7l71.24 71.33"/><path class="d" d="M-.09 350.75h131.11l69.56 69.66"/><path class="d" d="M-.09 356.81h128.51l67.89 67.97"/><path class="d" d="M-.09 362.86h125.92l66.21 66.3"/><path class="d" d="M-.09 368.91h123.32l64.54 64.63"/><path class="d" d="M.09 374.91l120.55-.25 62.95 62.95"/><path class="d" d="M-.09 381.02h118.14l61.19 61.27"/><path class="d" d="M-.09 386.2h115.54l59.52 59.61"/><path class="d" d="M-.09 392.26h112.95l57.84 57.92m86.89-72.47l86.45-86.62h94.79l39.49-39.41"/><path class="d" d="M261.79 381.87l84.84-84.73h164.14"/><path class="d" d="M266.17 386.31l83.06-83.12h183.16l45.89-45.86"/><path class="d" d="M479.81 309.25H351.82l-81.58 81.38m202.78-75.33l-6.05 6.05-6.05 6.06-5.67 5.66-5.58 5.58-2.88 2.89 33.02 33.01 33.01-33.01-2.88-2.89-5.58-5.58-5.66-5.66-6.05-6.06-6.05-6.05"/><path class="d" d="M274.58 395.01l79.84-79.71h118.6m46.33 0H486.6m47.99 6.05h-41.94"/><path class="d" d="M279.1 399.38l77.91-78.03h109.96"/><path class="d" d="M283.38 403.76l76.23-76.35h101.31m88.4 0H498.7"/><path class="d" d="M287.4 407.75l74.8-74.68h93.05m105.86 0h-56.75m31.24 5.58h-25.67m45.99 0h-5.45"/><path class="d" d="M291.81 411.65l72.99-73h84.87"/><path class="d" d="M296.14 416.03l71.25-71.33h82.56m79.6 0h-19.89m74.27 0h-27.4"/><path class="d" d="M300.41 420.4l69.57-69.65H456m67.5 0h-19.89"/><path class="d" d="M304.68 424.78l67.9-67.97h89.48m55.39 0h-19.9m95.62 0h-24.54"/><path class="d" d="M308.95 429.16l66.22-66.3h92.95m43.28 0h-19.9m102.46 0h-19.28"/><path class="d" d="M313.22 433.54l64.54-64.63h96.41m40.53 0h-29.25m108.51 0h-22.58"/><path class="d" d="M317.4 437.61l62.96-62.95 140.25.17"/><path class="d" d="M321.76 441.43l61.19-61.28h142.99m61.45 0h-27.25"/><path class="d" d="M325.94 445.98l59.61-59.78h123.49l40.29 40.38"/><path class="d" d="M330.21 450.3l57.93-58.04h114.85l40.05 40.11M473.02 315.3l6.79-6.79 6.79 6.79"/><path class="e" d="M479.802 313.569l27.959 27.959-27.96 27.959-27.958-27.959z"/><path d="M471 336.73v8.59h-1.7v-3.67h-3.9v3.67h-1.67v-8.59h1.67v3.47h3.9v-3.47zm8.18 1.46h-2.75v7.13h-1.66v-7.13H472v-1.46h7.15zm8.08 7.13v-5.69l-2.26 4.24h-.91l-2.22-4.24v5.69h-1.67v-8.59h1.8l2.54 4.89 2.57-4.89h1.78v8.59zm3.46 0v-8.59h1.67v7.13h4.38v1.46z"/><path class="d" d="M543.038 331.215l33.015 33.015-33.015 33.015-33.015-33.015z"/><path class="e" d="M543.038 336.278l27.959 27.959-27.96 27.959-27.958-27.96z"/><path d="M531.84 363.66a4.44 4.44 0 0 1 .28-1.56 4.17 4.17 0 0 1 2.16-2.35 4.11 4.11 0 0 1 1.79-.38 3.91 3.91 0 0 1 2.05.52 3.33 3.33 0 0 1 1.29 1.36l-1.28.88a2.19 2.19 0 0 0-.41-.61 2.06 2.06 0 0 0-.52-.39 2.34 2.34 0 0 0-.58-.21 2.79 2.79 0 0 0-.59-.07 2.26 2.26 0 0 0-1.1.25 2.41 2.41 0 0 0-.77.66 2.9 2.9 0 0 0-.47.92 3.48 3.48 0 0 0-.16 1 3.33 3.33 0 0 0 .18 1.1 2.92 2.92 0 0 0 .51.93 2.58 2.58 0 0 0 .8.64 2.19 2.19 0 0 0 1 .24 2.66 2.66 0 0 0 .61-.07 2.3 2.3 0 0 0 .6-.23 2.28 2.28 0 0 0 .53-.41 1.87 1.87 0 0 0 .39-.6l1.37.79a2.59 2.59 0 0 1-.59.85 3.8 3.8 0 0 1-.86.62 4.38 4.38 0 0 1-1 .39 4.48 4.48 0 0 1-1.07.13 3.67 3.67 0 0 1-1.68-.39 4.37 4.37 0 0 1-1.31-1 4.68 4.68 0 0 1-.86-1.42 4.42 4.42 0 0 1-.31-1.59zm13.95-1.98a2 2 0 0 0-.31-.23 3.75 3.75 0 0 0-.54-.28 4.76 4.76 0 0 0-.7-.24 3.06 3.06 0 0 0-.76-.1 1.71 1.71 0 0 0-1 .25.84.84 0 0 0-.34.71.73.73 0 0 0 .13.44 1.1 1.1 0 0 0 .37.31 3.06 3.06 0 0 0 .61.24l.85.23q.63.17 1.14.36a3.11 3.11 0 0 1 .87.48 2 2 0 0 1 .55.7 2.31 2.31 0 0 1 .19 1 2.49 2.49 0 0 1-.26 1.18 2.19 2.19 0 0 1-.7.79 3.05 3.05 0 0 1-1 .44 5.1 5.1 0 0 1-1.2.14 6.48 6.48 0 0 1-1.91-.29A5.91 5.91 0 0 1 540 367l.74-1.44a2.29 2.29 0 0 0 .39.28 6 6 0 0 0 .67.35 5.29 5.29 0 0 0 .86.3 3.86 3.86 0 0 0 1 .12q1.38 0 1.38-.88a.73.73 0 0 0-.16-.47 1.34 1.34 0 0 0-.45-.34 4.29 4.29 0 0 0-.7-.27l-.92-.27a7.7 7.7 0 0 1-1.07-.37 2.8 2.8 0 0 1-.76-.47 1.76 1.76 0 0 1-.45-.63 2.17 2.17 0 0 1-.15-.85 2.67 2.67 0 0 1 .24-1.16 2.35 2.35 0 0 1 .67-.85 3.06 3.06 0 0 1 1-.51 4.12 4.12 0 0 1 1.22-.18 4.74 4.74 0 0 1 1.67.28 6.24 6.24 0 0 1 1.33.67zm7.42 0a2.05 2.05 0 0 0-.31-.23 3.75 3.75 0 0 0-.54-.28 4.78 4.78 0 0 0-.7-.24 3.05 3.05 0 0 0-.76-.1 1.71 1.71 0 0 0-1 .25.84.84 0 0 0-.34.71.73.73 0 0 0 .13.44 1.1 1.1 0 0 0 .37.31 3 3 0 0 0 .61.24l.85.23q.63.17 1.14.36a3.11 3.11 0 0 1 .87.48 2 2 0 0 1 .55.7 2.31 2.31 0 0 1 .19 1 2.49 2.49 0 0 1-.26 1.18 2.19 2.19 0 0 1-.7.79 3.05 3.05 0 0 1-1 .44 5.1 5.1 0 0 1-1.2.14 6.48 6.48 0 0 1-1.91-.29 5.91 5.91 0 0 1-1.69-.82l.74-1.44a2.29 2.29 0 0 0 .39.28 6 6 0 0 0 .67.35 5.29 5.29 0 0 0 .86.3 3.86 3.86 0 0 0 1 .12q1.38 0 1.38-.88a.73.73 0 0 0-.16-.47 1.34 1.34 0 0 0-.45-.34 4.29 4.29 0 0 0-.7-.27l-.92-.27a7.7 7.7 0 0 1-1.07-.37 2.8 2.8 0 0 1-.76-.47 1.76 1.76 0 0 1-.45-.63 2.17 2.17 0 0 1-.15-.85 2.67 2.67 0 0 1 .24-1.16 2.35 2.35 0 0 1 .67-.85 3.06 3.06 0 0 1 1-.51 4.11 4.11 0 0 1 1.22-.18 4.74 4.74 0 0 1 1.67.28 6.25 6.25 0 0 1 1.33.67z"/><path class="d" d="M477.426 527.43l33.015 33.015-33.015 33.015-33.015-33.015z"/><path class="e" d="M477.426 532.493l27.959 27.959-27.959 27.959-27.959-27.959z"/><path d="M466.76 563.94a4.33 4.33 0 0 0 1 .46 4.59 4.59 0 0 0 1.58.25 2.76 2.76 0 0 0 1.39-.3 1.9 1.9 0 0 0 .79-.92 5 5 0 0 0 .35-1.55q.08-.92.08-2.17v-7.49h2.86v7.49a24.31 24.31 0 0 1-.18 3.06 6.18 6.18 0 0 1-.75 2.36 3.86 3.86 0 0 1-1.65 1.51 6.57 6.57 0 0 1-2.91.54 5.5 5.5 0 0 1-3.2-.91zm19.72-7.87a3.63 3.63 0 0 0-.53-.39 6.48 6.48 0 0 0-.93-.49 8.08 8.08 0 0 0-1.19-.4 5.21 5.21 0 0 0-1.31-.17 2.93 2.93 0 0 0-1.76.44 1.44 1.44 0 0 0-.58 1.22 1.26 1.26 0 0 0 .22.76 1.88 1.88 0 0 0 .63.53 5.3 5.3 0 0 0 1 .41q.63.19 1.46.39 1.08.29 2 .62a5.3 5.3 0 0 1 1.49.83 3.43 3.43 0 0 1 .94 1.19 4 4 0 0 1 .33 1.71 4.26 4.26 0 0 1-.45 2 3.74 3.74 0 0 1-1.2 1.36 5.22 5.22 0 0 1-1.74.76 8.76 8.76 0 0 1-2.06.24 11.1 11.1 0 0 1-3.28-.5 10.12 10.12 0 0 1-2.91-1.41l1.27-2.47a3.94 3.94 0 0 0 .67.49 10.29 10.29 0 0 0 1.15.6 9 9 0 0 0 1.47.51 6.65 6.65 0 0 0 1.66.21q2.37 0 2.37-1.51a1.24 1.24 0 0 0-.27-.81 2.28 2.28 0 0 0-.77-.58 7.36 7.36 0 0 0-1.2-.46l-1.58-.46a13.42 13.42 0 0 1-1.84-.63 4.82 4.82 0 0 1-1.3-.81 3 3 0 0 1-.78-1.08 3.73 3.73 0 0 1-.26-1.46 4.57 4.57 0 0 1 .42-2 4 4 0 0 1 1.15-1.45 5.21 5.21 0 0 1 1.71-.88 7.06 7.06 0 0 1 2.1-.3 8.13 8.13 0 0 1 2.86.49 10.69 10.69 0 0 1 2.28 1.15z"/><path class="d" d="M523.74 514.18h42.37v19.02h-42.37z"/><path class="e" d="M528.06 517.64h33.72v12.11h-33.72z"/><path d="M540.3 526.18v1.46h-6V519h5.86v1.46H536v2.07h3.62v1.36H536v2.24zm6.24-4.88a2 2 0 0 0-.31-.23 3.75 3.75 0 0 0-.54-.28 4.76 4.76 0 0 0-.7-.24 3.06 3.06 0 0 0-.76-.1 1.71 1.71 0 0 0-1 .25.84.84 0 0 0-.34.71.73.73 0 0 0 .13.44 1.1 1.1 0 0 0 .37.31 3.06 3.06 0 0 0 .61.24l.85.23q.63.17 1.14.36a3.11 3.11 0 0 1 .87.48 2 2 0 0 1 .55.7 2.31 2.31 0 0 1 .19 1 2.49 2.49 0 0 1-.26 1.18 2.19 2.19 0 0 1-.7.79 3.05 3.05 0 0 1-1 .44 5.1 5.1 0 0 1-1.2.14 6.48 6.48 0 0 1-1.91-.29 5.91 5.91 0 0 1-1.69-.82l.74-1.44a2.29 2.29 0 0 0 .39.28 6 6 0 0 0 .67.35 5.29 5.29 0 0 0 .86.3 3.86 3.86 0 0 0 1 .12q1.38 0 1.38-.88a.73.73 0 0 0-.16-.47 1.34 1.34 0 0 0-.45-.34 4.29 4.29 0 0 0-.7-.27l-.92-.27a7.7 7.7 0 0 1-1.07-.37 2.8 2.8 0 0 1-.76-.47 1.76 1.76 0 0 1-.45-.63 2.17 2.17 0 0 1-.15-.85 2.67 2.67 0 0 1 .24-1.16 2.35 2.35 0 0 1 .67-.85 3.06 3.06 0 0 1 1-.51 4.12 4.12 0 0 1 1.22-.18 4.74 4.74 0 0 1 1.67.28 6.24 6.24 0 0 1 1.33.67zm8.27 3.47a2.86 2.86 0 0 1-.24 1.17 3 3 0 0 1-.67 1 3.08 3.08 0 0 1-1 .64 3.3 3.3 0 0 1-1.24.23 3.15 3.15 0 0 1-1.31-.27 2.71 2.71 0 0 1-1-.77 3.56 3.56 0 0 1-.63-1.24 5.84 5.84 0 0 1-.22-1.66 8.43 8.43 0 0 1 .23-2.08 4.51 4.51 0 0 1 .67-1.51 2.91 2.91 0 0 1 1.05-.93 3 3 0 0 1 1.38-.31 3.19 3.19 0 0 1 2.65 1.36l-.93 1a2.06 2.06 0 0 0-.75-.71 2 2 0 0 0-1-.25 1.54 1.54 0 0 0-1.3.64 3.07 3.07 0 0 0-.51 1.82 1.83 1.83 0 0 1 .72-.69 2.23 2.23 0 0 1 1.08-.25 3.18 3.18 0 0 1 1.18.22 2.93 2.93 0 0 1 1 .61 2.81 2.81 0 0 1 .87 2zm-3.14 1.62a1.5 1.5 0 0 0 .61-.13 1.59 1.59 0 0 0 .51-.35 1.68 1.68 0 0 0 .34-.52 1.56 1.56 0 0 0 .13-.62 1.47 1.47 0 0 0-.13-.61 1.65 1.65 0 0 0-.34-.5 1.59 1.59 0 0 0-.5-.34 1.55 1.55 0 0 0-.61-.12 1.6 1.6 0 0 0-.62.12 1.57 1.57 0 0 0-.85.84 1.54 1.54 0 0 0-.12.61 1.57 1.57 0 0 0 .13.62 1.63 1.63 0 0 0 .35.51 1.75 1.75 0 0 0 .5.35 1.42 1.42 0 0 0 .61.15z"/><path class="d" d="M483.96 482.19h57.93v24.21h-57.93z"/><path class="e" d="M488.29 485.65h50.15v17.29h-50.15z"/><path d="M494.17 500.42a2.7 2.7 0 0 1-.87-.14 2.13 2.13 0 0 1-.74-.43l.7-1.1a.85.85 0 0 0 .33.2 1.2 1.2 0 0 0 .39.07.76.76 0 0 0 .55-.22.77.77 0 0 0 .23-.58v-6.51h1.62v6.39a2.54 2.54 0 0 1-.17.94 2.25 2.25 0 0 1-.47.74 2.08 2.08 0 0 1-.7.48 2.22 2.22 0 0 1-.87.16zm.58-9.6v-1.61h1.62v1.61zm9.11 6.67a4.25 4.25 0 0 1-1 .45 4 4 0 0 1-1.16.16 3.86 3.86 0 0 1-1.71-.37 4.33 4.33 0 0 1-1.32-1 4.37 4.37 0 0 1-.85-1.39 4.45 4.45 0 0 1-.3-1.61 4.31 4.31 0 0 1 .32-1.65 4.54 4.54 0 0 1 .88-1.39 4.21 4.21 0 0 1 1.34-1 4 4 0 0 1 1.68-.36 3.78 3.78 0 0 1 1.7.38 4.24 4.24 0 0 1 1.31 1 4.6 4.6 0 0 1 .85 1.4 4.43 4.43 0 0 1 .3 1.6 4.43 4.43 0 0 1-1.13 3l1.17 1.32h-1.57zm-2.17-.86a2.26 2.26 0 0 0 .61-.08 2.39 2.39 0 0 0 .53-.21l-1.31-1.48h1.57l.59.67a3.38 3.38 0 0 0 .33-2.86 3 3 0 0 0-.5-.92 2.45 2.45 0 0 0-.79-.64 2.24 2.24 0 0 0-1-.24 2.29 2.29 0 0 0-1.08.25 2.36 2.36 0 0 0-.79.66 3 3 0 0 0-.48.93 3.48 3.48 0 0 0 0 2.12 2.87 2.87 0 0 0 .49.92 2.44 2.44 0 0 0 .79.64 2.27 2.27 0 0 0 1.04.24zm7.24 1.54a1.8 1.8 0 0 1-1.49-.63 2.92 2.92 0 0 1-.51-1.86v-4h1.62v3.62q0 1.47 1.05 1.47a1.66 1.66 0 0 0 .91-.28 2 2 0 0 0 .72-.87v-3.93h1.62v4.48a.57.57 0 0 0 .09.36.4.4 0 0 0 .3.12V498l-.41.06h-.3a1.17 1.17 0 0 1-.71-.2.79.79 0 0 1-.32-.55v-.51a2.7 2.7 0 0 1-1.09 1 3.28 3.28 0 0 1-1.48.37zm8.49 0a3.53 3.53 0 0 1-1.38-.26 3.17 3.17 0 0 1-1.05-.71 3.14 3.14 0 0 1-.67-1 3.34 3.34 0 0 1-.24-1.25 3.53 3.53 0 0 1 .23-1.28 3.1 3.1 0 0 1 .67-1.05 3.18 3.18 0 0 1 1.06-.72 3.53 3.53 0 0 1 1.4-.27 3.44 3.44 0 0 1 1.39.27 3.18 3.18 0 0 1 1 .71 3 3 0 0 1 .65 1 3.47 3.47 0 0 1 .22 1.23v.3a1.25 1.25 0 0 1 0 .24h-4.9a1.89 1.89 0 0 0 .18.67 1.65 1.65 0 0 0 .38.5 1.63 1.63 0 0 0 .52.31 1.71 1.71 0 0 0 .61.11 1.87 1.87 0 0 0 .91-.24 1.25 1.25 0 0 0 .59-.62l1.39.39a2.83 2.83 0 0 1-1.12 1.19 3.47 3.47 0 0 1-1.84.48zm1.65-3.83a1.69 1.69 0 0 0-.53-1.14 1.61 1.61 0 0 0-1.13-.43 1.63 1.63 0 0 0-.61.11 1.6 1.6 0 0 0-.5.32 1.67 1.67 0 0 0-.36.5 1.75 1.75 0 0 0-.16.64zm6.43-1.23a3.19 3.19 0 0 0-1.32.28 1.66 1.66 0 0 0-.84.82V498h-1.62v-6.34h1.49v1.36a2.88 2.88 0 0 1 .4-.59 3.11 3.11 0 0 1 .5-.45 2.36 2.36 0 0 1 .54-.3 1.49 1.49 0 0 1 .53-.1h.33zm1.04 6.17l.4.09h.33a.71.71 0 0 0 .29-.06.63.63 0 0 0 .24-.21 2.09 2.09 0 0 0 .22-.42q.11-.27.23-.67l-2.51-6.34h1.67l1.72 4.94 1.53-4.94h1.53l-2.66 7.6a2.28 2.28 0 0 1-.79 1.09 2.22 2.22 0 0 1-1.38.42h-.39a2.55 2.55 0 0 1-.42-.1z"/><path class="d" d="M583.93 325.84h49.31v19.89h-49.31z"/><path class="e" d="M587.39 329.55h42.39v12.47h-42.39z"/><path d="M599.46 333.93a2 2 0 0 0-.31-.23 3.75 3.75 0 0 0-.54-.28 4.73 4.73 0 0 0-.7-.24 3.06 3.06 0 0 0-.76-.1 1.71 1.71 0 0 0-1 .25.84.84 0 0 0-.34.71.74.74 0 0 0 .13.44 1.1 1.1 0 0 0 .37.31 3.07 3.07 0 0 0 .61.24l.85.23q.63.17 1.14.36a3.11 3.11 0 0 1 .87.48 2 2 0 0 1 .55.7 2.31 2.31 0 0 1 .19 1 2.48 2.48 0 0 1-.26 1.18 2.18 2.18 0 0 1-.7.79 3.05 3.05 0 0 1-1 .44 5.1 5.1 0 0 1-1.21.14 6.48 6.48 0 0 1-1.91-.29 5.92 5.92 0 0 1-1.69-.82l.74-1.44a2.29 2.29 0 0 0 .39.28 5.94 5.94 0 0 0 .67.35 5.31 5.31 0 0 0 .86.3 3.87 3.87 0 0 0 1 .12q1.38 0 1.38-.88a.73.73 0 0 0-.16-.47 1.33 1.33 0 0 0-.45-.34 4.28 4.28 0 0 0-.7-.27l-.92-.27a7.69 7.69 0 0 1-1.07-.37 2.78 2.78 0 0 1-.76-.47 1.76 1.76 0 0 1-.45-.63 2.17 2.17 0 0 1-.15-.85 2.66 2.66 0 0 1 .24-1.16 2.35 2.35 0 0 1 .67-.85 3.06 3.06 0 0 1 1-.51 4.12 4.12 0 0 1 1.22-.18 4.73 4.73 0 0 1 1.67.28 6.23 6.23 0 0 1 1.33.67zm4.6-2.25h1.48l3.27 8.59h-1.72l-.8-2.14h-3l-.79 2.14h-1.72zM606 337l-1.19-3.38-1.25 3.38zm8.73-3.07a2.05 2.05 0 0 0-.31-.23 3.75 3.75 0 0 0-.54-.28 4.78 4.78 0 0 0-.7-.24 3.05 3.05 0 0 0-.76-.1 1.71 1.71 0 0 0-1 .25.84.84 0 0 0-.34.71.73.73 0 0 0 .13.44 1.1 1.1 0 0 0 .37.31 3 3 0 0 0 .61.24l.85.23q.63.17 1.14.36a3.11 3.11 0 0 1 .87.48 2 2 0 0 1 .55.7 2.31 2.31 0 0 1 .19 1 2.49 2.49 0 0 1-.26 1.18 2.19 2.19 0 0 1-.7.79 3.05 3.05 0 0 1-1 .44 5.1 5.1 0 0 1-1.2.14 6.48 6.48 0 0 1-1.91-.29 5.9 5.9 0 0 1-1.69-.82l.74-1.44a2.29 2.29 0 0 0 .39.28 6 6 0 0 0 .67.35 5.28 5.28 0 0 0 .86.3 3.86 3.86 0 0 0 1 .12q1.38 0 1.38-.88a.73.73 0 0 0-.16-.47 1.34 1.34 0 0 0-.45-.34 4.29 4.29 0 0 0-.7-.27l-.92-.27a7.7 7.7 0 0 1-1.07-.37 2.81 2.81 0 0 1-.76-.47 1.76 1.76 0 0 1-.45-.63 2.17 2.17 0 0 1-.15-.85 2.67 2.67 0 0 1 .24-1.16 2.34 2.34 0 0 1 .67-.85 3.06 3.06 0 0 1 1-.51 4.12 4.12 0 0 1 1.22-.18 4.74 4.74 0 0 1 1.67.28 6.25 6.25 0 0 1 1.33.67zm7.42 0a2.05 2.05 0 0 0-.31-.23 3.75 3.75 0 0 0-.54-.28 4.78 4.78 0 0 0-.7-.24 3.05 3.05 0 0 0-.76-.1 1.71 1.71 0 0 0-1 .25.84.84 0 0 0-.34.71.73.73 0 0 0 .13.44 1.1 1.1 0 0 0 .37.31 3 3 0 0 0 .61.24l.85.23q.63.17 1.14.36a3.11 3.11 0 0 1 .87.48 2 2 0 0 1 .55.7 2.31 2.31 0 0 1 .19 1 2.49 2.49 0 0 1-.26 1.18 2.19 2.19 0 0 1-.7.79 3.05 3.05 0 0 1-1 .44 5.1 5.1 0 0 1-1.2.14 6.48 6.48 0 0 1-1.91-.29 5.9 5.9 0 0 1-1.69-.82l.74-1.44a2.29 2.29 0 0 0 .39.28 6 6 0 0 0 .67.35 5.28 5.28 0 0 0 .86.3 3.86 3.86 0 0 0 1 .12q1.38 0 1.38-.88a.73.73 0 0 0-.16-.47 1.34 1.34 0 0 0-.45-.34 4.29 4.29 0 0 0-.7-.27l-.92-.27a7.7 7.7 0 0 1-1.07-.37 2.81 2.81 0 0 1-.76-.47 1.76 1.76 0 0 1-.45-.63 2.17 2.17 0 0 1-.15-.85 2.67 2.67 0 0 1 .24-1.16 2.34 2.34 0 0 1 .67-.85 3.06 3.06 0 0 1 1-.51 4.12 4.12 0 0 1 1.22-.18 4.74 4.74 0 0 1 1.67.28 6.25 6.25 0 0 1 1.33.67z"/><path class="d" d="M523.74 564.33h68.31v19.02h-68.31z"/><path class="e" d="M528.06 567.79h59.66v12.11h-59.66z"/><path d="M534.46 569.42H536l1 2.84 1-2.84h1.55l-1.55 3.91 1.09 2.75 2.43-6.68h1.82l-3.5 8.59h-1.4l-1.44-3.6-1.52 3.61h-1.4l-3.47-8.59h1.79l2.45 6.68 1.07-2.75zm11.8 8.7a3.51 3.51 0 0 1-1.38-.26 3.11 3.11 0 0 1-1.73-1.75 3.34 3.34 0 0 1-.24-1.25 3.52 3.52 0 0 1 .23-1.28 3.1 3.1 0 0 1 .67-1.05 3.17 3.17 0 0 1 1.06-.72 3.52 3.52 0 0 1 1.4-.27 3.43 3.43 0 0 1 1.39.27 3.19 3.19 0 0 1 1 .71 3 3 0 0 1 .65 1 3.48 3.48 0 0 1 .22 1.24v.3a1.26 1.26 0 0 1 0 .24h-4.9a1.89 1.89 0 0 0 .18.67 1.63 1.63 0 0 0 .9.81 1.71 1.71 0 0 0 .61.11 1.87 1.87 0 0 0 .91-.24 1.25 1.25 0 0 0 .59-.62l1.39.39a2.83 2.83 0 0 1-1.12 1.19 3.47 3.47 0 0 1-1.83.51zm1.65-3.83a1.69 1.69 0 0 0-.53-1.14 1.7 1.7 0 0 0-1.74-.31 1.59 1.59 0 0 0-.5.32 1.65 1.65 0 0 0-.36.5 1.74 1.74 0 0 0-.16.64zm6.26 3.83a2.55 2.55 0 0 1-1.3-.33 2.39 2.39 0 0 1-.9-.9V578h-1.42v-8.84h1.62v3.61a2.44 2.44 0 0 1 .89-.9 2.52 2.52 0 0 1 1.29-.32 2.38 2.38 0 0 1 1.13.27 2.83 2.83 0 0 1 .88.71 3.24 3.24 0 0 1 .57 1.05 4 4 0 0 1 .2 1.27 3.6 3.6 0 0 1-.22 1.28 3.23 3.23 0 0 1-.62 1 2.93 2.93 0 0 1-.94.7 2.75 2.75 0 0 1-1.18.29zm-.45-1.38a1.67 1.67 0 0 0 .71-.15 1.71 1.71 0 0 0 .56-.41 1.85 1.85 0 0 0 .36-.59 2.05 2.05 0 0 0 .13-.73 2.26 2.26 0 0 0-.12-.74 1.93 1.93 0 0 0-.35-.62 1.72 1.72 0 0 0-.53-.42 1.43 1.43 0 0 0-.67-.16 1.49 1.49 0 0 0-1 .36 2.37 2.37 0 0 0-.66.88v1.51a1.38 1.38 0 0 0 .25.44 1.79 1.79 0 0 0 .37.33 1.76 1.76 0 0 0 .45.22 1.53 1.53 0 0 0 .5.08zm9.65-7.34h1.48l3.27 8.59h-1.72l-.8-2.14h-3l-.79 2.14h-1.72zm1.93 5.28l-1.19-3.38-1.23 3.38zm3.76 3.32v-8.6h3.64a2.44 2.44 0 0 1 1.1.25 2.85 2.85 0 0 1 .87.65 3.08 3.08 0 0 1 .57.92 2.76 2.76 0 0 1 .21 1 3 3 0 0 1-.19 1.06 3 3 0 0 1-.54.91 2.7 2.7 0 0 1-.85.64 2.45 2.45 0 0 1-1.09.24h-2V578zm1.67-4.35h1.94a1 1 0 0 0 .77-.38 1.55 1.55 0 0 0 .31-1 1.66 1.66 0 0 0-.1-.59 1.43 1.43 0 0 0-.25-.44 1 1 0 0 0-.4-.24 1.08 1.08 0 0 0-.43-.09h-1.86zm5.87 4.35v-8.6h1.67v8.6zm5.65.12a4.93 4.93 0 0 1-1.56-.25 3.81 3.81 0 0 1-1.31-.73l.61-1a5.2 5.2 0 0 0 1.13.62 3 3 0 0 0 1.1.21 1.38 1.38 0 0 0 .76-.18.58.58 0 0 0 .28-.52.52.52 0 0 0-.33-.5 7.14 7.14 0 0 0-1.07-.36q-.62-.17-1.05-.33a2.69 2.69 0 0 1-.7-.36 1.22 1.22 0 0 1-.39-.46 1.46 1.46 0 0 1-.12-.62 2 2 0 0 1 .19-.87 1.9 1.9 0 0 1 .53-.66 2.44 2.44 0 0 1 .79-.42 3.21 3.21 0 0 1 1-.15 4.24 4.24 0 0 1 1.34.21 3.25 3.25 0 0 1 1.14.67l-.65 1a3.81 3.81 0 0 0-.94-.53 2.58 2.58 0 0 0-.9-.17 1.31 1.31 0 0 0-.69.17.59.59 0 0 0-.28.55.52.52 0 0 0 .07.28.58.58 0 0 0 .21.19 2.05 2.05 0 0 0 .38.16l.59.16q.65.17 1.12.34a3.05 3.05 0 0 1 .76.39 1.38 1.38 0 0 1 .44.5 1.54 1.54 0 0 1 .14.68 1.76 1.76 0 0 1-.69 1.47 3 3 0 0 1-1.9.51z"/><path class="d" d="M476.06 620.34h71.22v19.02h-71.22z"/><path class="e" d="M480.39 623.8h62.58v12.11h-62.58z"/><path d="M486.79 625.43h1.54l1 2.84 1-2.84h1.55l-1.46 3.91 1.09 2.75 2.43-6.68h1.82l-3.5 8.59h-1.4l-1.49-3.61-1.56 3.61h-1.4l-3.47-8.59h1.79l2.45 6.68 1.07-2.75zm11.79 8.69a3.51 3.51 0 0 1-1.38-.26 3.11 3.11 0 0 1-1.73-1.75 3.34 3.34 0 0 1-.24-1.25 3.52 3.52 0 0 1 .23-1.28 3.1 3.1 0 0 1 .67-1.05 3.17 3.17 0 0 1 1.06-.72 3.52 3.52 0 0 1 1.4-.27 3.43 3.43 0 0 1 1.39.27 3.19 3.19 0 0 1 1 .71 3 3 0 0 1 .65 1 3.48 3.48 0 0 1 .22 1.24v.3a1.26 1.26 0 0 1 0 .24H497a1.89 1.89 0 0 0 .18.67 1.63 1.63 0 0 0 .9.81 1.71 1.71 0 0 0 .61.11 1.87 1.87 0 0 0 .91-.24 1.25 1.25 0 0 0 .59-.62l1.39.39a2.83 2.83 0 0 1-1.12 1.19 3.47 3.47 0 0 1-1.88.51zm1.65-3.83a1.69 1.69 0 0 0-.53-1.14 1.7 1.7 0 0 0-1.74-.31 1.59 1.59 0 0 0-.5.32 1.65 1.65 0 0 0-.36.5 1.74 1.74 0 0 0-.16.64zm6.27 3.83a2.55 2.55 0 0 1-1.3-.33 2.39 2.39 0 0 1-.9-.9V634h-1.42v-8.84h1.62v3.61a2.44 2.44 0 0 1 .89-.9 2.52 2.52 0 0 1 1.29-.32 2.38 2.38 0 0 1 1.13.27 2.83 2.83 0 0 1 .88.71 3.24 3.24 0 0 1 .57 1.05 4 4 0 0 1 .2 1.27 3.6 3.6 0 0 1-.22 1.28 3.22 3.22 0 0 1-.62 1 2.93 2.93 0 0 1-.94.7 2.75 2.75 0 0 1-1.18.29zm-.45-1.38a1.67 1.67 0 0 0 .71-.15 1.7 1.7 0 0 0 .56-.41 1.84 1.84 0 0 0 .36-.59 2.06 2.06 0 0 0 .13-.73 2.25 2.25 0 0 0-.12-.74 1.92 1.92 0 0 0-.34-.62 1.71 1.71 0 0 0-.53-.42 1.42 1.42 0 0 0-.67-.16 1.49 1.49 0 0 0-1 .36 2.37 2.37 0 0 0-.66.88v1.51a1.38 1.38 0 0 0 .25.44 1.8 1.8 0 0 0 .37.33 1.77 1.77 0 0 0 .45.22 1.53 1.53 0 0 0 .44.08zm8.32 1.38a2.5 2.5 0 0 1-1.31-.33 2.36 2.36 0 0 1-.87-.9v3.69h-1.62v-8.92H512v1.09a2.59 2.59 0 0 1 .91-.88 2.53 2.53 0 0 1 1.28-.32 2.72 2.72 0 0 1 1.19.26 2.94 2.94 0 0 1 .94.7 3.27 3.27 0 0 1 .62 1 3.58 3.58 0 0 1 .22 1.26 4 4 0 0 1-.21 1.3 3.31 3.31 0 0 1-.57 1.05 2.69 2.69 0 0 1-.88.7 2.46 2.46 0 0 1-1.13.3zm-.54-1.38a1.46 1.46 0 0 0 .67-.16 1.62 1.62 0 0 0 .53-.42 2 2 0 0 0 .34-.62 2.21 2.21 0 0 0 .12-.73 2 2 0 0 0-.13-.74 1.84 1.84 0 0 0-.37-.6 1.73 1.73 0 0 0-.56-.4 1.68 1.68 0 0 0-.7-.15 1.53 1.53 0 0 0-.47.08 1.66 1.66 0 0 0-.45.22 2 2 0 0 0-.37.34 1.42 1.42 0 0 0-.25.42v1.49a2.15 2.15 0 0 0 .67.9 1.52 1.52 0 0 0 .96.37zm6.17 1.38a2.4 2.4 0 0 1-.86-.15 2.06 2.06 0 0 1-.69-.42 2 2 0 0 1-.45-.64 1.93 1.93 0 0 1-.16-.8 1.76 1.76 0 0 1 .2-.83 1.9 1.9 0 0 1 .56-.65 2.77 2.77 0 0 1 .85-.42 3.74 3.74 0 0 1 1.09-.15 4.72 4.72 0 0 1 .83.07 3.38 3.38 0 0 1 .72.21V630a1.27 1.27 0 0 0-.36-1 1.48 1.48 0 0 0-1.06-.34 2.81 2.81 0 0 0-1 .18 4.64 4.64 0 0 0-1 .53l-.5-1a4.68 4.68 0 0 1 2.64-.81 3.09 3.09 0 0 1 2.12.67 2.46 2.46 0 0 1 .76 1.94v2a.57.57 0 0 0 .09.36.4.4 0 0 0 .3.12V634a3.61 3.61 0 0 1-.71.09 1.08 1.08 0 0 1-.71-.21.89.89 0 0 1-.31-.54v-.35a2.81 2.81 0 0 1-1 .85 3 3 0 0 1-1.35.28zm.46-1.19a2.13 2.13 0 0 0 .78-.15 1.42 1.42 0 0 0 .58-.39.58.58 0 0 0 .27-.46v-.73a4 4 0 0 0-.63-.18 3.43 3.43 0 0 0-.65-.07 1.74 1.74 0 0 0-1 .28.86.86 0 0 0-.4.72.87.87 0 0 0 .31.68 1.14 1.14 0 0 0 .71.31zm4.33-2.1a3.45 3.45 0 0 1 .23-1.26 3.06 3.06 0 0 1 .67-1 3.24 3.24 0 0 1 1.05-.71 3.47 3.47 0 0 1 1.39-.27 3.33 3.33 0 0 1 1.77.45 2.86 2.86 0 0 1 1.1 1.17l-1.59.48a1.43 1.43 0 0 0-.55-.54 1.53 1.53 0 0 0-.75-.19 1.56 1.56 0 0 0-.65.14 1.61 1.61 0 0 0-.53.39 1.79 1.79 0 0 0-.35.6 2.26 2.26 0 0 0-.13.77 2.16 2.16 0 0 0 .13.78 2 2 0 0 0 .36.61 1.56 1.56 0 0 0 .53.39 1.52 1.52 0 0 0 .64.14 1.55 1.55 0 0 0 .8-.22 1.23 1.23 0 0 0 .51-.53l1.59.48a2.67 2.67 0 0 1-1.08 1.19 3.39 3.39 0 0 1-1.8.46 3.48 3.48 0 0 1-1.39-.27 3.15 3.15 0 0 1-1.73-1.77 3.39 3.39 0 0 1-.22-1.29zm11.56 3.17l-1.84-2.75-.87.86V634H532v-8.84h1.62v5.36l2.54-2.86h1.73l-2.36 2.69 2.53 3.64z"/><path class="d" d="M603.76 604.91h61.71v19.02h-61.71z"/><path class="e" d="M608.09 608.36h53.06v12.11h-53.06z"/><path d="M614.83 610h1.48l3.27 8.6h-1.72l-.8-2.14h-3l-.79 2.14h-1.72zm1.93 5.28l-1.19-3.38-1.23 3.38zm9.5 3.29h-1.62V615a1.85 1.85 0 0 0-.27-1.11.87.87 0 0 0-.74-.35 1.39 1.39 0 0 0-.5.1 1.86 1.86 0 0 0-.48.27 2.21 2.21 0 0 0-.41.42 1.67 1.67 0 0 0-.27.53v3.71h-1.62v-6.34h1.46v1.17a2.4 2.4 0 0 1 1-.94 3.25 3.25 0 0 1 1.5-.34 1.91 1.91 0 0 1 1 .22 1.57 1.57 0 0 1 .58.57 2.38 2.38 0 0 1 .28.8 5.25 5.25 0 0 1 .08.91zm3.9.03a2.62 2.62 0 0 1-1.16-.25 2.82 2.82 0 0 1-.9-.7 3.17 3.17 0 0 1-.59-1 3.85 3.85 0 0 1 0-2.52 3.32 3.32 0 0 1 .61-1 2.76 2.76 0 0 1 .93-.7 2.79 2.79 0 0 1 1.2-.26 2.48 2.48 0 0 1 1.3.33 2.82 2.82 0 0 1 .92.89v-1.11h1.42v6a2.88 2.88 0 0 1-.27 1.26 2.77 2.77 0 0 1-.73.94 3.25 3.25 0 0 1-1.11.59 4.62 4.62 0 0 1-1.41.21 4 4 0 0 1-1.75-.34 3.55 3.55 0 0 1-1.22-1l.88-.86a2.51 2.51 0 0 0 .91.7 2.76 2.76 0 0 0 1.17.25 2.48 2.48 0 0 0 .72-.1 1.7 1.7 0 0 0 .61-.32 1.51 1.51 0 0 0 .42-.56 2 2 0 0 0 .15-.8v-.8a2.15 2.15 0 0 1-.88.84 2.61 2.61 0 0 1-1.22.31zm.54-1.3a1.53 1.53 0 0 0 .51-.08 1.81 1.81 0 0 0 .81-.57 1.53 1.53 0 0 0 .24-.41v-1.51a2 2 0 0 0-.68-.9 1.63 1.63 0 0 0-1-.34 1.41 1.41 0 0 0-.68.16 1.71 1.71 0 0 0-.52.44 2 2 0 0 0-.33.62 2.32 2.32 0 0 0-.12.73 2 2 0 0 0 .13.73 1.89 1.89 0 0 0 .37.59 1.74 1.74 0 0 0 .55.4 1.62 1.62 0 0 0 .72.15zm6.59 1.39a1.8 1.8 0 0 1-1.49-.63 2.92 2.92 0 0 1-.51-1.86v-4h1.62v3.62q0 1.46 1.05 1.46a1.67 1.67 0 0 0 .91-.28 2 2 0 0 0 .72-.87v-3.93h1.62v4.48a.57.57 0 0 0 .09.36.4.4 0 0 0 .3.12v1.38l-.41.06h-.3a1.17 1.17 0 0 1-.71-.2.79.79 0 0 1-.32-.55v-.51a2.7 2.7 0 0 1-1.09 1 3.28 3.28 0 0 1-1.48.35zm5.53-8.96h1.62v6.8a.8.8 0 0 0 .17.54.61.61 0 0 0 .48.19 1.23 1.23 0 0 0 .32 0 2.19 2.19 0 0 0 .33-.12l.22 1.23a3.11 3.11 0 0 1-.76.24 4.22 4.22 0 0 1-.79.08 1.62 1.62 0 0 1-1.18-.41 1.54 1.54 0 0 1-.42-1.16zm5.58 8.96a2.41 2.41 0 0 1-.86-.15 2.07 2.07 0 0 1-.69-.42 2 2 0 0 1-.45-.64 1.93 1.93 0 0 1-.16-.8 1.76 1.76 0 0 1 .2-.83 1.9 1.9 0 0 1 .56-.65 2.74 2.74 0 0 1 .85-.42 3.71 3.71 0 0 1 1.09-.15 4.73 4.73 0 0 1 .83.07 3.43 3.43 0 0 1 .72.21v-.36a1.27 1.27 0 0 0-.36-1 1.49 1.49 0 0 0-1.06-.34 2.83 2.83 0 0 0-1 .18 4.61 4.61 0 0 0-1 .53l-.5-1a4.68 4.68 0 0 1 2.64-.81 3.1 3.1 0 0 1 2.12.67 2.46 2.46 0 0 1 .76 1.94v2a.57.57 0 0 0 .09.36.4.4 0 0 0 .3.12v1.38a3.67 3.67 0 0 1-.71.08 1.08 1.08 0 0 1-.71-.21.89.89 0 0 1-.31-.54v-.35a2.8 2.8 0 0 1-1 .85 3 3 0 0 1-1.35.28zm.46-1.19a2.12 2.12 0 0 0 .78-.15 1.42 1.42 0 0 0 .58-.39.58.58 0 0 0 .27-.46v-.73a4 4 0 0 0-.63-.18 3.43 3.43 0 0 0-.65-.07 1.74 1.74 0 0 0-1 .28.86.86 0 0 0-.4.72.87.87 0 0 0 .31.68 1.15 1.15 0 0 0 .74.3zm8.54-3.87a3.2 3.2 0 0 0-1.32.29 1.66 1.66 0 0 0-.84.82v3.84h-1.62v-6.34h1.49v1.36a2.86 2.86 0 0 1 .4-.59 3.05 3.05 0 0 1 .5-.45 2.33 2.33 0 0 1 .54-.3 1.49 1.49 0 0 1 .53-.1h.33z"/><path class="d" d="M566.73 629.85h47.88v19.02h-47.88z"/><path class="e" d="M571.05 633.31h39.23v12.11h-39.23z"/><path d="M574.49 643.51v-8.59h3.8a2.44 2.44 0 0 1 1.1.25 2.85 2.85 0 0 1 .87.65 3.1 3.1 0 0 1 .57.92 2.76 2.76 0 0 1 .21 1 2.86 2.86 0 0 1-.42 1.52 2.4 2.4 0 0 1-1.13 1l2 3.23h-1.88l-1.75-2.88h-1.65v2.88zm1.67-4.35h2.09a.88.88 0 0 0 .43-.11 1.11 1.11 0 0 0 .35-.3 1.49 1.49 0 0 0 .23-.44 1.74 1.74 0 0 0 .08-.54 1.56 1.56 0 0 0-.1-.56 1.47 1.47 0 0 0-.26-.44 1.19 1.19 0 0 0-.37-.29 1 1 0 0 0-.43-.1h-2zm8.98 4.47a3.51 3.51 0 0 1-1.38-.26 3.11 3.11 0 0 1-1.73-1.75 3.35 3.35 0 0 1-.24-1.25 3.52 3.52 0 0 1 .23-1.28 3.1 3.1 0 0 1 .67-1.05 3.17 3.17 0 0 1 1.06-.72 3.51 3.51 0 0 1 1.4-.27 3.43 3.43 0 0 1 1.39.27 3.19 3.19 0 0 1 1 .71 3 3 0 0 1 .65 1 3.49 3.49 0 0 1 .22 1.24v.3a1.26 1.26 0 0 1 0 .24h-4.9a1.88 1.88 0 0 0 .18.67 1.63 1.63 0 0 0 .38.5 1.61 1.61 0 0 0 .52.31 1.71 1.71 0 0 0 .61.11 1.87 1.87 0 0 0 .91-.24 1.25 1.25 0 0 0 .59-.62l1.39.39a2.83 2.83 0 0 1-1.12 1.19 3.47 3.47 0 0 1-1.83.51zm1.65-3.83a1.69 1.69 0 0 0-.53-1.14 1.7 1.7 0 0 0-1.74-.31 1.59 1.59 0 0 0-.5.32 1.64 1.64 0 0 0-.36.5 1.72 1.72 0 0 0-.16.64zm4.39 3.83a2.4 2.4 0 0 1-.86-.15 2.06 2.06 0 0 1-.69-.42 2 2 0 0 1-.45-.64 1.93 1.93 0 0 1-.16-.8 1.76 1.76 0 0 1 .2-.83 1.89 1.89 0 0 1 .56-.65 2.78 2.78 0 0 1 .85-.42 3.74 3.74 0 0 1 1.09-.15 4.73 4.73 0 0 1 .83.07 3.35 3.35 0 0 1 .72.21v-.36a1.27 1.27 0 0 0-.36-1 1.49 1.49 0 0 0-1.06-.34 2.81 2.81 0 0 0-1 .18 4.64 4.64 0 0 0-1 .53l-.5-1a4.68 4.68 0 0 1 2.64-.81 3.09 3.09 0 0 1 2.12.67 2.46 2.46 0 0 1 .76 1.94v2a.57.57 0 0 0 .09.36.4.4 0 0 0 .3.12v1.38a3.61 3.61 0 0 1-.71.09 1.08 1.08 0 0 1-.71-.21.89.89 0 0 1-.31-.54v-.35a2.81 2.81 0 0 1-1 .85 3 3 0 0 1-1.35.27zm.46-1.19a2.13 2.13 0 0 0 .78-.15 1.42 1.42 0 0 0 .58-.39.58.58 0 0 0 .27-.46v-.73a4 4 0 0 0-.63-.18 3.44 3.44 0 0 0-.65-.07 1.74 1.74 0 0 0-1 .28.86.86 0 0 0-.4.72.87.87 0 0 0 .31.68 1.14 1.14 0 0 0 .74.31zm4.36-2.1a3.45 3.45 0 0 1 .23-1.26 3.07 3.07 0 0 1 .67-1 3.24 3.24 0 0 1 1.05-.71 3.47 3.47 0 0 1 1.39-.27 3.34 3.34 0 0 1 1.77.45 2.86 2.86 0 0 1 1.1 1.17l-1.59.48a1.43 1.43 0 0 0-.54-.54 1.52 1.52 0 0 0-.75-.19 1.56 1.56 0 0 0-.65.14 1.62 1.62 0 0 0-.53.39 1.8 1.8 0 0 0-.35.6 2.25 2.25 0 0 0-.13.77 2.15 2.15 0 0 0 .13.78 2 2 0 0 0 .36.61 1.57 1.57 0 0 0 .53.39 1.52 1.52 0 0 0 .64.14 1.56 1.56 0 0 0 .81-.22 1.23 1.23 0 0 0 .51-.53l1.59.48a2.67 2.67 0 0 1-1.08 1.19 3.39 3.39 0 0 1-1.8.46 3.49 3.49 0 0 1-1.39-.27 3.15 3.15 0 0 1-1.72-1.77 3.38 3.38 0 0 1-.25-1.29zm11 2.85a7.11 7.11 0 0 1-.8.29 3.35 3.35 0 0 1-1 .15 2.29 2.29 0 0 1-.64-.08 1.39 1.39 0 0 1-.52-.27 1.34 1.34 0 0 1-.36-.48 1.75 1.75 0 0 1-.13-.72v-3.64h-.83v-1.25h.83v-2.06h1.62v2.06h1.33v1.25h-1.33v3.1a.58.58 0 0 0 .18.48.67.67 0 0 0 .43.14 1.49 1.49 0 0 0 .5-.08l.39-.15z"/><path class="d" d="M587.39 379.28h76.96v20.75h-76.96z"/><path class="e" d="M591.71 382.74h68.31v13.84h-68.31z"/><path d="M604.56 391.66a1.95 1.95 0 0 1-.82 1.65 2.81 2.81 0 0 1-.88.42 3.87 3.87 0 0 1-1.07.15h-4.15v-8.6h4.6a1.69 1.69 0 0 1 .81.19 2 2 0 0 1 .62.5 2.3 2.3 0 0 1 .39.7 2.36 2.36 0 0 1 .14.79 2.34 2.34 0 0 1-.31 1.18 1.91 1.91 0 0 1-.92.82 2.21 2.21 0 0 1 1.17.78 2.25 2.25 0 0 1 .42 1.42zm-5.25-5v2.17h2.23a1 1 0 0 0 .72-.29 1.07 1.07 0 0 0 .3-.8 1.1 1.1 0 0 0-.27-.79.89.89 0 0 0-.67-.29zm3.57 4.64a1.27 1.27 0 0 0-.08-.44 1.22 1.22 0 0 0-.21-.37 1 1 0 0 0-.31-.25.88.88 0 0 0-.4-.09h-2.58v2.26h2.48a1.08 1.08 0 0 0 .43-.08 1 1 0 0 0 .35-.24 1.16 1.16 0 0 0 .31-.79zm5.76 2.7a3.49 3.49 0 0 1-1.39-.27 3.12 3.12 0 0 1-1-.72 3.17 3.17 0 0 1-.66-1 3.52 3.52 0 0 1 0-2.51 3.16 3.16 0 0 1 .66-1 3.12 3.12 0 0 1 1-.72 3.49 3.49 0 0 1 1.39-.27 3.44 3.44 0 0 1 1.39.27 3.14 3.14 0 0 1 1 .72 3.17 3.17 0 0 1 .66 1 3.52 3.52 0 0 1 0 2.51 3.22 3.22 0 0 1-.65 1 3.06 3.06 0 0 1-1 .72 3.48 3.48 0 0 1-1.4.27zm-1.64-3.28a2.21 2.21 0 0 0 .13.77 1.87 1.87 0 0 0 .35.6 1.57 1.57 0 0 0 .53.39 1.6 1.6 0 0 0 1.31 0 1.57 1.57 0 0 0 .53-.39 1.85 1.85 0 0 0 .35-.61 2.27 2.27 0 0 0 .13-.77 2.23 2.23 0 0 0-.13-.76 1.84 1.84 0 0 0-.35-.61 1.57 1.57 0 0 0-.53-.39 1.54 1.54 0 0 0-.65-.14 1.49 1.49 0 0 0-.65.15 1.64 1.64 0 0 0-.53.4 1.86 1.86 0 0 0-.35.61 2.23 2.23 0 0 0-.14.75zm9 3.28a3.49 3.49 0 0 1-1.39-.27 3.13 3.13 0 0 1-1-.72 3.18 3.18 0 0 1-.66-1 3.53 3.53 0 0 1 0-2.51 3.17 3.17 0 0 1 .66-1 3.13 3.13 0 0 1 1-.72 3.49 3.49 0 0 1 1.39-.27 3.44 3.44 0 0 1 1.39.27 3.14 3.14 0 0 1 1 .72 3.18 3.18 0 0 1 .66 1 3.53 3.53 0 0 1 0 2.51 3.25 3.25 0 0 1-.65 1 3.07 3.07 0 0 1-1 .72 3.49 3.49 0 0 1-1.4.27zm-1.66-3.28a2.19 2.19 0 0 0 .13.77 1.87 1.87 0 0 0 .35.6 1.57 1.57 0 0 0 .53.39 1.6 1.6 0 0 0 1.31 0 1.57 1.57 0 0 0 .53-.39 1.87 1.87 0 0 0 .35-.61 2.27 2.27 0 0 0 .13-.77 2.23 2.23 0 0 0-.13-.76 1.86 1.86 0 0 0-.35-.61 1.57 1.57 0 0 0-.53-.39 1.54 1.54 0 0 0-.65-.14 1.49 1.49 0 0 0-.65.15 1.65 1.65 0 0 0-.53.4 1.86 1.86 0 0 0-.35.61 2.21 2.21 0 0 0-.17.75zm9.76 2.83a7.46 7.46 0 0 1-.8.29 3.38 3.38 0 0 1-1 .15 2.3 2.3 0 0 1-.64-.09 1.39 1.39 0 0 1-.52-.27 1.32 1.32 0 0 1-.36-.48 1.75 1.75 0 0 1-.13-.72v-3.64h-.84v-1.25h.84v-2.06h1.62v2.06h1.33v1.25h-1.33v3.1a.58.58 0 0 0 .18.48.67.67 0 0 0 .43.14 1.49 1.49 0 0 0 .5-.08l.39-.15zm3.24.45a4.91 4.91 0 0 1-1.56-.25 3.81 3.81 0 0 1-1.31-.73l.61-1a5.2 5.2 0 0 0 1.13.62 3 3 0 0 0 1.1.21 1.39 1.39 0 0 0 .76-.18.59.59 0 0 0 .28-.52.52.52 0 0 0-.33-.5 7 7 0 0 0-1.07-.36q-.62-.17-1.05-.33a2.72 2.72 0 0 1-.7-.36 1.22 1.22 0 0 1-.39-.46 1.47 1.47 0 0 1-.12-.62 2 2 0 0 1 .19-.87 1.9 1.9 0 0 1 .53-.66 2.44 2.44 0 0 1 .79-.42 3.24 3.24 0 0 1 1-.15 4.26 4.26 0 0 1 1.34.21 3.26 3.26 0 0 1 1.14.67l-.65 1a3.78 3.78 0 0 0-.94-.53 2.56 2.56 0 0 0-.9-.17 1.3 1.3 0 0 0-.69.17.59.59 0 0 0-.28.54.52.52 0 0 0 .07.28.58.58 0 0 0 .21.19 2 2 0 0 0 .38.16l.59.16q.65.17 1.12.34a3.05 3.05 0 0 1 .76.39 1.38 1.38 0 0 1 .44.5 1.54 1.54 0 0 1 .14.68 1.76 1.76 0 0 1-.69 1.47 3 3 0 0 1-1.9.52zm7.42-.45a7.46 7.46 0 0 1-.8.29 3.38 3.38 0 0 1-1 .15 2.3 2.3 0 0 1-.64-.09 1.39 1.39 0 0 1-.52-.27 1.32 1.32 0 0 1-.36-.48 1.75 1.75 0 0 1-.13-.72v-3.64h-.84v-1.25h.84v-2.06h1.62v2.06h1.33v1.25h-1.33v3.1a.58.58 0 0 0 .18.48.67.67 0 0 0 .43.14 1.49 1.49 0 0 0 .5-.08l.39-.15zm4.63-4.61a3.19 3.19 0 0 0-1.32.28 1.67 1.67 0 0 0-.84.82v3.84h-1.62v-6.34h1.49v1.36a2.86 2.86 0 0 1 .4-.59 3.09 3.09 0 0 1 .5-.45 2.37 2.37 0 0 1 .54-.3 1.49 1.49 0 0 1 .53-.1h.33zm2.55 5.06a2.41 2.41 0 0 1-.86-.15 2.06 2.06 0 0 1-.69-.42 2 2 0 0 1-.45-.64 1.93 1.93 0 0 1-.16-.8 1.76 1.76 0 0 1 .2-.83 1.91 1.91 0 0 1 .56-.65 2.74 2.74 0 0 1 .85-.42 3.71 3.71 0 0 1 1.09-.15 4.65 4.65 0 0 1 .83.07 3.38 3.38 0 0 1 .72.21v-.36a1.28 1.28 0 0 0-.36-1 1.49 1.49 0 0 0-1.06-.34 2.81 2.81 0 0 0-1 .18 4.6 4.6 0 0 0-1 .53l-.5-1a4.69 4.69 0 0 1 2.64-.81 3.09 3.09 0 0 1 2.12.67 2.46 2.46 0 0 1 .76 1.94v2a.57.57 0 0 0 .09.36.4.4 0 0 0 .3.12v1.38a3.6 3.6 0 0 1-.71.08 1.08 1.08 0 0 1-.71-.21.88.88 0 0 1-.31-.54v-.35a2.8 2.8 0 0 1-1 .85 3 3 0 0 1-1.35.28zm.46-1.19a2.11 2.11 0 0 0 .78-.15 1.41 1.41 0 0 0 .58-.39.58.58 0 0 0 .27-.46v-.73a3.93 3.93 0 0 0-.63-.17 3.37 3.37 0 0 0-.65-.07 1.73 1.73 0 0 0-1 .28.85.85 0 0 0-.4.72.87.87 0 0 0 .31.68 1.14 1.14 0 0 0 .74.29zM651 394a2.5 2.5 0 0 1-1.31-.33 2.38 2.38 0 0 1-.87-.9v3.69h-1.62v-8.92h1.42v1.09a2.58 2.58 0 0 1 .91-.88 2.52 2.52 0 0 1 1.28-.32 2.71 2.71 0 0 1 1.19.26 3 3 0 0 1 .94.7 3.25 3.25 0 0 1 .62 1 3.58 3.58 0 0 1 .22 1.26 4 4 0 0 1-.21 1.3A3.34 3.34 0 0 1 653 393a2.7 2.7 0 0 1-.88.7 2.45 2.45 0 0 1-1.12.3zm-.54-1.38a1.45 1.45 0 0 0 .67-.16 1.63 1.63 0 0 0 .53-.42 2 2 0 0 0 .34-.62 2.21 2.21 0 0 0 .12-.73 2 2 0 0 0-.13-.74 1.85 1.85 0 0 0-.37-.6 1.73 1.73 0 0 0-.56-.4 1.66 1.66 0 0 0-.7-.15 1.52 1.52 0 0 0-.47.08 1.69 1.69 0 0 0-.45.22 2 2 0 0 0-.37.34 1.41 1.41 0 0 0-.25.42v1.49a2.15 2.15 0 0 0 .67.9 1.52 1.52 0 0 0 .92.37z"/><path class="d" d="M523.74 539.26H586v19.02h-62.26z"/><path class="e" d="M528.06 542.72h54.48v12.11h-54.48z"/><path d="M533.89 547.49V553h-1.67v-8.59h1.3L538 550v-5.63h1.67V553h-1.36zm10.25 5.63a3.49 3.49 0 0 1-1.39-.27 3.11 3.11 0 0 1-1-.72 3.16 3.16 0 0 1-.66-1 3.41 3.41 0 0 1-.23-1.25 3.44 3.44 0 0 1 .23-1.26 3.16 3.16 0 0 1 .66-1 3.11 3.11 0 0 1 1-.72 3.47 3.47 0 0 1 1.39-.27 3.43 3.43 0 0 1 1.39.27 3.13 3.13 0 0 1 1 .72 3.17 3.17 0 0 1 .66 1 3.45 3.45 0 0 1 .23 1.26 3.42 3.42 0 0 1-.23 1.25 3.22 3.22 0 0 1-.65 1 3.06 3.06 0 0 1-1 .72 3.49 3.49 0 0 1-1.4.27zm-1.66-3.28a2.21 2.21 0 0 0 .13.77 1.88 1.88 0 0 0 .35.6 1.57 1.57 0 0 0 .53.39 1.6 1.6 0 0 0 1.31 0 1.57 1.57 0 0 0 .53-.39 1.87 1.87 0 0 0 .35-.61 2.27 2.27 0 0 0 .13-.78 2.23 2.23 0 0 0-.13-.76 1.87 1.87 0 0 0-.35-.61 1.58 1.58 0 0 0-.53-.39 1.56 1.56 0 0 0-.65-.14 1.5 1.5 0 0 0-.65.15 1.65 1.65 0 0 0-.53.4 1.85 1.85 0 0 0-.35.6 2.23 2.23 0 0 0-.13.77zm8.7 3.28a2.89 2.89 0 0 1-1.21-.25 2.85 2.85 0 0 1-1-.7 3.27 3.27 0 0 1-.62-1 3.65 3.65 0 0 1-.22-1.29 3.79 3.79 0 0 1 .21-1.28 3.35 3.35 0 0 1 .59-1 2.7 2.7 0 0 1 .9-.7 2.57 2.57 0 0 1 1.14-.25 2.4 2.4 0 0 1 1.26.34 2.45 2.45 0 0 1 .88.88v-3.61h1.62v7a.6.6 0 0 0 .08.36.37.37 0 0 0 .29.12V553a3.68 3.68 0 0 1-.69.09 1.13 1.13 0 0 1-.71-.22.8.8 0 0 1-.31-.57v-.4a2.3 2.3 0 0 1-1 .91 2.7 2.7 0 0 1-1.21.31zm.42-1.38a1.53 1.53 0 0 0 .47-.08 1.65 1.65 0 0 0 .45-.22 2 2 0 0 0 .37-.34 1.4 1.4 0 0 0 .25-.42v-1.51a1.8 1.8 0 0 0-.27-.49 2 2 0 0 0-.4-.39 2.1 2.1 0 0 0-.47-.29 1.35 1.35 0 0 0-.49-.1 1.46 1.46 0 0 0-.67.16 1.59 1.59 0 0 0-.53.43 2.07 2.07 0 0 0-.34.62 2.2 2.2 0 0 0-.12.73 2 2 0 0 0 .13.74 1.93 1.93 0 0 0 .36.59 1.64 1.64 0 0 0 .55.4 1.69 1.69 0 0 0 .71.17zm7.7 1.38a3.51 3.51 0 0 1-1.38-.26 3.11 3.11 0 0 1-1.73-1.75 3.35 3.35 0 0 1-.24-1.25 3.52 3.52 0 0 1 .23-1.28 3.1 3.1 0 0 1 .67-1.05 3.17 3.17 0 0 1 1.06-.72 3.51 3.51 0 0 1 1.4-.27 3.43 3.43 0 0 1 1.39.27 3.19 3.19 0 0 1 1 .71 3 3 0 0 1 .65 1 3.47 3.47 0 0 1 .22 1.24v.3a1.26 1.26 0 0 1 0 .24h-4.9a1.9 1.9 0 0 0 .18.67 1.64 1.64 0 0 0 .9.81 1.71 1.71 0 0 0 .61.11 1.87 1.87 0 0 0 .91-.24 1.25 1.25 0 0 0 .59-.62l1.39.39a2.83 2.83 0 0 1-1.12 1.19 3.47 3.47 0 0 1-1.83.51zm1.65-3.83a1.69 1.69 0 0 0-.53-1.14 1.7 1.7 0 0 0-1.74-.31 1.59 1.59 0 0 0-.5.32 1.65 1.65 0 0 0-.36.5 1.74 1.74 0 0 0-.16.64zm2.25 1.96a2.56 2.56 0 0 0 .57.27 2.68 2.68 0 0 0 .92.15 1.61 1.61 0 0 0 .81-.18 1.1 1.1 0 0 0 .46-.54 3 3 0 0 0 .21-.9v-5.63h1.67v4.37a14.21 14.21 0 0 1-.1 1.79 3.63 3.63 0 0 1-.44 1.37 2.25 2.25 0 0 1-1 .88 3.82 3.82 0 0 1-1.69.31 3.21 3.21 0 0 1-1.86-.53zm11.5-4.59a2 2 0 0 0-.31-.23 3.75 3.75 0 0 0-.54-.28 4.73 4.73 0 0 0-.7-.24 3.06 3.06 0 0 0-.76-.1 1.71 1.71 0 0 0-1 .25.84.84 0 0 0-.34.71.74.74 0 0 0 .13.44 1.1 1.1 0 0 0 .37.31 3.07 3.07 0 0 0 .61.24l.85.23q.63.17 1.14.36a3.11 3.11 0 0 1 .87.48 2 2 0 0 1 .55.7 2.31 2.31 0 0 1 .19 1 2.48 2.48 0 0 1-.26 1.18 2.18 2.18 0 0 1-.7.79 3.05 3.05 0 0 1-1 .44 5.1 5.1 0 0 1-1.21.14 6.48 6.48 0 0 1-1.91-.29 5.92 5.92 0 0 1-1.69-.82l.74-1.44a2.29 2.29 0 0 0 .39.28 5.94 5.94 0 0 0 .67.35 5.31 5.31 0 0 0 .86.3 3.87 3.87 0 0 0 1 .12q1.38 0 1.38-.88a.73.73 0 0 0-.16-.47 1.33 1.33 0 0 0-.45-.34 4.28 4.28 0 0 0-.7-.27l-.92-.27a7.69 7.69 0 0 1-1.07-.37 2.78 2.78 0 0 1-.76-.47 1.76 1.76 0 0 1-.45-.63 2.17 2.17 0 0 1-.15-.85 2.66 2.66 0 0 1 .24-1.16 2.35 2.35 0 0 1 .67-.85 3.06 3.06 0 0 1 1-.51 4.12 4.12 0 0 1 1.22-.18 4.73 4.73 0 0 1 1.67.28 6.23 6.23 0 0 1 1.33.67z"/><path class="d" d="M606.51 552.52h74.36v20.75h-74.36z"/><path class="e" d="M610.84 555.98h65.72v13.84h-65.72z"/><path d="M623 567.13v-5.69l-2.21 4.24h-.91l-2.21-4.24v5.69H616v-8.59h1.79l2.54 4.89 2.57-4.89h1.78v8.59zm6.16.12a3.49 3.49 0 0 1-1.39-.27 3.12 3.12 0 0 1-1-.72 3.16 3.16 0 0 1-.66-1 3.41 3.41 0 0 1-.23-1.25 3.44 3.44 0 0 1 .23-1.26 3.16 3.16 0 0 1 .66-1 3.12 3.12 0 0 1 1-.72 3.47 3.47 0 0 1 1.39-.27 3.43 3.43 0 0 1 1.39.27 3.13 3.13 0 0 1 1 .72 3.17 3.17 0 0 1 .66 1 3.46 3.46 0 0 1 .23 1.26 3.43 3.43 0 0 1-.23 1.25 3.23 3.23 0 0 1-.65 1 3.06 3.06 0 0 1-1 .72 3.49 3.49 0 0 1-1.4.27zM627.5 564a2.2 2.2 0 0 0 .13.77 1.88 1.88 0 0 0 .35.6 1.57 1.57 0 0 0 .53.39 1.6 1.6 0 0 0 1.31 0 1.57 1.57 0 0 0 .53-.39 1.88 1.88 0 0 0 .35-.61 2.27 2.27 0 0 0 .13-.78 2.23 2.23 0 0 0-.13-.76 1.88 1.88 0 0 0-.35-.61 1.58 1.58 0 0 0-.53-.39 1.56 1.56 0 0 0-.65-.14 1.5 1.5 0 0 0-.65.15 1.65 1.65 0 0 0-.53.4 1.85 1.85 0 0 0-.35.6 2.22 2.22 0 0 0-.14.77zm11.96 3.13h-1.62v-3.56a1.85 1.85 0 0 0-.27-1.11.87.87 0 0 0-.74-.35 1.4 1.4 0 0 0-.5.1 1.85 1.85 0 0 0-.48.27 2.22 2.22 0 0 0-.41.42 1.64 1.64 0 0 0-.27.53v3.7h-1.62v-6.34H635V562a2.4 2.4 0 0 1 1-.94 3.26 3.26 0 0 1 1.5-.34 1.91 1.91 0 0 1 1 .22 1.58 1.58 0 0 1 .58.57 2.41 2.41 0 0 1 .28.8 5.25 5.25 0 0 1 .08.91zm3.9.03a2.61 2.61 0 0 1-1.16-.25 2.81 2.81 0 0 1-.9-.7 3.16 3.16 0 0 1-.59-1 3.84 3.84 0 0 1 0-2.52 3.31 3.31 0 0 1 .61-1 2.75 2.75 0 0 1 .93-.7 2.81 2.81 0 0 1 1.2-.25 2.48 2.48 0 0 1 1.3.33 2.81 2.81 0 0 1 .92.89v-1.11h1.42v6a2.89 2.89 0 0 1-.27 1.26 2.76 2.76 0 0 1-.73.94 3.26 3.26 0 0 1-1.11.59 4.62 4.62 0 0 1-1.41.21 4 4 0 0 1-1.75-.34 3.56 3.56 0 0 1-1.22-1l.88-.86a2.52 2.52 0 0 0 .91.7 2.75 2.75 0 0 0 1.17.25 2.52 2.52 0 0 0 .72-.1 1.73 1.73 0 0 0 .61-.32 1.49 1.49 0 0 0 .42-.56 1.94 1.94 0 0 0 .15-.8V566a2.14 2.14 0 0 1-.88.84 2.61 2.61 0 0 1-1.22.32zm.54-1.3a1.53 1.53 0 0 0 .51-.08 1.84 1.84 0 0 0 .45-.23 1.82 1.82 0 0 0 .36-.34 1.54 1.54 0 0 0 .24-.41v-1.51a2 2 0 0 0-.68-.9 1.63 1.63 0 0 0-1-.34 1.4 1.4 0 0 0-.68.16 1.69 1.69 0 0 0-.52.44 2 2 0 0 0-.33.62 2.32 2.32 0 0 0-.11.73 2 2 0 0 0 .13.73 1.86 1.86 0 0 0 .37.59 1.72 1.72 0 0 0 .55.4 1.62 1.62 0 0 0 .71.15zm7.58 1.39a3.49 3.49 0 0 1-1.39-.27 3.11 3.11 0 0 1-1-.72 3.15 3.15 0 0 1-.66-1 3.41 3.41 0 0 1-.23-1.25 3.44 3.44 0 0 1 .23-1.26 3.15 3.15 0 0 1 .66-1 3.11 3.11 0 0 1 1-.72 3.47 3.47 0 0 1 1.39-.27 3.43 3.43 0 0 1 1.39.27 3.13 3.13 0 0 1 1 .72 3.16 3.16 0 0 1 .66 1 3.44 3.44 0 0 1 .23 1.26 3.41 3.41 0 0 1-.23 1.25 3.21 3.21 0 0 1-.65 1 3.05 3.05 0 0 1-1 .72 3.48 3.48 0 0 1-1.4.27zm-1.66-3.25a2.22 2.22 0 0 0 .13.77 1.88 1.88 0 0 0 .35.6 1.56 1.56 0 0 0 .53.39 1.6 1.6 0 0 0 1.31 0 1.57 1.57 0 0 0 .53-.39 1.86 1.86 0 0 0 .35-.61 2.27 2.27 0 0 0 .13-.78 2.23 2.23 0 0 0-.13-.76 1.86 1.86 0 0 0-.35-.61 1.59 1.59 0 0 0-.53-.39 1.56 1.56 0 0 0-.65-.14 1.5 1.5 0 0 0-.65.15 1.64 1.64 0 0 0-.53.4 1.85 1.85 0 0 0-.35.6 2.24 2.24 0 0 0-.14.77zm6.18 3.13v-8.59h3.12a4.68 4.68 0 0 1 1.85.34 3.72 3.72 0 0 1 2.12 2.28 5.13 5.13 0 0 1 .27 1.67 5 5 0 0 1-.3 1.77 3.8 3.8 0 0 1-.85 1.36 3.85 3.85 0 0 1-1.34.87 4.74 4.74 0 0 1-1.75.31zm5.68-4.31a3.65 3.65 0 0 0-.17-1.14 2.54 2.54 0 0 0-.5-.9 2.21 2.21 0 0 0-.81-.58 2.72 2.72 0 0 0-1.08-.21h-1.45v5.67h1.45a2.62 2.62 0 0 0 1.1-.22 2.24 2.24 0 0 0 .8-.6 2.66 2.66 0 0 0 .49-.9 3.61 3.61 0 0 0 .13-1.12zm9.87 2.09a1.95 1.95 0 0 1-.82 1.65 2.79 2.79 0 0 1-.88.42 3.83 3.83 0 0 1-1.07.15h-4.15v-8.59h4.6a1.69 1.69 0 0 1 .81.19 2 2 0 0 1 .62.5 2.31 2.31 0 0 1 .39.7 2.36 2.36 0 0 1 .14.79 2.33 2.33 0 0 1-.31 1.18 1.91 1.91 0 0 1-.92.82 2.21 2.21 0 0 1 1.17.78 2.25 2.25 0 0 1 .42 1.41zm-5.25-5v2.17h2.23a1 1 0 0 0 .72-.29 1.07 1.07 0 0 0 .3-.8 1.11 1.11 0 0 0-.27-.79.89.89 0 0 0-.67-.29zm3.57 4.64a1.26 1.26 0 0 0-.08-.44 1.22 1.22 0 0 0-.21-.37 1 1 0 0 0-.31-.25.88.88 0 0 0-.4-.09h-2.57v2.26h2.48a1.08 1.08 0 0 0 .43-.08 1 1 0 0 0 .35-.24 1.16 1.16 0 0 0 .31-.79z"/><path class="d" d="M606.94 524.26h63.99v20.75h-63.99z"/><path class="e" d="M611.27 527.72h55.34v13.84h-55.34z"/><path d="M623.16 537.4v1.47h-6v-8.6H623v1.47h-4.19v2.07h3.62v1.36h-3.62v2.24zm2.15-4.88l1.37 2 .1.22.12-.22 1.36-2h1.67l-2.26 3.18 2.3 3.16h-1.67l-1.4-2-.11-.21-.1.21-1.39 2h-1.67l2.29-3.16-2.25-3.18zm9.23 6.48a2.5 2.5 0 0 1-1.31-.33 2.38 2.38 0 0 1-.87-.9v3.69h-1.62v-8.92h1.42v1.09a2.58 2.58 0 0 1 .91-.88 2.52 2.52 0 0 1 1.28-.32 2.71 2.71 0 0 1 1.19.26 3 3 0 0 1 .94.7 3.25 3.25 0 0 1 .62 1 3.58 3.58 0 0 1 .22 1.26 4 4 0 0 1-.21 1.3 3.34 3.34 0 0 1-.58 1.05 2.7 2.7 0 0 1-.88.7 2.45 2.45 0 0 1-1.11.3zm-.54-1.4a1.45 1.45 0 0 0 .67-.16 1.63 1.63 0 0 0 .53-.42 2 2 0 0 0 .34-.62 2.21 2.21 0 0 0 .12-.73 2 2 0 0 0-.13-.74 1.85 1.85 0 0 0-.37-.6 1.73 1.73 0 0 0-.56-.4 1.66 1.66 0 0 0-.7-.15 1.52 1.52 0 0 0-.47.08 1.69 1.69 0 0 0-.45.22 2 2 0 0 0-.37.34 1.41 1.41 0 0 0-.25.42v1.49a2.15 2.15 0 0 0 .67.9 1.52 1.52 0 0 0 .97.37zm8.19-3.68a3.19 3.19 0 0 0-1.32.28 1.67 1.67 0 0 0-.84.82v3.84h-1.62v-6.34h1.49v1.36a2.86 2.86 0 0 1 .4-.59 3.09 3.09 0 0 1 .5-.45 2.37 2.37 0 0 1 .54-.3 1.49 1.49 0 0 1 .53-.1h.33zm3.53 5.08a3.53 3.53 0 0 1-1.38-.26 3.12 3.12 0 0 1-1.73-1.75 3.34 3.34 0 0 1-.24-1.25 3.53 3.53 0 0 1 .23-1.28 3.1 3.1 0 0 1 .67-1.05 3.18 3.18 0 0 1 1.06-.72 3.53 3.53 0 0 1 1.4-.27 3.44 3.44 0 0 1 1.39.27 3.17 3.17 0 0 1 1 .71 3 3 0 0 1 .65 1 3.46 3.46 0 0 1 .22 1.23v.3a1.25 1.25 0 0 1 0 .24h-4.9a1.9 1.9 0 0 0 .18.67 1.64 1.64 0 0 0 .38.5 1.62 1.62 0 0 0 .52.31 1.71 1.71 0 0 0 .61.11 1.87 1.87 0 0 0 .91-.24 1.25 1.25 0 0 0 .59-.62l1.39.39a2.83 2.83 0 0 1-1.12 1.19 3.47 3.47 0 0 1-1.83.52zm1.65-3.83a1.69 1.69 0 0 0-.53-1.14 1.61 1.61 0 0 0-1.13-.43 1.63 1.63 0 0 0-.61.11 1.6 1.6 0 0 0-.5.32 1.68 1.68 0 0 0-.36.5 1.75 1.75 0 0 0-.16.64zm5.06 3.83a4.9 4.9 0 0 1-1.56-.25 3.81 3.81 0 0 1-1.31-.73l.6-1a5.21 5.21 0 0 0 1.13.62 3 3 0 0 0 1.1.21 1.39 1.39 0 0 0 .76-.18.59.59 0 0 0 .28-.52.52.52 0 0 0-.33-.5 7 7 0 0 0-1.06-.36q-.62-.17-1.05-.33a2.71 2.71 0 0 1-.7-.36 1.22 1.22 0 0 1-.39-.46 1.47 1.47 0 0 1-.12-.62 2 2 0 0 1 .19-.87 1.9 1.9 0 0 1 .53-.66 2.43 2.43 0 0 1 .79-.42 3.23 3.23 0 0 1 1-.15 4.25 4.25 0 0 1 1.34.21 3.26 3.26 0 0 1 1.14.67l-.65 1a3.81 3.81 0 0 0-.94-.53 2.57 2.57 0 0 0-.9-.17 1.31 1.31 0 0 0-.69.17.59.59 0 0 0-.28.54.52.52 0 0 0 .07.28.58.58 0 0 0 .21.19 2.07 2.07 0 0 0 .38.16l.59.16q.65.17 1.12.34a3.07 3.07 0 0 1 .76.39 1.38 1.38 0 0 1 .44.5 1.56 1.56 0 0 1 .14.68 1.77 1.77 0 0 1-.69 1.47 3 3 0 0 1-1.9.52zm6.02 0a4.9 4.9 0 0 1-1.56-.25 3.81 3.81 0 0 1-1.31-.73l.6-1a5.21 5.21 0 0 0 1.13.62 3 3 0 0 0 1.1.21 1.39 1.39 0 0 0 .76-.18.59.59 0 0 0 .28-.52.52.52 0 0 0-.33-.5 7 7 0 0 0-1.06-.36q-.62-.17-1.05-.33a2.71 2.71 0 0 1-.7-.36 1.22 1.22 0 0 1-.39-.46 1.47 1.47 0 0 1-.12-.62 2 2 0 0 1 .19-.87 1.9 1.9 0 0 1 .53-.66 2.43 2.43 0 0 1 .79-.42 3.23 3.23 0 0 1 1-.15 4.25 4.25 0 0 1 1.34.21 3.26 3.26 0 0 1 1.14.67l-.65 1a3.81 3.81 0 0 0-.94-.53 2.57 2.57 0 0 0-.9-.17 1.31 1.31 0 0 0-.69.17.59.59 0 0 0-.28.54.52.52 0 0 0 .07.28.58.58 0 0 0 .21.19 2.07 2.07 0 0 0 .38.16l.59.16q.65.17 1.12.34a3.07 3.07 0 0 1 .76.39 1.38 1.38 0 0 1 .44.5 1.56 1.56 0 0 1 .14.68 1.77 1.77 0 0 1-.69 1.47 3 3 0 0 1-1.9.52z"/><path class="d" d="M606.51 565.03h-5.16L588.9 552.6l-2.9-.08m0-8.83l2.9-.08 12.45-12.43h5.16M500.66 506.5l-.04 10.84-.03 1.63-2.95 2.94-11.66 11.67m8.56-27.08l-.07 10.02-.84.85-.27.26-11.66 11.66m8.15 9.18l11.94-11.92 1.13-1.13h20.82"/><path class="d" d="M494.18 542.79l11.33-11.31h18.23m-20.99 19.89v-.01l4.28-4.27 3.67-3.51h13.04m-17.21 12.96l6.61-6.47h10.6m-34.75 31.48l11.93 11.92 1.13 1.13h62.51l23.43 23.42v11.64"/><path class="d" d="M493.31 577.23l11.34 11.31h62.51l25.87 25.88h10.73"/><path class="d" d="M522.88 582.49h-15.64l-1.07-.94-8.6-8.57-.01-.01m96.4-220.69h88.2v20.75h-88.2z"/><path class="e" d="M598.29 355.74h79.55v13.84h-79.55z"/><path d="M605.55 366.88v-8.6h3.8a2.44 2.44 0 0 1 1.1.25 2.84 2.84 0 0 1 .87.65 3.1 3.1 0 0 1 .57.92 2.78 2.78 0 0 1 .21 1 2.86 2.86 0 0 1-.42 1.52 2.4 2.4 0 0 1-1.13 1l2 3.23h-1.88l-1.8-2.85h-1.65v2.88zm1.67-4.35h2.1a.89.89 0 0 0 .43-.11 1.11 1.11 0 0 0 .34-.3 1.46 1.46 0 0 0 .23-.44 1.71 1.71 0 0 0 .09-.55 1.54 1.54 0 0 0-.1-.56 1.44 1.44 0 0 0-.26-.44 1.18 1.18 0 0 0-.37-.29 1 1 0 0 0-.43-.1h-2zm8.99 4.47a3.53 3.53 0 0 1-1.38-.26 3.16 3.16 0 0 1-1.05-.71 3.13 3.13 0 0 1-.67-1 3.33 3.33 0 0 1-.24-1.25 3.53 3.53 0 0 1 .23-1.28 3.11 3.11 0 0 1 .67-1.05 3.18 3.18 0 0 1 1.06-.72 3.53 3.53 0 0 1 1.4-.27 3.44 3.44 0 0 1 1.39.27 3.19 3.19 0 0 1 1 .71 3 3 0 0 1 .65 1 3.48 3.48 0 0 1 .22 1.23v.3a1.25 1.25 0 0 1 0 .24h-4.9a1.88 1.88 0 0 0 .18.67 1.65 1.65 0 0 0 .37.5 1.63 1.63 0 0 0 .52.31 1.71 1.71 0 0 0 .61.11 1.87 1.87 0 0 0 .91-.24 1.25 1.25 0 0 0 .59-.62l1.39.39a2.83 2.83 0 0 1-1.12 1.19 3.47 3.47 0 0 1-1.83.48zm1.65-3.83a1.69 1.69 0 0 0-.53-1.14 1.61 1.61 0 0 0-1.13-.43 1.63 1.63 0 0 0-.61.11 1.6 1.6 0 0 0-.5.32 1.66 1.66 0 0 0-.36.5 1.75 1.75 0 0 0-.16.64zm5.05 3.83a4.9 4.9 0 0 1-1.56-.25A3.81 3.81 0 0 1 620 366l.6-1a5.21 5.21 0 0 0 1.13.62 3 3 0 0 0 1.1.21 1.39 1.39 0 0 0 .76-.18.59.59 0 0 0 .28-.52.52.52 0 0 0-.33-.5 7 7 0 0 0-1.06-.36q-.62-.17-1.05-.33a2.71 2.71 0 0 1-.7-.36 1.22 1.22 0 0 1-.39-.46 1.47 1.47 0 0 1-.12-.62 2 2 0 0 1 .19-.87 1.9 1.9 0 0 1 .59-.63 2.43 2.43 0 0 1 .79-.42 3.23 3.23 0 0 1 1-.15 4.25 4.25 0 0 1 1.34.21 3.26 3.26 0 0 1 1.14.67l-.65 1a3.81 3.81 0 0 0-.94-.53 2.57 2.57 0 0 0-.9-.17 1.31 1.31 0 0 0-.69.17.59.59 0 0 0-.28.54.52.52 0 0 0 .07.28.58.58 0 0 0 .21.19 2.07 2.07 0 0 0 .38.16l.59.16q.65.17 1.12.34a3.07 3.07 0 0 1 .76.39 1.38 1.38 0 0 1 .44.5 1.56 1.56 0 0 1 .14.68 1.77 1.77 0 0 1-.69 1.47 3 3 0 0 1-1.92.51zm7.42 0a2.5 2.5 0 0 1-1.31-.33 2.36 2.36 0 0 1-.87-.9v3.69h-1.62v-8.92h1.42v1.09a2.59 2.59 0 0 1 .91-.88 2.52 2.52 0 0 1 1.28-.32 2.71 2.71 0 0 1 1.19.26 3 3 0 0 1 .94.7 3.28 3.28 0 0 1 .62 1 3.58 3.58 0 0 1 .22 1.26 4 4 0 0 1-.21 1.3 3.32 3.32 0 0 1-.57 1.05 2.69 2.69 0 0 1-.88.7 2.45 2.45 0 0 1-1.12.3zm-.54-1.38a1.45 1.45 0 0 0 .67-.16 1.63 1.63 0 0 0 .54-.46 2 2 0 0 0 .34-.62 2.23 2.23 0 0 0 .12-.73 2 2 0 0 0-.13-.74 1.84 1.84 0 0 0-.37-.6 1.72 1.72 0 0 0-.56-.4 1.67 1.67 0 0 0-.7-.15 1.53 1.53 0 0 0-.47.08 1.67 1.67 0 0 0-.45.22 2 2 0 0 0-.37.34 1.41 1.41 0 0 0-.25.42v1.49a2.16 2.16 0 0 0 .67.9 1.52 1.52 0 0 0 .96.42zm7.35 1.38a3.49 3.49 0 0 1-1.39-.27 3.13 3.13 0 0 1-1-.72 3.18 3.18 0 0 1-.66-1 3.53 3.53 0 0 1 0-2.51 3.17 3.17 0 0 1 .66-1 3.13 3.13 0 0 1 1-.72 3.49 3.49 0 0 1 1.39-.27 3.44 3.44 0 0 1 1.39.27 3.14 3.14 0 0 1 1 .72 3.18 3.18 0 0 1 .66 1 3.53 3.53 0 0 1 0 2.51 3.25 3.25 0 0 1-.65 1 3.07 3.07 0 0 1-1 .72 3.49 3.49 0 0 1-1.4.27zm-1.66-3.28a2.19 2.19 0 0 0 .13.77 1.87 1.87 0 0 0 .35.6 1.57 1.57 0 0 0 .53.39 1.6 1.6 0 0 0 1.31 0 1.57 1.57 0 0 0 .53-.39 1.87 1.87 0 0 0 .35-.61 2.27 2.27 0 0 0 .13-.77 2.23 2.23 0 0 0-.13-.76 1.86 1.86 0 0 0-.35-.61 1.57 1.57 0 0 0-.53-.39 1.54 1.54 0 0 0-.65-.14 1.49 1.49 0 0 0-.65.15 1.65 1.65 0 0 0-.53.4 1.86 1.86 0 0 0-.35.61 2.21 2.21 0 0 0-.14.75zm11.96 3.16h-1.62v-3.56a1.85 1.85 0 0 0-.27-1.11.87.87 0 0 0-.74-.35 1.4 1.4 0 0 0-.5.1 1.83 1.83 0 0 0-.48.27 2.19 2.19 0 0 0-.41.42 1.65 1.65 0 0 0-.27.53v3.7h-1.62v-6.34H643v1.17a2.4 2.4 0 0 1 1-.94 3.27 3.27 0 0 1 1.5-.34 1.91 1.91 0 0 1 1 .22 1.57 1.57 0 0 1 .58.57 2.4 2.4 0 0 1 .28.8 5.24 5.24 0 0 1 .08.91zm3.81.12a4.91 4.91 0 0 1-1.56-.25 3.81 3.81 0 0 1-1.31-.73l.61-1a5.2 5.2 0 0 0 1.13.62 3 3 0 0 0 1.1.21 1.39 1.39 0 0 0 .76-.18.59.59 0 0 0 .28-.52.52.52 0 0 0-.33-.5 7 7 0 0 0-1.07-.36q-.62-.17-1.05-.33a2.72 2.72 0 0 1-.7-.36 1.22 1.22 0 0 1-.39-.46 1.47 1.47 0 0 1-.12-.62 2 2 0 0 1 .19-.87 1.9 1.9 0 0 1 .53-.66 2.44 2.44 0 0 1 .79-.42 3.24 3.24 0 0 1 1-.15 4.26 4.26 0 0 1 1.34.21 3.26 3.26 0 0 1 1.14.67l-.65 1a3.78 3.78 0 0 0-.94-.53 2.56 2.56 0 0 0-.9-.17 1.3 1.3 0 0 0-.69.17.59.59 0 0 0-.28.54.52.52 0 0 0 .07.28.58.58 0 0 0 .21.19 2 2 0 0 0 .38.16l.59.16q.65.17 1.12.34a3.05 3.05 0 0 1 .76.39 1.38 1.38 0 0 1 .44.5 1.54 1.54 0 0 1 .14.68 1.76 1.76 0 0 1-.69 1.47 3 3 0 0 1-1.9.52zm3.62-7.34V358h1.62v1.61zm0 7.23v-6.34h1.62v6.34zm4.8-.01l-2.34-6.34H659l1.61 5 1.62-5h1.53l-2.34 6.34zm7.66.12a3.53 3.53 0 0 1-1.38-.26 3.16 3.16 0 0 1-1.05-.71 3.13 3.13 0 0 1-.67-1 3.33 3.33 0 0 1-.24-1.25 3.53 3.53 0 0 1 .23-1.28 3.11 3.11 0 0 1 .67-1.05 3.18 3.18 0 0 1 1.06-.72 3.53 3.53 0 0 1 1.4-.27 3.44 3.44 0 0 1 1.39.27 3.19 3.19 0 0 1 1 .71 3 3 0 0 1 .65 1 3.48 3.48 0 0 1 .22 1.23v.3a1.25 1.25 0 0 1 0 .24h-4.9a1.88 1.88 0 0 0 .18.67 1.65 1.65 0 0 0 .37.5 1.63 1.63 0 0 0 .52.31 1.71 1.71 0 0 0 .61.11 1.87 1.87 0 0 0 .91-.24 1.25 1.25 0 0 0 .59-.62l1.39.39a2.83 2.83 0 0 1-1.12 1.19 3.47 3.47 0 0 1-1.83.48zm1.65-3.83a1.69 1.69 0 0 0-.53-1.14 1.61 1.61 0 0 0-1.13-.43 1.63 1.63 0 0 0-.61.11 1.6 1.6 0 0 0-.5.32 1.66 1.66 0 0 0-.36.5 1.75 1.75 0 0 0-.16.64z"/><path class="d" d="M480.5 309.25h27.35"/></g></g></svg>