<?xml version="1.0" encoding="utf-8"?>
<!-- Generator: Adobe Illustrator 22.1.0, SVG Export Plug-In . SVG Version: 6.00 Build 0)  -->
<svg version="1.1" id="Layer_1" xmlns="http://www.w3.org/2000/svg" xmlns:xlink="http://www.w3.org/1999/xlink" x="0px" y="0px"
	 viewBox="0 0 223.9 262.7" style="enable-background:new 0 0 223.9 262.7;" xml:space="preserve">
<style type="text/css">
	.st0{fill:#287673;}
	.st1{fill:#196974;}
	.st2{fill:#0D5E75;}
	.st3{fill:#3D8971;}
	.st4{fill:#8DC86D;}
	.st5{fill:#61A86E;}
	.st6{fill:#80C070;}
	.st7{fill:#459070;}
	.st8{fill:none;stroke:#18526B;stroke-width:2;stroke-miterlimit:10;}
	.st9{fill:#18526B;}
	.st10{fill:#378374;}
	.st11{fill:#2A5971;}
	.st12{fill:#569F6F;}
	.st13{fill:#347E76;}
	.st14{fill:#539286;}
	.st15{fill:#64A381;}
	.st16{fill:#87C181;}
	.st17{fill:#98CE81;}
	.st18{fill:#83BB89;}
	.st19{fill:#348272;}
	.st20{fill:#358174;}
	.st21{fill:#69A782;}
	.st22{fill:#61A86D;}
	.st23{fill:#81BC80;}
	.st24{fill:#84C07D;}
	.st25{fill:#FFFFFF;}
	.st26{fill:#68A582;}
	.st27{fill:#73AF82;}
	.st28{fill:#6BAC78;}
	.st29{fill:#84BF81;}
	.st30{fill:#8CC18A;}
	.st31{fill:#569584;}
	.st32{fill:#478E78;}
	.st33{fill:#479171;}
	.st34{fill:#7DB48C;}
</style>
<path class="st0" d="M139.1,143.1c-4.7,4.6-5.4,10.9-7,16.8c-1.8,1.5-4,1.4-6.1,1.1c-6-0.8-12.1-1.5-18.1-1.8
	c-0.8-1.8-1.5-3.6-2.3-5.4c-2.4-5.4-5.9-8.8-12.3-9.1c-3.9-0.2-8.3-0.3-11.2-3.8c0.2-0.2,0.4-0.3,0.5-0.5c3.9-1,7.7,1,11.4,0.3
	c-1.1-0.1-1.5-0.9-1.4-2c1.3-2.5,3.9-2,6-2.5c6.1,2.6,10.4,7.5,14.5,11.9c0.2-3-2.7-6.4,0.2-9.8c4.3-1.3,8.3-0.2,12.2,1.5
	c1.8,2.7,3.7,3.4,6.1,0.7c0.6-0.7,1.7-1,2.7-0.9C136.3,140.2,139.1,139.9,139.1,143.1z"/>
<path class="st1" d="M107.8,159.2c2.2-2.4,5-1.3,7.5-1c5.6,0.7,11.1,1.7,16.8,1.7c0.3,7,0.6,14,0.8,21c-1.4,1.3-3.1,1-4.7,0.7
	c-1.8-0.3-3.6-0.5-5.4-0.9c-4.9-0.9-9.8-1.7-12.6,4.1C110.5,176.2,109.5,167.7,107.8,159.2z"/>
<path class="st2" d="M110.2,184.9c0-6.3,3.4-7.2,8.7-6c4.6,1,9.3,1.4,14,2.1c1,5.2,2,10.4,3.1,15.8c-9.3,0-18.3,0-27.5,0
	C109.1,192.7,109.6,188.8,110.2,184.9z"/>
<path class="st3" d="M25.8,114c-2.6-1.4-4.4-1.3-6.7,1.2c-4.5,4.7-12.3,4.1-16.3-0.8c-4.1-5-3.8-12.9,1.8-15.7
	c5-2.6,5.9-5.7,5.2-10.4c-0.4-1-0.6-1.9,0.7-2.4c2.1,1,1.5,3,1.7,4.7c0.3,2.5,1,4.5,3.8,4.9c1.2,0.3,2,1.1,2.9,1.8
	c2.8,2.1,4.5,5,4.7,8.3c0.2,3.2,1.6,5.4,3.6,7.6C27.1,113.8,26.8,114.4,25.8,114z"/>
<path class="st4" d="M64.8,22.7c-3-2.7-4.2-5.8-0.9-8.9c3-2.8,6.2-2.1,8.6,1c1.4,1.8,2.9,1.1,4.5,0.8c11.2-2.3,22.4-4.6,33.6-6.9
	c2.3-0.5,4-1,4.7-4c0.8-3.4,3.8-5.1,7.3-4.6c3.7,0.5,6.4,2.9,6.2,6.6c-0.2,2.9,1.1,4.2,3.2,5.4c0,1.1-0.7,1.3-1.6,1.4
	c-5.6,0.5-7.1,1.8-6.9,7.4c0.2,8.2-1.5,16.3-1.1,24.4c0.1,1.7,0.2,3.8-2,4.7c-1.2-0.4-1.7-1.4-2.2-2.5c-0.7-2.5-0.6-5.1-0.2-7.6
	c1.1-3.1,0.4-6.4,0.6-9.6c0-3,0.3-5.9,0.7-8.9c1.1-7.2-3-11.1-10.1-9.7c-9.6,1.9-19.2,3.7-28.7,5.9c-5.1,1.2-5.1,1.2-2.1,5.6
	c0.4,0.5,0.7,1.1,0.8,1.8c0,0.5-0.2,0.9-0.7,1.1c-1.8,0.4-2.9-0.8-4.1-1.8c-1.4-1.2-1.4-0.1-1.6,0.9c-0.3,0.9-0.6,1.7-1.7,1.8
	c-1.4-1.9-3.4-2.6-5.7-2.7C64.8,24,64.4,23.5,64.8,22.7z"/>
<path class="st5" d="M10.7,85.9c-0.3,0.7-0.6,1.5-0.9,2.2c-1.4-4-0.6-8.3-1.1-12.4c-0.3-2.3-0.4-4.3-3.2-5.5C2.4,69,2,65.8,3.6,63
	c1.6-2.9,4.6-4,7.2-2c3,2.3,5.4,1.5,8.2,0.3c2.3-0.9,4.7-1.7,7.1-2.4c3-0.9,5.2-1.7,5.1-5.8c-0.1-4.6,5.1-7.7,9.8-6.8
	c1.4,0.3,2.6,1.6,4.3,0.8c0.8-0.2,1.3,0.3,1.7,0.9c1.1,2.5,2.3,5.1,1.9,7.9c-0.3,2.3,1.7,3.3,2.5,5c0.1,0.8-0.3,1.3-1.1,1.6
	c-4.9-0.6-4.9-0.6-4.6,5.7c-0.3,0.7-0.8,1.1-1.6,1c-2.1-2.9-4.2-5.8-8.3-5.8c-1.1-0.3-2-1.2-3-1.7c-10.9-0.9-24.3,5.8-20.9,19.2
	C12.2,82.6,12.6,84.6,10.7,85.9z"/>
<path class="st6" d="M155,25.9c2.2,0.9,4.2,2.6,7,1.6c1.3-0.5,3.4,0.1,4,1.4c1.7,4,5.3,4,8.6,4.9c9.3,2.5,18.6,4.8,27.8,7.3
	c2,0.5,3.6,0.9,5.6-0.5c2.3-1.6,4.9-1,6.6,1.2c1.6,2,1.8,4.2-0.1,6.3c-3.3,3.8-0.5,8.3-1.3,12.4c0.3,1.2,0.8,2.5-0.5,3.5
	c-2.5-0.7-1.7-2.9-1.9-4.5c-0.2-2.3-0.4-4.6-1.4-7c-3.5,2.5-4,7.3-8,8.9c-0.5,0-0.9-0.1-1.4-0.3c-0.9-3.3,1.7-5.2,3.1-7.5
	c3.3-5.4,2.2-8.7-3.8-10.4c-4.8-1.3-9.6-2.7-14.5-3.9c-4.7-1.1-9.3-2.3-14.8-3.9c7,7.4,13.8,13.8,20.3,20.5c1.6,1.6,3.7,2.9,3.9,5.6
	c-0.2,0.4-0.6,0.7-1.1,0.8c-2.3,0-3.5-1.7-4.9-3.1c-5.7-5.6-11.3-11.3-16.9-16.9c-5.4-5.4-5.4-5.4-9.5,0.7c-1.2,0-1.6-0.8-1.9-1.8
	c-1.2-5.4-4.1-0.2-6-0.9c-0.8-0.2-1.2-0.6-1.3-1.4c0.3-1.4,1.4-2.1,2.2-3.1c2.6-3.4,1-6.3-1.2-9.1C153.8,26.1,154,25.4,155,25.9z"/>
<path class="st7" d="M175.9,111.7c-1.7,0.9-3.5,1.3-4.7,3.3c-4.2,7.2-8.7,8.1-16.2,3.4c-1.2,0.9-0.5,2.5-1.2,3.5
	c-0.9,0.8-1.9,0.9-2.9,0.2c0.9-6.9-1.2-14.8,5.9-19.9c1-0.7,1-2,1.3-3.2c0.3-0.7,0.7-1.3,1.5-1.4c2.7,3.7,7.9,3.9,10.7,7.5
	c0.6,0.7,1.1,1.5,1.4,2.4c0.3,1.7,1.3,2.7,3.1,2.7C175.5,110.5,176,110.8,175.9,111.7z"/>
<path class="st8" d="M205.3,223.7c10.6,0,18.6,8.2,18.7,19.2c0.1,11.1-8.2,19.7-18.8,19.7c-10.5-0.1-18.2-8.4-18.2-19.6
	C186.9,231.7,194.5,223.7,205.3,223.7z"/>
<path class="st8" d="M57.9,242.7c0.1-11.1,7.8-19.1,18.6-19.1C87,223.7,94.9,232,94.9,243c0,11.1-8.4,19.7-19,19.5
	C65.4,262.3,57.8,254,57.9,242.7z"/>
<path class="st9" d="M154.6,226.1c-2.1,1.6-4,0.6-6,0.2c-9.6-1.9-16.7,1-20.3,8.5c-3.5,7.2-1.7,16.2,4.4,21.4
	c5.8,5,12.5,4.4,19.3,2.9c2.1-0.5,1.9-1.9,1.9-3.4c0-3.5,0-7,0-10.5c0-0.9-0.2-2.2,1.4-2c1,0.1,0.9,1.2,0.9,2c0,4.2,0,8.3,0,12.5
	c0,1.6-0.6,2.4-1.9,3.1c-8.1,4.4-21.6,1.2-27-6.5c-5.8-8.2-4.4-20.2,3.4-26.6C138.2,221.4,146.4,223.7,154.6,226.1z"/>
<path class="st10" d="M151.1,121.9c0.9,0,1.8,0,2.7,0c-0.1,3.8-2.6,6.7-3.9,10.2c3.6,0.4,6.6-0.7,10.2-2.7c-1.8,3.8-4.7,4.8-7.3,5.5
	c-5.4,1.4-10.1,3.9-13.8,8.2c-1-2.1-3.8-1.6-5.1-3.3c-0.4-1.6,0.7-2.4,1.8-3.1c5.3-3.6,9.7-8.3,13.4-13.5
	C149.6,122.6,150.2,122,151.1,121.9z"/>
<path class="st11" d="M32.8,261.9c-6,0-11.9,0-17.9,0c-1.9,0-2.1-1.1-2.1-2.6c0-11,0-22,0-33c0-0.9-0.3-2.3,1.1-2.3
	c1.7,0,1.4,1.6,1.4,2.7c0,9.3,0.2,18.7-0.1,28c-0.1,4,1.2,5.1,5.1,5c4.1-0.1,8.4-0.9,12.4,0.6C32.8,260.9,32.8,261.4,32.8,261.9z"/>
<path class="st12" d="M214.8,80c0.6,4.4-0.5,9,4,12.5c2.4,1.8,1.6,5.2-0.4,7.6c-2.1,2.4-4.8,2.5-7.7,1.3c-1.4-0.6-2-2.3-3.7-2.4
	c-0.9,0.5-1.2,0-1.5-0.7c-0.5-4.1,2.9-6.8,3.8-10.5c0.3-0.7,0.7-1.1,1.4-1.3c1.9,0.2,2-1.1,2-2.5C213.1,82.5,212.3,80.4,214.8,80z"
	/>
<path class="st13" d="M82,140.9c-0.7,0-1.4-0.1-1.9,0.1c-7.6,3.3-8,3.2-11.3-4.6c-0.1-0.3-0.5-0.4-0.7-0.6c-0.3-0.7,0.1-1.1,0.6-1.5
	c0.6-0.5,1.3-0.9,1.9-1.4c0.8-0.7,1.5-1.4,2.2-2.1c1.9-2.3,1.1-5.6,3.1-7.9c0.8-0.3,1.3,0.1,1.7,0.7c0.7,1.4,1.1,2.9,0.7,4.3
	c-0.6,2.1-0.3,3.7,1.5,5.3C82.1,135.2,82,138.1,82,140.9L82,140.9z"/>
<path class="st14" d="M68.9,134.9c-0.3,0.3-0.6,0.5-0.9,0.8c-14.2-7-28.4-14-42.2-21.7c0.4-0.3,0.7-0.6,1.1-0.8c2-1.2,3.5,0.1,5,0.9
	c11.2,6.1,22.6,11.7,34,17.5C67.3,132.3,69.2,132.6,68.9,134.9z"/>
<path class="st15" d="M206,98.2c0.4,0.3,0.7,0.5,1.1,0.8c-10.2,4.8-20.7,8.7-31.2,12.7c-0.4-0.3-0.7-0.6-1.1-0.9
	c0-1.7,1.3-2.3,2.5-2.7c8.6-3.4,17.2-7,25.9-10.1C204.1,97.6,205.1,97.3,206,98.2z"/>
<path class="st16" d="M46,47.9c-0.3-0.3-0.6-0.6-0.8-0.9c6.6-8.1,13.1-16.2,19.7-24.3c0.4,0.4,0.7,0.8,1.1,1.2c0.8,2-0.9,3-1.9,4.2
	c-4.7,5.8-9.3,11.7-14.2,17.3C48.8,46.6,48.1,48.4,46,47.9z"/>
<path class="st17" d="M155,25.9c-0.3,0.3-0.7,0.6-1,0.8c-0.7,0.6-1.6,0.5-2.3,0.1c-6.9-3.8-13.7-7.8-20.2-12.2
	c-0.6-0.4-0.8-1-0.6-1.7c0.3-0.3,0.6-0.6,0.9-0.8C139.8,16.4,147.5,20.9,155,25.9z"/>
<path class="st18" d="M214.8,80c-1.5,1.5-0.4,3.4-1,5.1c-0.3-0.1-0.9-0.1-0.9-0.3c-1.9-6.9-3.1-13.8-0.8-20.9c1-0.9,0.7-2.2,1-3.3
	C214.5,67,214.4,73.5,214.8,80z"/>
<path class="st19" d="M113.1,138.9c-1.2-5.8-2.2-11.7-2.2-17.7c-0.4-2.1-1.2-4.5,1.8-5.3c3.2-0.8,6.4-0.7,8.1,3
	c1.7,7.3,3.4,14.7,5.1,22C121.7,139.4,117.5,138.7,113.1,138.9z"/>
<path class="st20" d="M92.9,139.1c-5.3-5.6-7.1-12.4-5.6-22.5c2.2,8.7,6.8,14.6,11.8,20.3C97.3,138.5,94.4,137,92.9,139.1z"/>
<path class="st21" d="M16.2,96C21.6,86,27,76,32.4,65.9c0.8-1.6,2.1-3.1,1.8-5c0.5,0.7,1.1,1.3,1.6,2c-5.3,9.9-10.6,19.8-15.9,29.7
	c-0.9,1.7-2.3,3.3-2.1,5.4C17.2,97.3,16.7,96.7,16.2,96z"/>
<path class="st22" d="M97.1,73.1c1.2-0.5,2.4-1.1,3.6-1.5c3.9-1.3,7.5-2.6,6.1-8c-0.7-2.8,3.6-4.5,1.9-7.6c0.4-0.5,0.9-0.5,1.4-0.1
	c2.2-0.4,4.5-0.7,6.7-1.3c3.9-1,1.4-4.5,2.4-6.6c0.3,0.7,0.7,1.5,1,2.2c-1.3,4.4,2.5,5.6,4.8,7.8c0.9,0.7,2.4,0.5,2.9,1.9
	c1.3,3.7,1.4,7.9,5.3,10.2c-0.1,0.8-0.4,1.4-1.4,1c-2.9-1.3-5.5-1.5-7.5,1.8c-0.9,1.5-2.8,2.5-4.7,2.4c-4.6-0.1-5.1,2.8-5,6.3
	c0.1,4.1,0.1,8.2,0.1,12.3c-2.2-0.2-1.7-2.1-2-3.4c-0.3-1.6-0.2-3.3-1.6-4.5c0.3-1.4,0.7-2.9,0.8-4.3c0-2.4,3.3-4.6,0.6-7.1
	c-3.2-3-6.5-4.8-10.7-1.7c-1,0.7-2.4,0.9-3.7,1.3C97,74.5,96.9,74,97.1,73.1z"/>
<path class="st23" d="M72,24.7C75.6,39,78.2,53.5,80.8,68c-0.6,0.6,0,2.3-1.8,2c-1.1-12.1-4.6-23.8-6.5-35.8
	c-0.4-2.5-0.9-4.9-1.4-7.3C71.5,26.1,71.7,25.4,72,24.7z"/>
<path class="st24" d="M110.1,55.8c-0.5,0-0.9,0.1-1.4,0.1c-10.6-9.6-21-19.6-30.9-30c0.5-0.1,1-0.1,1.4-0.2
	C89.8,35.5,100.2,45.4,110.1,55.8z"/>
<path class="st25" d="M119.1,40.2c-0.1-1.8-0.2-3.5-1.3-5.2c-1.5-2.3-1.2-4.4,2-5.1C119.9,33.4,120.2,36.9,119.1,40.2z"/>
<path class="st26" d="M45,67.8c5.8,11.8,10.6,24.1,15.7,36.2c-0.2,0.5-0.3,1.1-0.9,1.2C54.6,93,49.4,80.9,44.2,68.8
	C44.5,68.5,44.8,68.1,45,67.8z"/>
<path class="st27" d="M72,74.8c-7.4-4.3-14.7-8.6-22.1-12.9c0.3-0.3,0.6-0.5,1-0.8c6,3.3,12.1,6.7,18.1,10c1.6,0.9,3,2.1,5,1.9
	C74.2,74.5,73.1,74.7,72,74.8z"/>
<path class="st28" d="M193.9,61.9c2.4,1.8,4.5,2.1,6.1-1c0.4,0,0.8,0.1,1.3,0.1c-2.2,5.5,0.9,9.5,3.5,13.8c2.3,3.8,6,7.1,5.9,12.1
	c-0.2,0.3-0.5,0.6-0.7,0.9c-2.3,0.5-2.6-1.6-3.4-2.9c-2.3-3.6-4.7-7.2-6.9-11c-1.9-3.4-3.3-2.8-5.2,0c-5.4,8.4-10.7,16.8-16.1,25.1
	c-2.1,3.2-3.3,7.3-7.3,9c-0.4-0.7-0.8-1.4-1.1-2.1c2.5-6.6,7.2-11.9,10.7-17.8c3.4-5.7,7.6-10.8,10.3-16.7c-1-1.3-2-0.8-2.9-0.5
	c-9.5,2.3-19,4.8-28.4,7.5c-5.3,1.5-5.3,2.3-3.6,7.5c1.3,3.9,4.6,7.4,3.5,12c-0.3,0.4-0.5,0.7-0.8,1.1c-1.3-2.8-2.9-5.6-3.8-8.6
	c-2.4-8.2-7.7-13.3-15.7-15.9c-2.6-0.9-5.1-2.3-7.6-3.5c0.4-0.3,0.7-0.5,1.1-0.8c4,1.6,7.9,3.1,11.9,4.8c3.6,1.6,5.9,0.4,7.4-3
	c1.8,0,1.3,1.1,0.9,2c0.8,2.4,2.4,2.6,4.7,2c10.2-2.8,20.4-5.5,30.6-8.1c3.3-0.8,3.3-3.5,4.2-5.8C193,62,193.4,62,193.9,61.9z"/>
<path class="st29" d="M153.9,39.9c-9,6.7-18,13.4-26.9,20.1c-0.7-0.7-1.4-1.3-2.1-2c2.1,0.6,3.4-1,4.8-2
	c7.8-5.6,15.5-11.2,23.3-16.8C153.3,39.4,153.6,39.6,153.9,39.9z"/>
<path class="st30" d="M153,74c-0.3-0.7-0.6-1.3-0.9-2c2.8-10.4,5.2-21,8.8-31.2c0.3,0.6,0.5,1.3,0.8,1.9
	C158.8,53.2,155.9,63.6,153,74z"/>
<path class="st31" d="M59.8,105.1c0.3-0.4,0.6-0.8,0.9-1.2c4,9.3,8.1,18.7,12.1,28c-0.6,0.7-1.2,1.3-1.9,2
	c-1.5-7.6-5.7-14.3-8.3-21.5C61.8,110,60.8,107.6,59.8,105.1z"/>
<path class="st32" d="M76.1,123c1-8,2.1-16,3.1-24c1.8,0.2,1,1.3,0.8,2.2c-0.5,7.6-1.2,15.2-3.1,22.7
	C76.7,123.6,76.4,123.3,76.1,123z"/>
<path class="st33" d="M111.2,85.9c2.1-0.2,2.8,0.9,2.8,2.9c0,1.7-0.6,3.5,0.8,5c0.6,4.5,1.1,9.1,2.8,13.9c4.2-3.2,6.5-7.3,9.1-12.3
	c1,4.6-1.3,7.2-2.6,10.1c-2,4.3-5.4,8.2-3.3,13.5c-5.5-3.7-9.2-2.8-9.9,2.3C109,109.4,109.1,97.7,111.2,85.9z"/>
<path class="st12" d="M80.1,101.2c-0.3-0.7-0.5-1.5-0.8-2.2c0.2-1.6,0.4-3.3,0.6-4.9c0.4-3.1,0.5-5.3-3.4-6.8
	c-5.4-2.1-5.2-7.5-4.4-12.4c0.7-0.6,1.3-1.2,2-1.8c1.2-1.8,3.1-2.5,5.1-3.1c0.6-0.7,1.2-1.3,1.8-2c3.2,2.8,7.7,3.8,10,7.8
	c1-0.5,1.2,0.1,1.1,0.9c-2.1,1.7-0.7,4.4-2.1,6.4c-0.7,0.9-1.1,2.4-2,2.7c-7.1,2.4-6.4,8.6-7.1,14.1
	C80.6,100.3,80.3,100.8,80.1,101.2z"/>
<path class="st34" d="M91.9,76.7c-0.4-0.3-0.7-0.6-1.1-0.9c1.9-1.4,4.1-2.1,6.3-2.7c0.4,0.3,0.7,0.6,1.1,0.9
	C96.3,75.5,94,76.1,91.9,76.7z"/>
</svg>
