<?xml version="1.0" encoding="utf-8"?>
<!-- Generator: Adobe Illustrator 16.0.0, SVG Export Plug-In . SVG Version: 6.00 Build 0)  -->
<!DOCTYPE svg PUBLIC "-//W3C//DTD SVG 1.1//EN" "http://www.w3.org/Graphics/SVG/1.1/DTD/svg11.dtd">
<svg version="1.1" id="Layer_1" xmlns="http://www.w3.org/2000/svg" xmlns:xlink="http://www.w3.org/1999/xlink" x="0px" y="0px"
	 width="223.911px" height="262.709px" viewBox="0 0 223.911 262.709" enable-background="new 0 0 223.911 262.709"
	 xml:space="preserve">
<g>
	<path fill-rule="evenodd" clip-rule="evenodd" fill="#287673" d="M139.056,143.119c-4.721,4.611-5.361,10.929-7.033,16.814
		c-1.824,1.527-3.953,1.4-6.105,1.121c-6.031-0.781-12.072-1.477-18.146-1.824c-0.755-1.806-1.477-3.627-2.271-5.415
		c-2.378-5.352-5.919-8.783-12.31-9.13c-3.896-0.212-8.264-0.261-11.213-3.806c0.183-0.167,0.365-0.334,0.547-0.503
		c3.889-1.017,7.704,1.048,11.439,0.272c-1.1-0.082-1.469-0.875-1.449-1.986c1.313-2.546,3.86-2.043,6.033-2.464
		c6.128,2.637,10.402,7.495,14.547,11.916c0.237-3.001-2.748-6.446,0.249-9.844c4.29-1.349,8.274-0.212,12.192,1.464
		c1.754,2.741,3.686,3.396,6.092,0.653c0.648-0.739,1.67-1.038,2.727-0.928C136.263,140.241,139.067,139.876,139.056,143.119z"/>
	<path fill-rule="evenodd" clip-rule="evenodd" fill="#196974" d="M107.771,159.23c2.215-2.373,4.982-1.333,7.498-1.011
		c5.572,0.714,11.111,1.686,16.754,1.714c0.281,6.998,0.563,13.996,0.844,20.994c-1.404,1.295-3.061,0.99-4.699,0.727
		c-1.797-0.291-3.598-0.538-5.389-0.86c-4.916-0.884-9.813-1.676-12.585,4.073C110.493,176.216,109.52,167.687,107.771,159.23z"/>
	<path fill-rule="evenodd" clip-rule="evenodd" fill="#0D5E75" d="M110.193,184.867c-0.036-6.265,3.358-7.209,8.704-6.022
		c4.584,1.018,9.307,1.413,13.969,2.083c1.012,5.176,2.025,10.352,3.094,15.802c-9.258,0-18.299,0-27.477,0
		C109.068,192.671,109.631,188.769,110.193,184.867z"/>
	<path fill-rule="evenodd" clip-rule="evenodd" fill="#3D8971" d="M25.848,113.979c-2.552-1.373-4.408-1.277-6.724,1.173
		c-4.482,4.743-12.325,4.062-16.337-0.841c-4.105-5.018-3.809-12.873,1.787-15.721c5.034-2.561,5.928-5.742,5.246-10.443
		c-0.398-0.986-0.567-1.91,0.666-2.447c2.133,0.988,1.537,3.03,1.706,4.699c0.252,2.507,1.032,4.453,3.827,4.908
		c1.165,0.309,2.013,1.118,2.931,1.821c2.833,2.05,4.523,5.024,4.689,8.302c0.164,3.24,1.636,5.438,3.604,7.608
		C27.107,113.843,26.838,114.448,25.848,113.979z"/>
	<path fill-rule="evenodd" clip-rule="evenodd" fill="#8DC86D" d="M64.822,22.691c-2.976-2.726-4.208-5.828-0.872-8.943
		c2.99-2.793,6.156-2.075,8.578,1.003c1.394,1.771,2.927,1.149,4.479,0.835c11.189-2.266,22.371-4.571,33.551-6.88
		c2.282-0.472,4.045-1.042,4.707-4.028c0.752-3.391,3.758-5.076,7.295-4.597c3.709,0.501,6.359,2.935,6.168,6.633
		c-0.152,2.945,1.143,4.153,3.16,5.37c0.037,1.083-0.721,1.303-1.555,1.446c-5.637,0.511-7.09,1.772-6.934,7.45
		c0.227,8.187-1.508,16.255-1.148,24.438c0.076,1.742,0.209,3.775-1.959,4.714c-1.197-0.401-1.736-1.378-2.172-2.452
		c-0.729-2.526-0.605-5.07-0.168-7.621c1.076-3.129,0.432-6.381,0.643-9.565c0-2.982,0.283-5.937,0.723-8.899
		c1.074-7.235-3.006-11.107-10.072-9.689c-9.587,1.924-19.213,3.659-28.73,5.921c-5.141,1.222-5.146,1.196-2.051,5.558
		c0.39,0.549,0.652,1.148,0.786,1.804c-0.003,0.505-0.228,0.884-0.666,1.134c-1.823,0.443-2.937-0.766-4.095-1.811
		c-1.354-1.221-1.4-0.079-1.594,0.85c-0.268,0.91-0.637,1.714-1.742,1.791c-1.444-1.881-3.447-2.592-5.728-2.727
		C64.792,23.997,64.361,23.498,64.822,22.691z"/>
	<path fill-rule="evenodd" clip-rule="evenodd" fill="#61A86E" d="M10.726,85.905c-0.302,0.747-0.604,1.494-0.906,2.241
		c-1.445-4.021-0.592-8.253-1.131-12.359c-0.301-2.296-0.363-4.296-3.21-5.501c-3.072-1.3-3.464-4.438-1.909-7.255
		c1.593-2.888,4.611-4.016,7.188-2.028c2.968,2.287,5.357,1.479,8.166,0.322c2.299-0.947,4.674-1.736,7.066-2.42
		c3.009-0.859,5.172-1.695,5.115-5.846c-0.063-4.609,5.118-7.714,9.776-6.825c1.414,0.271,2.643,1.583,4.252,0.771
		c0.832-0.195,1.286,0.308,1.691,0.906c1.115,2.518,2.287,5.063,1.875,7.906c-0.338,2.339,1.707,3.341,2.512,5.028
		c0.068,0.809-0.338,1.292-1.063,1.56c-4.945-0.618-4.945-0.618-4.591,5.693c-0.315,0.689-0.8,1.119-1.611,1.035
		c-2.08-2.93-4.18-5.833-8.339-5.759c-1.138-0.333-1.976-1.185-3-1.714c-10.943-0.859-24.262,5.83-20.883,19.248
		C12.154,82.614,12.602,84.553,10.726,85.905z"/>
	<path fill-rule="evenodd" clip-rule="evenodd" fill="#80C070" d="M154.981,25.901c2.23,0.911,4.174,2.596,6.982,1.636
		c1.348-0.461,3.393,0.054,3.959,1.421c1.652,3.979,5.336,4.035,8.568,4.898c9.268,2.477,18.584,4.771,27.848,7.263
		c1.998,0.538,3.605,0.874,5.561-0.472c2.32-1.596,4.857-1.048,6.611,1.235c1.551,2.022,1.764,4.153-0.115,6.312
		c-3.297,3.787-0.523,8.295-1.283,12.4c0.281,1.221,0.811,2.475-0.469,3.482c-2.49-0.715-1.711-2.889-1.885-4.523
		c-0.242-2.281-0.35-4.555-1.428-6.955c-3.527,2.523-4.006,7.33-8.029,8.857c-0.479,0.021-0.928-0.087-1.35-0.318
		c-0.904-3.283,1.693-5.18,3.096-7.479c3.313-5.436,2.174-8.731-3.816-10.411c-4.807-1.348-9.609-2.715-14.465-3.882
		c-4.678-1.124-9.346-2.289-14.799-3.852c6.992,7.376,13.779,13.831,20.307,20.537c1.586,1.628,3.719,2.93,3.939,5.552
		c-0.225,0.436-0.578,0.713-1.053,0.836c-2.281,0.01-3.504-1.717-4.891-3.086c-5.672-5.596-11.281-11.254-16.918-16.885
		c-5.426-5.421-5.426-5.42-9.5,0.664c-1.184,0.003-1.555-0.848-1.865-1.766c-1.207-5.395-4.09-0.16-6.02-0.941
		c-0.75-0.156-1.227-0.578-1.318-1.37c0.277-1.358,1.414-2.106,2.195-3.116c2.631-3.402,1.01-6.299-1.178-9.106
		C153.78,26.061,153.999,25.438,154.981,25.901z"/>
	<path fill-rule="evenodd" clip-rule="evenodd" fill="#459070" d="M175.864,111.684c-1.676,0.938-3.529,1.323-4.695,3.33
		c-4.156,7.161-8.736,8.059-16.158,3.396c-1.199,0.881-0.547,2.451-1.186,3.514c-0.898,0.789-1.857,0.852-2.873,0.246
		c0.924-6.949-1.152-14.777,5.906-19.939c0.984-0.719,1.006-2.049,1.316-3.16c0.27-0.723,0.697-1.275,1.518-1.4
		c2.721,3.678,7.854,3.949,10.656,7.522c0.615,0.704,1.102,1.488,1.41,2.375c0.287,1.734,1.264,2.682,3.072,2.679
		C175.491,110.498,176.026,110.842,175.864,111.684z"/>
	<path fill-rule="evenodd" clip-rule="evenodd" fill="#18526B" d="M205.251,223.656c10.59-0.019,18.584,8.196,18.66,19.176
		c0.076,11.107-8.195,19.747-18.824,19.661c-10.488-0.085-18.217-8.385-18.223-19.569
		C186.86,231.72,194.536,223.675,205.251,223.656z"/>
	<path fill-rule="evenodd" clip-rule="evenodd" fill="#18526B" d="M57.864,242.727c0.055-11.144,7.84-19.135,18.582-19.071
		c10.557,0.061,18.496,8.392,18.465,19.371c-0.033,11.114-8.424,19.7-19.02,19.464C65.366,262.255,57.809,253.97,57.864,242.727z"/>
	<path fill-rule="evenodd" clip-rule="evenodd" fill="#18526B" d="M154.55,226.146c-2.059,1.59-4.008,0.561-6.012,0.16
		c-9.65-1.931-16.73,1.041-20.313,8.477c-3.484,7.23-1.672,16.189,4.359,21.377c5.836,5.02,12.496,4.404,19.344,2.881
		c2.146-0.477,1.912-1.937,1.92-3.408c0.02-3.496-0.008-6.992,0.031-10.486c0.012-0.926-0.162-2.231,1.35-2.035
		c1.021,0.133,0.914,1.215,0.918,2.006c0.021,4.161-0.043,8.324,0.041,12.483c0.031,1.554-0.633,2.411-1.928,3.114
		c-8.111,4.41-21.553,1.189-27-6.51c-5.793-8.191-4.371-20.162,3.414-26.6C138.192,221.39,146.435,223.656,154.55,226.146z"/>
	<path fill-rule="evenodd" clip-rule="evenodd" fill="#378374" d="M151.104,121.93c0.906-0.002,1.813-0.004,2.721-0.006
		c-0.074,3.785-2.643,6.669-3.879,10.219c3.584,0.414,6.623-0.725,10.24-2.713c-1.822,3.794-4.66,4.771-7.336,5.474
		c-5.445,1.429-10.15,3.871-13.795,8.215c-1.045-2.131-3.801-1.565-5.127-3.253c-0.445-1.633,0.748-2.44,1.783-3.148
		c5.332-3.649,9.682-8.25,13.402-13.491C149.591,122.552,150.229,122.038,151.104,121.93z"/>
	<path fill-rule="evenodd" clip-rule="evenodd" fill="#2A5971" d="M32.823,261.947c-5.951,0-11.903-0.043-17.854,0.023
		c-1.942,0.021-2.066-1.082-2.063-2.553c0.022-11,0.002-22,0.033-33c0.002-0.888-0.332-2.276,1.131-2.264
		c1.746,0.015,1.408,1.592,1.413,2.652c0.044,9.332,0.231,18.672-0.061,27.996c-0.126,4.02,1.154,5.111,5.054,4.99
		c4.096-0.128,8.366-0.91,12.373,0.58C32.84,260.897,32.832,261.421,32.823,261.947z"/>
	<path fill-rule="evenodd" clip-rule="evenodd" fill="#569F6F" d="M214.813,80.006c0.566,4.389-0.467,9.031,4.043,12.488
		c2.387,1.828,1.633,5.217-0.447,7.563c-2.135,2.408-4.838,2.474-7.67,1.293c-1.359-0.566-1.975-2.284-3.652-2.353
		c-0.871,0.538-1.229-0.009-1.514-0.711c-0.514-4.127,2.914-6.836,3.771-10.474c0.252-0.657,0.693-1.108,1.398-1.262
		c1.912,0.178,1.975-1.129,1.965-2.488C213.069,82.53,212.267,80.391,214.813,80.006z"/>
	<path fill-rule="evenodd" clip-rule="evenodd" fill="#347E76" d="M81.978,140.879c-0.652,0.022-1.389-0.146-1.943,0.096
		c-7.607,3.333-8.016,3.175-11.281-4.613c-0.113-0.27-0.475-0.436-0.719-0.65c-0.289-0.688,0.11-1.119,0.566-1.531
		c0.63-0.484,1.318-0.889,1.939-1.388c0.768-0.671,1.482-1.395,2.226-2.09c1.858-2.304,1.136-5.606,3.056-7.884
		c0.796-0.266,1.315,0.12,1.741,0.732c0.669,1.377,1.107,2.893,0.733,4.343c-0.555,2.144-0.258,3.689,1.513,5.253
		c2.294,2.027,2.239,4.977,2.124,7.813L81.978,140.879z"/>
	<path fill-rule="evenodd" clip-rule="evenodd" fill="#539286" d="M68.94,134.922c-0.303,0.263-0.604,0.525-0.906,0.789
		c-14.21-6.958-28.376-13.998-42.187-21.732c0.355-0.281,0.711-0.562,1.066-0.842c1.956-1.234,3.541,0.123,5.027,0.939
		c11.172,6.135,22.617,11.734,33.974,17.509C67.255,132.267,69.228,132.647,68.94,134.922z"/>
	<path fill-rule="evenodd" clip-rule="evenodd" fill="#64A381" d="M205.985,98.174c0.367,0.274,0.734,0.549,1.102,0.823
		c-10.191,4.761-20.707,8.72-31.223,12.687c-0.355-0.287-0.713-0.573-1.068-0.859c-0.012-1.666,1.271-2.279,2.475-2.748
		c8.643-3.375,17.199-6.966,25.932-10.109C204.112,97.639,205.118,97.327,205.985,98.174z"/>
	<path fill-rule="evenodd" clip-rule="evenodd" fill="#87C181" d="M45.96,47.929c-0.275-0.308-0.551-0.616-0.826-0.925
		c6.563-8.104,13.126-16.208,19.689-24.313c0.357,0.4,0.717,0.801,1.075,1.201c0.789,2.026-0.904,3.033-1.87,4.23
		c-4.688,5.807-9.27,11.701-14.234,17.277C48.767,46.555,48.126,48.444,45.96,47.929z"/>
	<path fill-rule="evenodd" clip-rule="evenodd" fill="#98CE81" d="M154.981,25.901c-0.33,0.277-0.66,0.555-0.99,0.832
		c-0.727,0.627-1.576,0.544-2.293,0.146c-6.887-3.82-13.688-7.784-20.191-12.236c-0.578-0.396-0.775-1.02-0.559-1.725
		c0.313-0.278,0.627-0.557,0.939-0.835C139.769,16.383,147.536,20.874,154.981,25.901z"/>
	<path fill-rule="evenodd" clip-rule="evenodd" fill="#83BB89" d="M214.813,80.006c-1.49,1.469-0.35,3.448-0.986,5.083
		c-0.32-0.086-0.855-0.124-0.904-0.306c-1.863-6.905-3.066-13.846-0.787-20.909c1.035-0.882,0.664-2.181,0.975-3.279
		C214.452,66.997,214.411,73.522,214.813,80.006z"/>
	<path fill-rule="evenodd" clip-rule="evenodd" fill="#FFFFFF" d="M151.104,121.93c-4.031,7.6-10.773,12.604-17.176,17.936
		c-2.525,1.013-3.807,3.521-6.393,5.344c-0.617-1.516-1.188-2.913-1.756-4.311c-4.166-6.471-4.076-14.168-6.148-21.238
		c-2.355-7.58,2.902-12.901,5.625-19.182c-0.027-0.221,0.008-0.078-0.279,0.384c-1.836,2.964-3.787,7.276-7.246,6.737
		c-3.537-0.553-2.568-5.488-3.506-8.516c-0.592-1.908-0.604-3.941-0.621-5.953c0.082-4.479-0.123-8.947,0.002-13.419
		c0.08-2.851,1.273-4.669,4.09-5.441c2.41-0.659,4.721-1.603,6.531-3.421c2.164-2.174,4.602-2.379,7.281-1.139
		c2.762,1.504,5.668,2.772,8.639,3.724c12.51,4.007,16.549,14.089,18.734,25.586c0.672,2.121,0.807,3.741-1.826,4.966
		c-2.867,1.332-4.379,4.135-4.131,7.33C153.214,115.063,152.271,118.491,151.104,121.93z"/>
	<path fill-rule="evenodd" clip-rule="evenodd" fill="#FFFFFF" d="M81.933,140.959c-1.729-5.666-6.527-10.433-4.99-17.054
		c-0.936-7.606,1.751-14.893,1.959-22.396c0.641-1.891,0.654-3.867,0.831-5.833c0.362-4.044,1.29-7.754,5.427-9.823
		c3.803-1.902,3.658-6.43,5.865-9.424c2.07-1.69,4.779-2.104,7.001-3.504c2.083-0.979,4.22-1.855,6.409-2.512
		c5.627-1.686,10.41,2.664,9.488,8.443c-0.439,2.752-1.432,5.395-1.563,8.206c-1.382,11.194-1.225,22.401-0.406,33.614
		c0.461,4.361,1.045,8.709,1.607,13.061c0.229,1.752,0.721,3.553-0.472,5.186c-0.571,4.152,1.665,7.955,1.511,12.453
		c-5.268-5.012-9.882-10.34-15.555-14.5c-6.816-3.826-9.453-10.377-11.35-15.714c0.069,5.288,1.757,11.849,5.154,17.96
		c0.268,0.996,2.826,2.697-0.682,2.571C88.752,141.573,85.345,141.213,81.933,140.959z"/>
	<path fill-rule="evenodd" clip-rule="evenodd" fill="#348272" d="M113.09,138.924c-1.243-5.844-2.185-11.725-2.242-17.717
		c-0.437-2.123-1.241-4.529,1.792-5.293c3.248-0.818,6.363-0.662,8.072,2.982c1.689,7.334,3.379,14.668,5.068,22.002
		C121.681,139.398,117.456,138.709,113.09,138.924z"/>
	<path fill-rule="evenodd" clip-rule="evenodd" fill="#358174" d="M92.851,139.124c-5.268-5.625-7.125-12.424-5.591-22.547
		c2.199,8.667,6.794,14.609,11.786,20.301C97.294,138.491,94.421,137.011,92.851,139.124z"/>
	<path fill-rule="evenodd" clip-rule="evenodd" fill="#FFFFFF" d="M68.94,134.922c-13.779-7.705-27.883-14.783-42.026-21.785
		c-2.64-1.365-4.94-2.416-4.324-6.534c0.511-3.414-1.545-6.683-4.825-8.646c-0.549-1.639-0.627-3.279,0.258-4.812
		c5.465-9.473,10.188-19.358,15.917-28.685c0.448-0.729,1.127-1.201,1.863-1.602c5.461-1.742,6.937,2.105,8.393,5.982
		c3.502,2.754,4.066,7.115,5.735,10.82c3.746,8.318,7.207,16.768,10.908,25.11c2.967,7.222,6.078,14.381,9.19,21.539
		c1.062,2.441,2.247,4.873,1.015,7.622C70.343,134.264,69.642,134.592,68.94,134.922z"/>
	<path fill-rule="evenodd" clip-rule="evenodd" fill="#FEFEFE" d="M10.726,85.905c-0.163-2.137-0.272-4.279-0.496-6.41
		c-0.978-9.289,2.018-14.077,10.769-17.115c2.496-0.865,5.123-1.461,7.466-2.631c2.401-1.199,4.047-0.396,5.72,1.14
		c0.712,1.892,0.059,3.556-0.862,5.177c-5.208,9.179-10.087,18.537-15.144,27.799c-0.48,0.88-1.224,1.553-2.022,2.153
		c-3.437,1.122-4.799-0.461-4.956-3.735C11.1,90.154,10.888,88.03,10.726,85.905z"/>
	<path fill-rule="evenodd" clip-rule="evenodd" fill="#69A782" d="M16.157,96.017c5.414-10.028,10.838-20.052,16.23-30.091
		c0.848-1.578,2.06-3.053,1.797-5.039c0.54,0.658,1.08,1.316,1.619,1.973C30.5,72.744,25.182,82.62,19.906,92.516
		c-0.917,1.722-2.284,3.293-2.141,5.441C17.229,97.31,16.693,96.664,16.157,96.017z"/>
	<path fill-rule="evenodd" clip-rule="evenodd" fill="#FFFFFF" d="M79.215,25.834c-1.247-1.326-2.542-2.613-3.726-3.996
		c-0.814-0.951-2.537-1.635-1.909-3.164c0.536-1.306,2.22-1.322,3.47-1.585c11.361-2.396,22.732-4.747,34.111-7.066
		c4.633-0.943,9.918,3.686,9.629,8.47c-0.229,3.814-0.648,7.617-0.984,11.424c-1.412,1.465-1.66,3.153-0.951,5.016
		c0.666,1.744,0.869,3.5,0.195,5.291c0.027,2.576,0.055,5.152,0.082,7.728c1.518,6.876,0.342,8.183-7.961,8.854
		c-1.195-0.145-2.17-0.758-3.003-1.58c-8.915-8.799-17.667-17.767-27.077-26.053C80.118,28.315,79.169,27.323,79.215,25.834z"/>
	<path fill-rule="evenodd" clip-rule="evenodd" fill="#FFFFFF" d="M130.948,12.918c7.436,5.015,15.176,9.52,23.043,13.814
		c5.27,3.581,4.961,7.496-0.977,12.375c-0.707,1.786-2.131,2.903-3.625,3.994c-6.037,4.404-12.121,8.744-18.066,13.273
		c-1.977,1.506-4.043,3.049-6.83,2.113c-3.873-1.51-6.58-3.635-4.369-8.332c1.332-10.508,1.52-21.089,2.07-31.646
		C122.481,13.008,125.985,10.809,130.948,12.918z"/>
	<path fill-rule="evenodd" clip-rule="evenodd" fill="#FFFFFF" d="M45.96,47.929c6.646-8.013,13.293-16.024,19.938-24.036
		c2.96-1.166,5.192-1.026,5.286,2.948c2.066,1.626,1.963,4.101,2.441,6.332c2.224,10.364,4.11,20.797,6.313,31.165
		c0.348,1.641,0.416,3.292-0.097,4.924c-1.097,2.469-3.433,3.305-5.661,4.285c-0.96,0.297-2.044,0.507-2.891,0.037
		c-6.979-3.867-14.553-6.767-20.42-12.455c-2.908-1.336-4.541-2.97-3.5-6.74C47.89,52.51,46.491,50.1,45.96,47.929z"/>
	<path fill-rule="evenodd" clip-rule="evenodd" fill="#FFFFFF" d="M72.032,24.743c0.08-0.945-0.195-2.326,0.316-2.742
		c0.939-0.766,1.523,0.594,2.188,1.137c1.114,0.91,2.162,1.9,3.237,2.856c4.59,2.831,7.895,7.114,11.738,10.747
		c6.764,6.389,13.785,12.536,20.059,19.445c0.813,4.172-1.049,8.059-2.077,11.791c-1.136,4.124-6.536,3.705-9.884,5.619
		c-2.256,1.09-4.679,1.75-6.983,2.722c-3.323-1.877-5.856-4.946-9.597-6.239c-0.932-0.321-0.997-1.574-1.074-2.56
		c-2.221-12.366-4.822-24.654-7.248-36.976C72.324,28.589,72.837,26.596,72.032,24.743z"/>
	<path fill-rule="evenodd" clip-rule="evenodd" fill="#61A86D" d="M97.053,73.11c1.213-0.51,2.399-1.101,3.644-1.516
		c3.865-1.287,7.504-2.639,6.107-7.994c-0.732-2.815,3.623-4.492,1.87-7.628c0.431-0.501,0.905-0.548,1.426-0.14
		c2.229-0.413,4.493-0.695,6.681-1.27c3.889-1.022,1.361-4.472,2.352-6.611c0.33,0.734,0.662,1.47,0.992,2.205
		c-1.342,4.42,2.535,5.618,4.814,7.803c0.947,0.665,2.396,0.547,2.93,1.865c1.289,3.65,1.43,7.9,5.328,10.195
		c-0.102,0.833-0.355,1.445-1.375,0.967c-2.947-1.346-5.475-1.527-7.5,1.756c-0.934,1.514-2.832,2.49-4.676,2.444
		c-4.637-0.116-5.078,2.756-4.99,6.301c0.102,4.113,0.059,8.23,0.078,12.346c-2.15-0.243-1.734-2.062-1.992-3.384
		c-0.312-1.592-0.166-3.313-1.564-4.52c0.268-1.446,0.734-2.89,0.758-4.34c0.037-2.394,3.303-4.562,0.594-7.101
		c-3.154-2.958-6.494-4.814-10.736-1.749c-1.012,0.73-2.446,0.876-3.687,1.291C97.044,74.536,96.911,73.979,97.053,73.11z"/>
	<path fill-rule="evenodd" clip-rule="evenodd" fill="#81BC80" d="M72.032,24.743c3.561,14.277,6.121,28.76,8.766,43.224
		c-0.623,0.616-0.008,2.343-1.752,1.954c-1.113-12.107-4.551-23.792-6.488-35.75c-0.396-2.453-0.912-4.887-1.373-7.329
		C71.467,26.141,71.749,25.442,72.032,24.743z"/>
	<path fill-rule="evenodd" clip-rule="evenodd" fill="#84C07D" d="M110.1,55.833c-0.476,0.047-0.95,0.094-1.426,0.14
		c-10.64-9.642-20.955-19.619-30.899-29.979c0.48-0.053,0.961-0.105,1.44-0.158C89.827,35.508,100.222,45.405,110.1,55.833z"/>
	<path fill-rule="evenodd" clip-rule="evenodd" fill="#FFFFFF" d="M119.05,40.223c-0.129-1.793-0.174-3.498-1.27-5.178
		c-1.527-2.337-1.246-4.445,2.025-5.129C119.901,33.377,120.224,36.856,119.05,40.223z"/>
	<path fill-rule="evenodd" clip-rule="evenodd" fill="#FFFFFF" d="M76.114,122.954c-0.381,2.391-0.843,4.771-1.112,7.174
		c-0.155,1.386-0.604,2.121-2.097,1.82c-4.064-4.729-5.191-10.895-7.871-16.304c-1.816-3.667-3.395-7.497-4.803-11.37
		c-5.082-12.158-10.979-23.98-15.186-36.504c-0.243-0.784-0.585-1.554-0.708-2.357c-0.22-1.438-2.189-2.654-0.216-4.406
		c1.826-1.621,2.991-0.25,4.404,0.406c0.447,0.209,0.925,0.354,1.389,0.527c7.941,3.936,16.065,7.563,22.856,13.467
		c0.394,5.072,1.494,9.656,6.552,12.392c1.957,1.06,1.584,3.312,1.295,5.37c-0.295,2.104-0.53,4.228-0.74,6.353
		C78.423,107.301,78.501,115.326,76.114,122.954z"/>
	<path fill-rule="evenodd" clip-rule="evenodd" fill="#68A582" d="M45.046,67.77c5.787,11.824,10.646,24.051,15.72,36.185
		c-0.202,0.481-0.274,1.063-0.933,1.185c-5.213-12.1-10.426-24.198-15.638-36.297C44.479,68.485,44.762,68.127,45.046,67.77z"/>
	<path fill-rule="evenodd" clip-rule="evenodd" fill="#73AF82" d="M72.009,74.819c-7.365-4.293-14.729-8.586-22.094-12.879
		c0.318-0.271,0.637-0.541,0.955-0.811c6.043,3.338,12.08,6.688,18.135,10.004c1.561,0.855,2.977,2.147,4.969,1.887
		C74.171,74.549,73.13,74.729,72.009,74.819z"/>
	<path fill-rule="evenodd" clip-rule="evenodd" fill="#FFFFFF" d="M161.692,42.784c0.264-0.953,0.447-1.938,0.809-2.852
		c1.635-4.148,3.549-4.578,6.646-1.459c7.793,7.85,15.559,15.727,23.334,23.592c1.08,3.438-0.307,5.832-4.521,7.096
		c-4.428,1.328-8.861,2.668-13.367,3.703c-5.318,1.223-10.488,2.985-15.813,4.17c-2.781,0.619-5.359,0.638-6.338-2.843
		c1.549-9.945,4.838-19.448,7.465-29.121C160.179,44.077,160.843,43.346,161.692,42.784z"/>
	<path fill-rule="evenodd" clip-rule="evenodd" fill="#FFFFFF" d="M132.874,70.181c-6.254-0.927-4.783-6.297-5.869-10.197
		c4.045-4.96,9.658-8.022,14.689-11.718c3.961-2.908,7.547-6.494,12.248-8.353c0.941-0.611,1.893-1.206,2.818-1.837
		c3.672-2.506,4.508-0.777,4.143,2.761c-1.816,10.646-5.531,20.81-7.961,31.3c-2.395,4.816-3.869,5.582-8.471,3.533
		C140.569,73.933,136.231,73.075,132.874,70.181z"/>
	<path fill-rule="evenodd" clip-rule="evenodd" fill="#FEFFFE" d="M193.919,61.924c-8.717-9.092-17.432-18.183-27.229-28.4
		c7.143,1.81,12.928,3.261,18.703,4.743c4.816,1.235,9.623,2.517,14.438,3.763c6.711,1.738,8.338,5.894,4.613,11.699
		c-1.518,2.366-2.936,4.795-4.398,7.195C198.392,65.174,197.444,65.329,193.919,61.924z"/>
	<path fill-rule="evenodd" clip-rule="evenodd" fill="#6BAC78" d="M193.919,61.924c2.385,1.764,4.541,2.135,6.127-1
		c0.422,0.039,0.844,0.076,1.266,0.114c-2.225,5.488,0.877,9.455,3.512,13.821c2.297,3.81,5.996,7.069,5.889,12.088
		c-0.242,0.292-0.482,0.583-0.723,0.874c-2.348,0.513-2.596-1.642-3.385-2.86c-2.34-3.615-4.74-7.205-6.85-10.955
		c-1.922-3.42-3.316-2.85-5.17,0.035c-5.373,8.363-10.691,16.762-16.133,25.079c-2.104,3.216-3.326,7.282-7.338,8.987
		c-0.383-0.688-0.768-1.377-1.15-2.064c2.545-6.555,7.172-11.865,10.703-17.831c3.355-5.667,7.59-10.808,10.34-16.735
		c-0.963-1.27-1.986-0.75-2.877-0.533c-9.512,2.32-18.982,4.795-28.379,7.533c-5.285,1.539-5.311,2.254-3.574,7.473
		c1.311,3.939,4.572,7.357,3.5,11.994c-0.266,0.359-0.529,0.719-0.795,1.078c-1.275-2.848-2.9-5.594-3.758-8.562
		c-2.375-8.235-7.68-13.31-15.705-15.948c-2.635-0.865-5.07-2.333-7.598-3.525c0.352-0.268,0.701-0.537,1.053-0.806
		c3.955,1.594,7.949,3.101,11.855,4.807c3.584,1.565,5.908,0.409,7.418-2.979c1.834-0.005,1.252,1.053,0.887,2.015
		c0.799,2.443,2.385,2.6,4.656,1.977c10.166-2.793,20.354-5.519,30.578-8.09c3.268-0.821,3.332-3.529,4.215-5.846
		C192.962,62.018,193.44,61.971,193.919,61.924z"/>
	<path fill-rule="evenodd" clip-rule="evenodd" fill="#FDFEFD" d="M210.712,86.948c-3.029-5.056-5.734-10.35-9.193-15.094
		c-2.811-3.854-3.293-7.143-0.209-10.816c2.123-3.129,4.248-6.256,6.361-9.391c0.555-0.82,1.037-1.803,2.26-1.508
		c1.258,0.303,1.152,1.459,1.238,2.4c0.348,3.776,0.648,7.557,0.967,11.335c0.57,7.071,0.246,14.213,1.691,21.214
		c-0.326,1.234,0.715,2.963-0.602,3.676C211.849,89.512,211.589,87.553,210.712,86.948z"/>
	<path fill-rule="evenodd" clip-rule="evenodd" fill="#84BF81" d="M153.942,39.914c-8.979,6.69-17.957,13.38-26.938,20.07
		c-0.689-0.675-1.377-1.349-2.066-2.024c2.148,0.639,3.361-1.01,4.781-2.027c7.783-5.582,15.533-11.212,23.295-16.825
		C153.323,39.375,153.634,39.645,153.942,39.914z"/>
	<path fill-rule="evenodd" clip-rule="evenodd" fill="#8CC18A" d="M153.034,74.024c-0.295-0.672-0.592-1.343-0.887-2.015
		c2.818-10.419,5.205-20.958,8.756-31.172c0.262,0.648,0.525,1.298,0.789,1.946C158.806,53.197,155.919,63.611,153.034,74.024z"/>
	<path fill-rule="evenodd" clip-rule="evenodd" fill="#FFFFFF" d="M159.677,97.944c-1.811-4.615-3.553-9.258-5.455-13.835
		c-1.381-3.326-0.451-5.325,3.018-6.257c10.703-2.879,21.395-5.797,32.098-8.673c1.273-0.343,2.664-0.735,3.748,0.394
		c0.736,0.766,0.088,1.547-0.357,2.205c-7.678,11.362-14.352,23.392-22.764,34.266c-1.506-1.553-2.961-3.236-5.344-3.328
		C161.513,102.596,160.546,100.339,159.677,97.944z"/>
	<path fill-rule="evenodd" clip-rule="evenodd" fill="#FFFFFF" d="M171.114,108.108c7.75-11.955,15.574-23.862,23.205-35.893
		c2.285-3.603,3.615-3.986,5.869,0.102c2.947,5.346,6.504,10.353,9.801,15.505c0.211,0.606,0.77,1.594,0.584,1.763
		c-2.564,2.334-2.838,5.855-4.588,8.59c-10.473,4.03-21.039,7.824-31.189,12.65C172.356,111.561,170.495,111.514,171.114,108.108z"
		/>
	<path fill-rule="evenodd" clip-rule="evenodd" fill="#FFFFFF" d="M221.026,243.02c-0.004,10.198-6.529,17.155-15.994,17.056
		c-9.1-0.098-15.498-7.174-15.486-17.123c0.012-10.166,6.57-17.136,16.047-17.051C214.681,225.984,221.03,233.026,221.026,243.02z"
		/>
	<path fill-rule="evenodd" clip-rule="evenodd" fill="#FFFFFF" d="M92.026,243.034c-0.008,10.194-6.538,17.146-16.008,17.041
		c-9.093-0.101-15.492-7.188-15.474-17.136c0.021-10.171,6.575-17.125,16.062-17.036C85.688,225.988,92.034,233.037,92.026,243.034z
		"/>
	<path fill-rule="evenodd" clip-rule="evenodd" fill="#569584" d="M59.833,105.139c0.311-0.396,0.621-0.79,0.933-1.185
		c4.046,9.331,8.093,18.663,12.14,27.993c-0.62,0.662-1.24,1.324-1.861,1.986c-1.537-7.645-5.746-14.252-8.35-21.483
		C61.81,109.989,60.79,107.575,59.833,105.139z"/>
	<path fill-rule="evenodd" clip-rule="evenodd" fill="#478E78" d="M76.114,122.954c1.046-7.987,2.093-15.975,3.139-23.961
		c1.82,0.186,1.006,1.324,0.811,2.238c-0.535,7.629-1.211,15.236-3.121,22.675C76.666,123.588,76.39,123.271,76.114,122.954z"/>
	<path fill-rule="evenodd" clip-rule="evenodd" fill="#479171" d="M111.177,85.93c2.08-0.158,2.766,0.881,2.779,2.867
		c0.012,1.689-0.566,3.533,0.777,5.037c0.586,4.543,1.129,9.097,2.766,13.87c4.16-3.153,6.506-7.288,9.117-12.331
		c0.988,4.591-1.27,7.189-2.621,10.058c-2.006,4.261-5.383,8.199-3.283,13.466c-5.496-3.705-9.172-2.845-9.864,2.309
		C109.046,109.43,109.133,97.671,111.177,85.93z"/>
	<path fill-rule="evenodd" clip-rule="evenodd" fill="#569F6F" d="M80.063,101.231c-0.27-0.746-0.539-1.492-0.811-2.238
		c0.203-1.638,0.386-3.277,0.612-4.912c0.425-3.07,0.492-5.277-3.448-6.834c-5.436-2.146-5.171-7.462-4.408-12.428
		c0.654-0.6,1.311-1.199,1.965-1.799c1.229-1.791,3.133-2.473,5.072-3.1c0.584-0.652,1.168-1.303,1.752-1.954
		c3.158,2.819,7.727,3.839,9.984,7.81c1.045-0.465,1.221,0.055,1.072,0.943c-2.071,1.668-0.746,4.445-2.078,6.352
		c-0.66,0.947-1.146,2.441-2.03,2.738c-7.101,2.384-6.386,8.552-7.101,14.064C80.585,100.344,80.265,100.78,80.063,101.231z"/>
	<path fill-rule="evenodd" clip-rule="evenodd" fill="#7DB48C" d="M91.854,76.719c-0.357-0.314-0.715-0.629-1.072-0.943
		c1.852-1.449,4.059-2.064,6.271-2.666c0.351,0.307,0.702,0.614,1.053,0.922C96.276,75.518,94.048,76.081,91.854,76.719z"/>
</g>
</svg>
