<?xml version="1.0" encoding="UTF-8"?>
<svg viewBox="0 0 673.22833 581.10236" xmlns="http://www.w3.org/2000/svg">
 <g transform="translate(-50.749 -229.8)">
  <path d="m593.31 498.28h-0.23172l-2.7814-5.215h-0.1159l-83.789-152.16h-237.92l-0.81125 1.6225-85.643 155.76h0.23181-0.23181s0 0.1159 0.1159 0.23181l-0.1159 0.1159h0.34771c5.3309 5.9104 83.441 88.193 172.33 0h0.34771l-0.1159-0.23181c0.1159 0 0.1159 0 0.1159-0.1159h-0.1159l-1.7383-3.3608-1.0431-1.8542h-0.1159l-80.544-146.49 0.11591-0.23172h110.56c0 0.69534-0.81125 11.473-14.602 182.99-0.92706 23.758-11.01 31.522-18.89 33.956h-87.845c-7.417 0-13.327 5.5627-13.327 12.4s5.9104 12.284 13.327 12.284h256c7.3011 0 13.327-5.4468 13.327-12.284s-6.0264-12.4-13.327-12.4h-90.047c-7.9965-2.3177-18.195-10.198-19.122-33.956-13.675-171.52-14.486-182.3-14.602-182.99h110.21l-80.776 146.72-2.7814 5.215h0.11581-0.23172l0.11591 0.1159-0.11591 0.23181h0.34763c89.352 88.193 167.69 5.9104 173.02 0h0.34763l-0.11591-0.1159c0.11591-0.11591 0.11591-0.23181 0.11591-0.23181zm-247.19-5.215h-155.18l77.531-141.04 77.647 141.04zm82.398 0 77.762-141.27 77.878 141.27h-155.64" fill="#104179"/>
  <path d="m471.51 778.62s-67.912-78.806-147.53-56.786c-36.621 14.95-58.177 25.496-69.998 27.814-11.705 2.086-39.287 4.288-56.091-7.0693 30.827 28.161 59.452 29.9 80.544 25.959 21.092-4.0561 42.184-21.208 47.631-25.612 5.5627-4.288 25.612-28.161 64.551-12.748 28.161 13.211 63.971 52.035 69.998 58.988l10.894-10.546" fill="#104179"/>
  <path d="m323.51 720.32c-0.11581 0-31.522 13.211-31.522 13.211-18.427 7.8806-30.595 12.98-38.36 14.486-3.5926 0.69535-35.81 6.1423-54.816-6.8375l-1.9702 2.4337c0 0.11581 0.11591 0.23172 0.11591 0.23172 25.148 22.83 52.614 31.638 81.819 26.191 14.023-2.6655 30.247-11.241 48.095-25.728 0.23172-0.1159 2.3177-1.9702 2.3177-1.9702 7.3011-6.6057 26.655-24.221 60.842-10.662 27.234 12.748 62.117 49.949 69.303 58.525l1.1589 1.2748 13.211-12.748-1.043-1.1589c-0.69534-0.81125-69.418-79.269-149.15-57.25zm-69.187 30.827c7.9965-1.5066 20.281-6.7217 38.823-14.718l31.406-13.096c74.17-20.513 138.6 48.442 144.75 55.164-1.6224 1.6225-6.9534 6.7217-8.6917 8.3442-8.9236-10.198-42.416-45.545-69.418-58.061-36.042-14.37-56.439 4.172-64.203 11.241l-1.8543 1.7383c-17.615 14.139-33.376 22.599-47.051 25.148-24.916 4.7515-48.558-1.9702-70.577-18.774 19.586 6.8376 43.575 3.5926 46.82 3.0132" fill="#fff"/>
  <path d="m308.8 718.24s-43.807 9.3872-60.263 14.139c-16.456 4.8675-72.084 5.7945-104.53-43.575 25.728 21.092 57.25 21.092 69.882 20.629 12.748-0.34772 45.545 4.5198 61.654 7.5328-0.34762-3.0131-16.572-6.6057-21.44-9.1553s-18.542-6.6057-35.115-42.764c-5.5627-11.01-6.4899-17.152-10.314-20.513 6.9534 1.043 20.513 15.645 24.685 20.049s29.436 33.492 43.807 40.909c14.37 7.5329 21.44 11.126 31.638 12.748" fill="#104179"/>
  <path d="m207.62 645.81c2.086 1.7383 3.245 4.5197 4.9833 8.8076l4.9833 11.126c15.413 33.724 28.277 39.866 34.419 42.879l1.2749 0.57944 8.9235 3.245c0.92715 0.34763 2.2019 0.81116 3.3608 1.1589-16.572-2.6655-40.793-6.0263-51.687-5.6786-28.161 0.81125-51.339-6.0263-68.839-20.397l-2.4337 2.2019c31.29 47.399 86.107 50.181 106.39 44.154 16.109-4.7515 59.684-13.907 60.147-14.023l-0.11591-3.129c-10.082-1.7384-17.152-5.331-31.175-12.632-12.169-6.374-32.797-29.088-40.562-37.664l-2.7814-3.0132-1.043-1.0431c-8.6918-9.1553-18.427-18.542-24.569-19.354l-1.2748 2.7814zm55.512 63.624-8.3441-3.0132-1.3908-0.69534c-5.4468-2.5496-17.963-8.6918-32.913-41.373 0-0.1159-4.9833-11.01-4.9833-11.01-0.92716-2.4336-2.086-3.5926-3.1291-5.3309 6.374 3.7084 15.066 12.632 18.774 16.572l1.043 1.0431 2.6656 3.0132c7.8806 8.5758 28.857 31.754 41.605 38.36 10.894 5.6786 17.731 9.1553 25.032 11.241-13.096 2.8973-41.025 8.9236-53.426 12.632-18.427 5.4468-66.173 3.0131-96.884-35.347 16.92 10.894 37.896 16.34 62.813 15.529 12.169-0.34771 43.807 4.172 61.19 7.4169l2.086 0.46353-0.23181-2.2018c0-0.46363-0.92715-0.81125-1.2748-1.2749l-0.1159-0.11582c-1.5066-1.8543-4.9833-3.4768-12.516-5.9104" fill="#fff"/>
  <path d="m227.9 700.62s-22.019-6.0262-38.36-8.3441c-16.456-2.2019-73.822-16.688-96.189-84.021 22.599 26.307 27.698 27.93 40.909 34.535 13.327 6.6058 53.425 29.436 67.332 41.952l4.0561 2.3178s1.3907-1.7383-4.7515-6.9534c-5.9104-5.3309-26.191-23.758-29.32-65.015-2.5496-18.195-6.6058-34.767-7.8806-36.969 9.1553 5.2151 19.933 26.307 22.135 32.218 2.2019 6.0263 17.036 47.631 19.006 52.614 1.8542 4.8674 13.907 31.29 23.062 37.664" fill="#104179"/>
  <path d="m162.31 578.82c1.043 1.8543 5.0992 17.963 7.6488 36.506 1.5066 19.354 7.8806 46.588 29.9 65.942 0.1159 0 0.1159 0 0.1159 0.1159-15.298-12.632-51.687-33.376-65.015-39.982l-2.086-1.1589c-11.473-5.6786-17.268-8.46-38.244-33.029l-2.7814 1.5066c24.337 73.359 90.047 84.252 97.464 85.18 16.109 2.086 37.896 8.3441 38.128 8.3441l1.3907-2.7814c-8.46-6.0264-20.281-31.175-22.599-37.085l-18.89-52.498c-2.086-5.4469-12.98-27.466-22.83-33.145l-2.2019 2.086zm44.618 109.17c0.34772-0.34763 0.46353-0.81125 0.46353-1.3907 0-1.5066-1.043-3.9402-5.4468-7.6488-21.092-18.774-27.35-45.081-28.741-63.972-1.7384-12.516-4.288-24.685-6.2581-31.754 7.6488 7.6488 15.529 22.715 17.384 27.698l19.006 52.614c1.2748 3.3608 10.778 24.221 19.701 34.188-7.4169-1.8542-21.671-5.4468-33.376-6.9534-6.7217-0.92706-64.783-11.241-90.858-74.054 15.761 17.499 22.251 21.324 32.565 26.423l2.2019 1.043c13.791 6.9534 53.31 29.436 66.985 41.721 0.23181 0.23181 4.4039 2.5496 4.4039 2.5496l1.1589 0.69534 0.81124-1.159" fill="#fff"/>
  <path d="m166.6 645.69s-27.582-16.109-42.764-27.93c-15.182-11.937-57.829-42.995-53.425-98.159 6.6058 17.847 17.384 34.072 29.089 43.922 11.705 9.9666 32.913 41.257 38.012 48.558 4.9833 7.3011 8.46 9.2712 8.46 9.2712s1.6225-3.5926-4.0561-9.8507c-4.172-6.7216-11.705-22.483-7.6488-56.902 5.0992-31.986 6.9534-39.635 6.0263-44.618 4.4039 11.241 10.198 35.462 12.4 73.359 1.2748 21.44 3.7084 38.012 6.4899 45.313 2.8972 7.1852 7.4169 17.036 7.4169 17.036" fill="#104179"/>
  <path d="m138.79 510.33c0.11591 0.69534 0.11591 1.5066 0.11591 2.4337 0 3.5926-0.92706 9.2712-2.8973 21.324l-3.2449 20.281c-0.81124 6.8375-1.2748 13.096-1.2748 19.006 0 16.225 3.0131 29.32 9.0394 38.939 1.9701 2.086 2.8973 3.7085 3.4767 5.0992-1.3907-1.3907-3.1291-3.245-5.2151-6.2581l-1.7383-2.4337c-6.9534-10.198-25.728-37.201-36.506-46.356-11.473-9.7349-22.135-25.844-28.741-43.343l-3.0132 0.46353c-4.288 54.005 35.347 84.832 52.267 98.159l1.7384 1.2748c15.066 11.821 42.648 28.045 42.879 28.161l2.3178-1.9701-7.3011-17.036c-2.7814-7.417-5.215-24.105-6.4898-44.85-2.6656-45.893-10.198-68.144-12.4-73.822l-3.0132 0.92716zm0.34772 24.221c1.2748-7.3011 1.9701-11.937 2.4336-15.645 3.1291 10.894 7.5329 31.29 9.503 64.551 1.2748 20.976 3.7085 38.012 6.7217 45.777 0 0 3.2449 7.5329 5.3309 12.632-8.2282-4.9833-26.887-16.456-38.36-25.38l-1.7383-1.3907c-15.645-12.284-51.34-40.098-51.34-87.613v-1.7384c6.8375 15.761 16.109 30.016 26.771 39.055 10.546 8.8077 29.089 35.694 36.042 45.777l1.6225 2.4336c5.2151 7.417 8.9236 9.619 9.0394 9.7348l1.6225 0.92715 0.57944-1.7384c0.34771-0.46353 1.8543-4.7515-4.288-11.589-7.6488-12.284-10.082-31.059-7.1852-55.512l3.245-20.281" fill="#fff"/>
  <path d="m120.71 568.85s-9.503-14.834-18.079-24.569c-8.5758-9.503-46.472-52.382-26.887-124.7 0 16.804 2.3178 26.307 4.0562 32.334 1.9701 5.9104 20.744 46.24 22.599 57.134s4.9833 31.406 9.3872 33.724c1.6224-1.043-0.23181-4.6356-0.81125-7.9964-0.69534-3.245-6.1423-31.29 10.314-61.77 14.95-26.771 17.731-29.32 19.933-38.592 0.69534 17.5-4.9833 52.151-9.503 66.753-4.4038 14.486-16.341 48.21-11.01 67.68" fill="#104179"/>
  <path d="m101.47 545.44c8.3441 9.3871 17.847 24.105 17.847 24.221l2.8973-1.2748c-4.6357-16.92 4.5197-45.893 9.3872-61.538l1.6224-5.2151c4.288-13.907 10.314-49.022 9.619-67.332l-3.1291-0.34772c-1.6225 6.374-3.3608 9.6189-9.503 20.165l-10.314 18.195c-9.7348 17.963-11.937 35.231-11.937 47.283 0 7.0693 0.81125 11.937 1.2748 14.486-2.086-7.0693-3.9402-17.384-4.9833-22.946l-0.34763-2.3178c-1.2749-7.6488-10.082-28.161-16.572-43.111l-5.9104-14.255c-1.7383-5.5627-4.0562-15.066-4.0562-31.87l-3.129-0.46353c-12.864 47.399-3.1291 92.249 27.234 126.32zm2.3178-2.2019c-21.092-23.526-31.87-52.498-31.87-83.905 0-8.8076 1.1589-17.731 2.7814-26.771 0.81124 9.3872 2.3178 15.645 3.5926 19.817l6.1422 14.602c6.0264 13.907 15.182 35.115 16.341 42.3l0.34772 2.4336c2.8972 16.341 5.5627 30.132 9.9665 32.449l0.81125 0.34772 0.81125-0.46362c0.92715-0.57944 1.2748-1.6224 1.2748-2.6655 0-1.2748-0.34762-2.6655-0.81115-4.0561l-0.69534-2.7814c-0.46363-2.086-1.3908-7.417-1.3908-15.066 0-11.589 2.2019-28.277 11.705-45.661l10.198-18.079c2.8972-5.0992 4.8674-8.46 6.2581-11.473-0.92716 18.774-5.5627 44.85-9.0395 56.439l-1.6224 5.215c-4.288 13.559-10.894 34.304-10.894 51.34 0 1.8542 0.46362 3.4767 0.69534 5.215-3.5926-5.215-9.1553-13.096-14.602-19.238" fill="#fff"/>
  <path d="m104.83 480.89s-5.6786-23.062-12.632-41.489c-6.9534-18.542-20.281-61.538 14.255-106.39-7.3011 17.847-4.4039 29.436-4.4039 31.406s4.288 41.605 4.4039 51.455c0.1159 12.632-2.2019 34.419-2.2019 34.419s0.81124 2.6654 2.5496 0c1.043-1.6225 3.3608-29.784 20.281-46.588 15.645-15.645 28.393-27.466 31.87-33.956 0 11.473-6.6058 28.393-12.053 37.549-5.331 9.2712-27.466 39.635-32.565 49.833-4.9833 10.314-9.5031 22.483-9.5031 23.758" fill="#104179"/>
  <path d="m90.691 439.98c6.8376 18.079 12.516 41.141 12.632 41.373l3.1291-0.34763c0.1159-1.2749 4.288-12.748 9.3872-23.062 2.8973-6.0263 11.821-19.122 19.817-30.711l12.632-19.122c5.9104-10.082 12.169-27.002 12.169-38.36l-2.8973-0.81125c-2.7814 5.215-11.821 14.139-23.41 25.496l-8.2282 8.1123c-14.023 13.907-18.311 35.694-19.933 43.807 0 0-0.34772 1.8543-0.46363 2.6656 0.57953-2.8973 2.4337-33.145 2.4337-33.145l-3.245-40.678-1.1589-12.284c-0.23181-1.3907-0.46353-3.5926-0.46353-6.4898 0-5.331 0.92706-13.096 4.7515-22.83l-2.6655-1.6225c-24.453 31.87-29.32 68.144-14.486 108.01zm3.0132-1.159c-5.4468-14.602-8.2282-28.741-8.2282-42.3 0-19.006 5.6786-36.853 16.341-53.657-1.2749 5.3309-1.8543 10.082-1.8543 13.559 0 3.0131 0.23181 5.3309 0.34771 6.8375 0.23172 1.1589 1.1589 12.284 1.1589 12.284l3.3608 40.33-2.2019 34.188c0.23182 1.0431 0.81125 2.7814 2.4337 2.8973 1.1589 0.23182 2.2019-0.46353 3.0132-1.8542l1.043-4.172c1.6225-7.8806 5.6786-28.857 19.006-42.068l8.3442-8.2282c9.503-9.3872 15.993-16.109 20.165-21.556-1.5066 10.894-6.8375 24.221-11.125 31.522l-12.516 18.89c-7.9965 11.589-17.036 24.801-20.049 30.943s-6.0264 13.559-7.8806 18.774c-2.2019-7.8806-6.374-23.294-11.357-36.39" fill="#fff"/>
  <path d="m114.8 402.32s2.5496-6.374 0.23181-32.102c-2.4337-25.728-3.4767-60.842 36.39-84.484-9.9666 16.688-11.589 19.586-14.602 33.261-3.0132 13.559-6.374 35.347-11.821 47.631-2.2019 6.0264-3.5926 10.778-2.5496 11.357 0.92715 0.57943 1.3907-0.46353 2.0861-2.5496 0.92706-2.086 9.0394-20.513 25.496-32.218s31.29-23.41 36.853-34.999c-2.4336 21.44-10.546 29.089-18.658 39.866-8.8077 11.705-40.446 36.158-45.777 44.154-5.4468 7.8806-7.6488 10.082-7.6488 10.082" fill="#104179"/>
  <path d="m113.41 370.33c2.3178 24.685-0.11591 31.29-0.11591 31.29l2.5496 1.8542 7.8806-10.43c2.4336-3.5926 11.01-11.125 19.933-19.122 10.43-9.1553 21.208-18.658 25.844-24.916l3.2449-4.172c6.9535-8.9235 13.559-17.384 15.761-36.39l-3.0132-0.92706c-5.5627 11.473-20.744 23.294-36.39 34.419-11.937 8.46-19.47 20.281-23.294 27.35 0.23172-0.81116 0.34763-1.043 0.69534-2.086 4.172-9.2712 6.9534-23.873 9.6189-36.621l2.2019-11.241c3.0132-13.211 4.4039-15.877 14.486-32.797l-2.2019-2.2019c-42.88 25.496-39.171 64.899-37.201 85.991zm4.172 18.658c0-4.7516-0.23172-10.894-1.043-18.89-0.46362-4.9833-0.92715-11.01-0.92715-17.615 0-18.774 5.5627-42.068 30.132-60.147-6.1423 10.43-7.9965 14.95-10.43 26.307l-2.4336 11.241c-2.4337 12.632-5.331 27.002-9.3872 36.158-2.2019 5.9104-3.0132 9.1553-3.0132 11.01 0 1.2749 0.46363 1.8543 1.159 2.3178l0.57943 0.34772 1.3907-0.11591c1.2748-0.46362 1.8542-1.8543 2.4336-3.7085 0.81125-1.8542 9.0395-20.049 24.916-31.406 13.096-9.2712 25.496-19.122 32.913-28.857-2.6656 12.632-7.7647 19.701-13.675 27.35l-3.2449 4.0561c-4.5198 6.0263-15.529 15.877-25.38 24.569-9.503 8.46-17.847 15.761-20.513 19.701 0 0-1.8542 2.5496-3.7084 4.9833 0.11582-1.9701 0.23172-4.172 0.23172-7.301" fill="#fff"/>
  <path d="m144.58 334.06s5.2151-27.234 15.645-43.343 32.102-30.363 54.932-37.433c-7.9964 6.7217-12.864 12.748-15.645 17.615-2.7814 4.7516-20.049 31.754-27.93 40.33-8.1124 8.5759-21.092 16.341-27.002 22.83" fill="#104179"/>
  <path d="m158.83 289.79c-10.43 16.225-15.529 42.879-15.761 43.922l2.7814 1.3907 11.589-9.8507 15.182-12.98c8.2282-8.8077 25.612-35.926 28.277-40.562 3.2449-5.6786 8.3441-11.473 15.298-17.268l-1.5066-2.6656c-24.105 7.417-45.429 22.019-55.859 38.012zm2.7814 1.7383c8.8077-13.675 26.423-26.075 46.588-33.84-4.0561 4.172-7.6488 8.3441-10.082 12.4-2.6656 4.5198-19.817 31.406-27.814 40.098 0 0-19.585 16.572-23.178 19.585 1.9701-8.3441 6.8375-26.423 14.486-38.244" fill="#fff"/>
  <path d="m309.26 780.7s65.942-80.544 146.02-60.495c37.085 14.023 58.756 23.989 70.693 25.844 11.821 1.9701 39.287 3.4767 55.859-8.46-30.132 28.973-58.756 31.522-79.849 28.046-21.208-3.4768-42.648-20.049-48.21-24.337s-26.423-27.466-64.783-11.125c-28.045 13.907-62.813 53.541-68.607 60.727l-11.125-10.198" fill="#104179"/>
  <path d="m307.99 779.66-0.92706 1.1589 13.559 12.4 1.043-1.3907c7.0693-8.6918 41.141-46.82 68.028-60.263 33.724-14.37 53.541 2.7814 60.958 9.2712l2.086 1.7383c18.427 14.023 34.767 22.367 49.022 24.685 29.204 4.6357 56.555-4.8674 81.007-28.277 0.11591-0.1159 0.11591-0.1159 0.11591-0.23181l-1.9701-2.4336c-18.774 13.443-51.108 8.8076-54.7 8.2282-7.7646-1.2748-19.817-6.0263-38.128-13.327l-32.218-12.516c-80.312-20.165-147.18 60.147-147.88 60.958zm146.95-57.945 31.986 12.516c18.542 7.3011 30.711 12.169 38.823 13.443 3.0132 0.46353 25.844 3.5926 44.85-2.8973-21.092 16.456-43.922 23.178-68.375 19.238-13.559-2.2019-29.552-10.198-47.283-23.873-0.23182-0.1159-2.2019-1.7384-2.2019-1.7384-7.8806-6.8375-28.741-24.916-64.435-9.6189-26.539 13.096-59.336 49.253-68.028 59.799-1.7384-1.5066-7.1852-6.6058-8.8077-7.9965 5.9104-6.9534 68.607-77.531 143.47-58.872" fill="#fff"/>
  <path d="m470.46 716.27s44.038 8.1124 60.495 12.516c16.572 4.4038 72.316 3.9402 103.61-46.24-25.264 21.787-56.902 22.599-69.534 22.483s-45.429 5.5627-61.306 9.0394c0.23181-3.129 16.341-7.0693 21.208-9.7348 4.7515-2.6655 18.311-7.0693 33.956-43.691 5.4468-11.125 6.1422-17.384 9.9666-20.744-6.9534 1.2748-20.165 16.225-24.221 20.629-4.172 4.6356-28.741 34.304-42.879 42.068-14.139 7.9964-21.208 11.589-31.29 13.675" fill="#104179"/>
  <path d="m544.63 658.21-1.1589 1.2748-3.1291 3.4768c-7.5328 8.6917-27.466 31.754-39.287 38.244-14.37 8.1123-21.208 11.473-30.943 13.443v3.129c0.34772 0.11591 44.154 8.2282 60.495 12.516 20.397 5.5628 75.213 1.3907 105.23-46.936l-2.3177-1.9701c-17.268 14.834-40.33 22.251-68.375 22.019-11.01-0.11582-34.999 3.8244-51.687 7.0693 1.1589-0.46353 2.4337-0.92706 3.4767-1.2748l8.6918-3.4767 1.3907-0.69534c5.5627-2.7814 18.658-9.503 33.376-43.691l4.7515-11.241c1.6225-4.288 2.7814-7.1852 4.6357-8.9236l-1.2749-2.7814c-6.0263 1.0431-15.413 10.546-23.873 19.817zm-42.068 45.893c12.284-6.9534 31.87-29.436 40.214-39.055l3.0131-3.3609 1.2749-1.3907c3.5926-3.9402 11.937-12.864 18.079-16.804-0.92716 1.7384-2.086 3.0132-3.0132 5.4468l-4.6356 11.01c-14.255 33.261-26.655 39.519-31.986 42.3l-1.3907 0.69534-8.2282 3.2449c-7.5329 2.6656-10.894 4.4039-12.4 6.2582l-0.11591 0.11582c-0.34762 0.46362-1.1589 0.92715-1.2748 1.3908l-0.11591 2.2018 2.086-0.57944c14.834-3.2449 47.979-9.0394 60.958-8.9235 24.916 0.11591 45.777-5.7945 62.465-17.268-29.9 39.287-77.531 42.88-96.073 37.896-12.4-3.3609-40.562-8.8077-53.773-11.241 7.0693-2.3178 13.791-5.7945 24.916-11.937zm57.829-42.764" fill="#fff"/>
  <path d="m551.01 696.57s21.671-6.7216 38.012-9.2712c16.456-2.6655 73.475-18.658 94.103-86.57-21.903 26.887-26.887 28.625-39.982 35.694-13.096 6.8375-52.73 30.595-66.405 43.459l-4.0562 2.4336s-1.1589-1.6225 4.6357-6.9534c5.9104-5.4468 25.728-24.453 27.93-65.826 2.0861-18.195 5.7945-34.767 7.0693-37.201-9.0394 5.5627-19.354 27.002-21.44 32.913-2.086 6.0264-15.993 47.979-17.731 52.962-1.8543 4.9833-13.212 31.638-22.135 38.36" fill="#104179"/>
  <path d="m589.37 604.78-17.731 52.962c-2.3178 6.1422-13.443 31.406-21.671 37.549l1.3907 2.7814c0.23172 0 21.903-6.7217 38.012-9.2712 7.3011-1.1589 72.779-13.675 95.378-87.613l-2.7814-1.5066c-20.629 25.264-25.959 28.045-37.549 34.188l-2.086 1.043c-12.98 6.9534-48.326 28.277-63.74 41.373 21.44-20.049 27.234-47.283 28.277-66.637 2.086-18.658 5.6786-34.651 6.8376-36.506l-2.3178-2.2018c-9.7348 6.0263-20.049 28.393-22.019 33.84zm-14.718 54.005 17.731-52.962c1.7383-5.0992 9.2712-20.281 16.688-28.161-1.7383 7.0693-3.9402 19.006-5.4468 31.638-1.5066 27.466-10.662 49.253-27.35 64.899-4.0561 3.7084-5.215 6.1422-5.215 7.6488 0 0.57944 0.11591 1.1589 0.46353 1.5066l0.81125 1.043 5.2151-3.129c13.559-12.632 52.614-36.158 66.289-43.459l1.9701-1.043c10.314-5.4469 16.688-9.3872 32.102-27.466-24.453 63.508-82.282 75.213-89.12 76.372-11.589 1.8543-25.728 5.6786-33.145 7.8806 8.6917-10.082 17.499-30.595 19.006-34.767" fill="#fff"/>
  <path d="m610.92 640.13s27.118-16.92 42.068-29.204c14.834-12.169 56.786-44.27 51.108-99.318-6.2581 17.963-16.572 34.42-28.046 44.618s-31.87 42.068-36.737 49.485c-4.9833 7.417-8.3441 9.503-8.3441 9.503s-1.7383-3.5926 3.8244-10.082c3.9402-6.6057 11.241-22.715 6.2581-56.902-5.7945-31.986-7.7646-39.519-7.0693-44.386-4.0561 11.241-9.2712 35.462-10.546 73.475-0.69535 21.556-2.8973 38.128-5.5627 45.429-2.6656 7.417-6.9535 17.384-6.9535 17.384" fill="#104179"/>
  <path d="m621.82 577.31c-0.69534 20.744-2.7814 37.548-5.4468 44.85l-6.8376 17.384 2.3178 1.9701c0.23181-0.23181 27.35-17.152 42.184-29.32l1.7383-1.3907c16.572-13.675 55.512-45.429 49.949-99.434l-3.1291-0.34772c-6.1422 17.847-16.225 33.956-27.582 44.038-10.546 9.3872-28.625 36.853-35.462 47.283l-1.6225 2.5496c-2.086 3.0131-3.7084 4.8674-4.9833 6.2581 0.46362-1.2748 1.2749-2.8973 3.0132-4.9833 5.5627-9.2712 8.3441-21.672 8.3441-36.737 0-6.7217-0.46353-13.907-1.6224-21.44 0-0.1159-3.8244-20.629-3.8244-20.629-2.3178-12.284-3.3608-17.847-3.3608-21.324 0-0.69535 0-1.3907 0.1159-1.9701l-3.0132-0.81125c-2.2019 5.7945-9.1553 28.277-10.778 74.054zm-2.4336 46.009c2.7814-7.6488 4.9832-24.801 5.6786-45.893 1.159-33.261 5.0992-53.657 7.9965-64.667 0.46363 3.5926 1.2748 8.2282 2.6655 15.182l3.8244 20.513c1.043 7.5329 1.6225 14.602 1.6225 21.092 0 14.37-2.6656 26.191-7.7647 34.767-3.4767 4.0562-4.288 7.3011-4.288 9.2712 0 1.2748 0.34762 2.086 0.46353 2.2019l0.69534 1.7384 1.5066-0.92716c0.23181-0.1159 3.8244-2.4337 8.8077-9.9666l1.7383-2.5496c6.7217-10.314 24.569-37.549 34.883-46.588 10.314-9.2712 19.238-23.758 25.612-39.635 0.11581 1.2749 0.23172 2.6656 0.23172 3.9403 0 46.124-34.188 74.17-49.369 86.57l-1.7383 1.3907c-11.241 9.2712-29.552 21.208-37.664 26.423 1.9701-4.9833 5.0992-12.864 5.0992-12.864" fill="#fff"/>
  <path d="m654.96 562.02s9.1553-15.066 17.5-24.916c8.3441-9.7348 45.313-53.657 23.989-125.39 0.34763 16.804-1.6225 26.423-3.3609 32.449-1.7383 5.9104-19.47 46.704-21.092 57.597-1.7383 11.01-4.4039 31.522-8.8076 33.956-1.5066-0.92706 0.34762-4.6356 0.81115-7.8806 0.57953-3.3608 5.331-31.638-11.821-61.538-15.529-26.307-18.427-28.973-20.744-38.128-0.34762 17.499 6.2582 52.035 10.894 66.405 4.8674 14.486 17.615 47.863 12.632 67.448" fill="#104179"/>
  <path d="m694.83 411.71v4.288c0 11.01-1.0431 20.049-3.2449 27.698l-5.7945 14.95c-6.0264 14.95-14.255 35.462-15.414 42.88l-0.46353 3.129c-0.81124 5.6786-2.3178 15.298-4.172 22.019 0.34771-2.3178 0.92715-6.2581 0.92715-12.053 0-12.053-2.3178-30.247-13.212-49.138l-10.778-17.963c-6.2582-10.314-8.1124-13.559-9.7349-19.701l-3.2449 0.34762c-0.23182 18.079 6.6058 53.078 11.125 66.985l1.8543 5.3309c5.215 15.413 15.066 44.154 10.778 61.19l2.8973 1.1589c0.1159-0.11591 9.1553-15.066 17.384-24.685 29.552-34.767 38.128-79.848 24.221-126.9l-3.1291 0.46353zm-30.827 125.39c4.4039-2.4336 6.7217-15.993 9.0395-31.986l0.46353-3.0132c1.1589-7.1852 9.6189-28.277 15.182-42.3l5.9104-15.182c1.159-4.0561 2.3178-11.125 2.8973-20.629 2.3178 10.314 3.7085 20.513 3.7085 30.479 0 30.131-10.082 58.293-29.9 81.587-5.215 6.1422-10.546 14.023-14.023 19.354 0.11591-1.2748 0.46353-2.3177 0.46353-3.5925 0-17.152-7.301-38.592-12.053-52.382l-1.8542-5.331c-3.7085-11.589-8.8077-37.317-10.198-55.975 1.5066 2.8973 3.3609 6.1422 6.374 11.01l10.778 17.963c10.43 18.311 12.632 35.81 12.632 47.399 0 6.4899-0.69534 11.241-0.92706 12.98-0.1159 0-0.81124 3.0132-0.81124 3.0132-0.23181 1.3907-0.69534 2.6655-0.69534 3.8243s0.34762 2.2019 1.3907 2.7814l0.81125 0.46363 0.81115-0.46363" fill="#fff"/>
  <path d="m668.75 473.82s5.215-23.294 11.705-41.952 18.774-61.886-16.688-105.92c7.6488 17.615 5.0992 29.32 5.215 31.29 0 1.9702-3.4767 41.721-3.2449 51.571 0.1159 12.632 3.0132 34.304 3.0132 34.304s-0.81124 2.6655-2.5496 0.11591c-1.1589-1.7384-4.0561-29.784-21.324-46.124-16.109-15.182-29.088-26.655-32.681-33.145 0.23172 11.589 7.301 28.161 12.864 37.317 5.5628 9.0394 28.393 38.939 33.724 49.022 5.215 10.082 9.9666 22.135 9.9666 23.526" fill="#104179"/>
  <path d="m662.26 326.64c4.6356 10.314 5.4468 18.542 5.4468 23.873 0 2.3178-0.11591 4.0561-0.23172 5.2151l-0.92716 11.589-2.4337 41.489s1.8543 21.092 2.6656 30.247c-1.9702-8.9236-6.6058-29.668-20.86-42.995 0-0.11591-8.8077-8.4601-8.8077-8.4601-11.589-10.894-20.744-19.47-23.526-24.453l-3.0132 0.81125c0.23181 11.357 6.9534 28.045 13.096 38.128l13.212 19.006c8.2282 11.241 17.384 24.105 20.397 29.9 5.4468 10.314 9.7348 21.671 9.8507 22.946l3.2449 0.23172c0-0.23172 5.2151-23.41 11.589-41.836 14.023-39.866 8.3441-76.024-17.036-107.43l-2.6655 1.7384zm5.6786 119.25c1.6225-0.23181 2.2019-1.9701 2.3178-2.3178 0-1.2748-3.0132-34.767-3.0132-34.767l2.5496-41.141 0.69534-10.43c0.11591-1.7383 0.34772-3.9402 0.34772-6.6057 0-3.8244-0.81125-9.1553-2.3178-14.95 11.589 17.152 17.731 35.694 17.731 55.627 0 12.864-2.4337 26.191-7.3011 39.982-4.6356 13.327-8.5759 28.857-10.43 36.737-1.9701-5.0992-5.0992-12.4-8.3441-18.542-3.245-6.0263-12.516-18.89-20.629-30.247l-13.096-18.89c-5.0992-8.2282-10.314-20.86-12.053-31.174 4.2879 5.215 10.894 11.705 20.513 20.86l8.9235 8.2282c13.559 12.864 17.963 33.029 19.817 41.605l1.1589 4.172c0.92715 1.3907 1.9702 1.9701 3.1291 1.8542" fill="#fff"/>
  <path d="m657.05 395.37s-2.6655-6.2582-0.92706-31.986c1.7383-25.844 1.9701-60.958-38.36-83.673 10.314 16.572 11.937 19.47 15.298 33.029 3.3608 13.443 7.3011 35.115 12.98 47.283 2.3178 6.0264 3.9402 10.662 2.8973 11.241-1.0431 0.69534-1.5066-0.46362-2.3178-2.4337-0.81124-2.086-9.503-20.281-26.075-31.522-16.804-11.357-31.87-22.715-37.664-34.072 2.7814 21.324 11.125 28.741 19.47 39.287 9.0394 11.473 41.257 35.115 46.82 42.88 5.6786 7.8805 7.8806 9.9666 7.8806 9.9666" fill="#104179"/>
  <path d="m616.37 280.63c10.43 16.688 11.937 19.354 15.182 32.449l2.4337 10.662c2.8973 12.864 6.1422 27.466 10.546 36.969 0.23181 0.57953 0.69534 1.7384 1.0431 2.6656-3.7085-6.7217-11.473-18.89-24.221-27.466-15.877-10.662-31.406-22.251-37.085-33.376l-3.0132 0.92706c2.5496 18.89 9.2712 27.118 16.572 35.926l3.2449 4.0561c4.8674 6.2581 15.993 15.529 26.539 24.569 9.1553 7.6488 17.731 14.834 20.281 18.427l8.1124 10.082 2.5496-1.8542c-0.11591 0-2.5496-6.4899-0.81125-31.175 1.3907-21.324 4.0562-60.843-39.171-85.18l-2.2019 2.3178zm33.376 91.901c0.69534-0.34772 1.043-1.0431 1.043-2.086 0-1.8543-1.043-5.0992-3.2449-11.01-4.288-9.1553-7.6488-24.337-10.43-36.39l-2.5496-10.778c-2.7814-11.357-4.7515-15.761-11.01-26.191 25.496 17.615 31.522 40.562 31.522 62.929 0 4.8674-0.23181 9.6189-0.46353 14.255-0.46362 6.4899-0.57943 11.705-0.57943 15.877 0 4.6357 0.11581 7.7647 0.46353 10.314l-3.9403-4.8674c-2.7814-3.8244-11.125-10.894-20.86-19.006-10.082-8.46-21.44-18.079-26.191-23.989l-3.2449-4.172c-6.0264-7.4169-11.241-14.254-14.255-26.771 7.0693 8.9236 18.542 17.847 33.608 27.93 17.152 11.705 25.496 30.711 25.612 30.827 0.69534 1.8543 1.1589 3.1291 2.4337 3.4767l0.69534 0.34772 1.3907-0.69534" fill="#fff"/>
  <path d="m625.64 327.92s-5.7945-27.002-16.688-42.88c-10.662-15.877-32.681-29.552-55.627-36.042 8.1123 6.4899 13.096 12.4 15.993 17.152s20.86 31.29 28.973 39.635c8.2283 8.46 21.44 15.761 27.35 22.135" fill="#104179"/>
  <path d="m552.28 250.27c8.8077 6.8376 13.327 12.864 15.645 16.688 2.7814 4.6356 20.86 31.406 29.32 39.982l15.529 12.632 11.821 9.387 2.6655-1.3907c-0.23172-1.1589-6.0263-27.466-16.92-43.459-10.778-15.761-32.449-29.784-56.555-36.621l-1.5066 2.7814zm62.349 66.753-15.182-12.4c-8.1124-8.2283-26.075-34.999-28.741-39.287-2.4336-3.9402-6.1422-7.9965-10.43-12.169 20.397 7.3011 38.244 19.238 47.399 32.797 7.8806 11.589 13.211 29.436 15.298 37.78-3.4767-2.8973-8.3441-6.7217-8.3441-6.7217" fill="#fff"/>
 </g>
</svg>
